G04 #@! TF.GenerationSoftware,KiCad,Pcbnew,5.1.2-f72e74a~84~ubuntu16.04.1*
G04 #@! TF.CreationDate,2019-05-11T14:37:20+08:00*
G04 #@! TF.ProjectId,MixtapeNEO-3000,4d697874-6170-4654-9e45-4f2d33303030,rev?*
G04 #@! TF.SameCoordinates,Original*
G04 #@! TF.FileFunction,Legend,Top*
G04 #@! TF.FilePolarity,Positive*
%FSLAX46Y46*%
G04 Gerber Fmt 4.6, Leading zero omitted, Abs format (unit mm)*
G04 Created by KiCad (PCBNEW 5.1.2-f72e74a~84~ubuntu16.04.1) date 2019-05-11 14:37:20*
%MOMM*%
%LPD*%
G04 APERTURE LIST*
%ADD10C,0.010000*%
%ADD11C,0.120000*%
%ADD12C,0.150000*%
G04 APERTURE END LIST*
D10*
G36*
X129614972Y-97225275D02*
G01*
X130000158Y-97252131D01*
X130379019Y-97303448D01*
X130752217Y-97379371D01*
X131120415Y-97480047D01*
X131484273Y-97605620D01*
X131844456Y-97756235D01*
X132010450Y-97834634D01*
X132352419Y-98016047D01*
X132680389Y-98218309D01*
X132993557Y-98440565D01*
X133291123Y-98681963D01*
X133572284Y-98941648D01*
X133836240Y-99218769D01*
X134082190Y-99512472D01*
X134309332Y-99821903D01*
X134516865Y-100146209D01*
X134703988Y-100484538D01*
X134869900Y-100836035D01*
X134903840Y-100915923D01*
X135039991Y-101275720D01*
X135152345Y-101643273D01*
X135240778Y-102017124D01*
X135305160Y-102395814D01*
X135345367Y-102777882D01*
X135361270Y-103161870D01*
X135352743Y-103546320D01*
X135319661Y-103929771D01*
X135261894Y-104310764D01*
X135217588Y-104527550D01*
X135120858Y-104902271D01*
X135001096Y-105267283D01*
X134859079Y-105621729D01*
X134695583Y-105964749D01*
X134511384Y-106295488D01*
X134307259Y-106613087D01*
X134083984Y-106916689D01*
X133842335Y-107205436D01*
X133583088Y-107478472D01*
X133307020Y-107734937D01*
X133014906Y-107973975D01*
X132707524Y-108194729D01*
X132385649Y-108396341D01*
X132050057Y-108577952D01*
X131701526Y-108738707D01*
X131340830Y-108877746D01*
X131252508Y-108907800D01*
X130902296Y-109012755D01*
X130552062Y-109094956D01*
X130198819Y-109154820D01*
X129839582Y-109192764D01*
X129471365Y-109209206D01*
X129121200Y-109205669D01*
X128743204Y-109179878D01*
X128367345Y-109129213D01*
X127995064Y-109054193D01*
X127627802Y-108955333D01*
X127267003Y-108833151D01*
X126914107Y-108688164D01*
X126570556Y-108520890D01*
X126237792Y-108331844D01*
X125917258Y-108121545D01*
X125742645Y-107993933D01*
X125440429Y-107748726D01*
X125156219Y-107486077D01*
X124890616Y-107206983D01*
X124644221Y-106912443D01*
X124417634Y-106603454D01*
X124211456Y-106281016D01*
X124026288Y-105946126D01*
X123862731Y-105599782D01*
X123721385Y-105242982D01*
X123602852Y-104876724D01*
X123507732Y-104502007D01*
X123445852Y-104178300D01*
X123402564Y-103851268D01*
X123377076Y-103514937D01*
X123372970Y-103330897D01*
X124787620Y-103330897D01*
X124807756Y-103666131D01*
X124852224Y-103997944D01*
X124873946Y-104114800D01*
X124892955Y-104204140D01*
X124914910Y-104297717D01*
X124938819Y-104392163D01*
X124963690Y-104484112D01*
X124988531Y-104570197D01*
X125012349Y-104647051D01*
X125034154Y-104711307D01*
X125052953Y-104759599D01*
X125067753Y-104788559D01*
X125074458Y-104795319D01*
X125095823Y-104794907D01*
X125139487Y-104786571D01*
X125203776Y-104770780D01*
X125287015Y-104747999D01*
X125387530Y-104718699D01*
X125503646Y-104683345D01*
X125633688Y-104642406D01*
X125711151Y-104617481D01*
X125825049Y-104581150D01*
X125915660Y-104553551D01*
X125983495Y-104534543D01*
X126029068Y-104523985D01*
X126052890Y-104521738D01*
X126056192Y-104522894D01*
X126066065Y-104537551D01*
X126085200Y-104571501D01*
X126111725Y-104621211D01*
X126143763Y-104683145D01*
X126179441Y-104753769D01*
X126192037Y-104779071D01*
X126234314Y-104862373D01*
X126279407Y-104947898D01*
X126323900Y-105029391D01*
X126364376Y-105100597D01*
X126397419Y-105155259D01*
X126398018Y-105156200D01*
X126460792Y-105254880D01*
X126510977Y-105334725D01*
X126549828Y-105398194D01*
X126578603Y-105447746D01*
X126598557Y-105485839D01*
X126610947Y-105514934D01*
X126617029Y-105537488D01*
X126618060Y-105555962D01*
X126615295Y-105572814D01*
X126613753Y-105578475D01*
X126602274Y-105594163D01*
X126574107Y-105623922D01*
X126531840Y-105665281D01*
X126478058Y-105715766D01*
X126415349Y-105772906D01*
X126346299Y-105834229D01*
X126344679Y-105835650D01*
X126254907Y-105915382D01*
X126172468Y-105990623D01*
X126099229Y-106059531D01*
X126037054Y-106120264D01*
X125987809Y-106170980D01*
X125953360Y-106209839D01*
X125935573Y-106234998D01*
X125933500Y-106241524D01*
X125942163Y-106256660D01*
X125966084Y-106286080D01*
X126002156Y-106326517D01*
X126047273Y-106374706D01*
X126098330Y-106427382D01*
X126152221Y-106481280D01*
X126205839Y-106533133D01*
X126249159Y-106573414D01*
X126514273Y-106798896D01*
X126787342Y-107000509D01*
X127069270Y-107178788D01*
X127360960Y-107334266D01*
X127663315Y-107467477D01*
X127921050Y-107560868D01*
X128016404Y-107591177D01*
X128115433Y-107620783D01*
X128213833Y-107648561D01*
X128307299Y-107673384D01*
X128391524Y-107694126D01*
X128462204Y-107709662D01*
X128515035Y-107718866D01*
X128532016Y-107720654D01*
X128540984Y-107709597D01*
X128553963Y-107679022D01*
X128568962Y-107634091D01*
X128579353Y-107597775D01*
X128591285Y-107550464D01*
X128607127Y-107483342D01*
X128625736Y-107401491D01*
X128645969Y-107309990D01*
X128666684Y-107213922D01*
X128681279Y-107144664D01*
X128704594Y-107035014D01*
X128724040Y-106948583D01*
X128740091Y-106883562D01*
X128753220Y-106838145D01*
X128763900Y-106810522D01*
X128771690Y-106799469D01*
X128786755Y-106791570D01*
X128809754Y-106785056D01*
X128842756Y-106779839D01*
X128887834Y-106775830D01*
X128947058Y-106772941D01*
X129022500Y-106771084D01*
X129116230Y-106770172D01*
X129230320Y-106770116D01*
X129366840Y-106770828D01*
X129432934Y-106771348D01*
X129558524Y-106772523D01*
X129661192Y-106773787D01*
X129743415Y-106775259D01*
X129807672Y-106777061D01*
X129856440Y-106779312D01*
X129892196Y-106782133D01*
X129917420Y-106785643D01*
X129934587Y-106789963D01*
X129946177Y-106795213D01*
X129947950Y-106796323D01*
X129958448Y-106804848D01*
X129967740Y-106817555D01*
X129976742Y-106837586D01*
X129986370Y-106868082D01*
X129997540Y-106912182D01*
X130011167Y-106973028D01*
X130028167Y-107053760D01*
X130040525Y-107113823D01*
X130072389Y-107267226D01*
X130100256Y-107396556D01*
X130124372Y-107502779D01*
X130144985Y-107586867D01*
X130162342Y-107649787D01*
X130176691Y-107692509D01*
X130188280Y-107716000D01*
X130195681Y-107721600D01*
X130210652Y-107718999D01*
X130245231Y-107711923D01*
X130294244Y-107701455D01*
X130351570Y-107688892D01*
X130681977Y-107602787D01*
X131003306Y-107493168D01*
X131314512Y-107360620D01*
X131614552Y-107205724D01*
X131902383Y-107029065D01*
X132176962Y-106831223D01*
X132437245Y-106612783D01*
X132655647Y-106401913D01*
X132805544Y-106247402D01*
X132767715Y-106200276D01*
X132729444Y-106156620D01*
X132674267Y-106100074D01*
X132601528Y-106030016D01*
X132510573Y-105945824D01*
X132400747Y-105846875D01*
X132324775Y-105779506D01*
X132243388Y-105706565D01*
X132180417Y-105647645D01*
X132136290Y-105603171D01*
X132111436Y-105573571D01*
X132105700Y-105561296D01*
X132108458Y-105538348D01*
X132117787Y-105509790D01*
X132135263Y-105472587D01*
X132162467Y-105423701D01*
X132200976Y-105360098D01*
X132252369Y-105278740D01*
X132253638Y-105276757D01*
X132323508Y-105166299D01*
X132382110Y-105070435D01*
X132432884Y-104983052D01*
X132479270Y-104898036D01*
X132524711Y-104809275D01*
X132572646Y-104710655D01*
X132574618Y-104706516D01*
X132604937Y-104643986D01*
X132632295Y-104589714D01*
X132654536Y-104547813D01*
X132669504Y-104522395D01*
X132674066Y-104516786D01*
X132689000Y-104518535D01*
X132724915Y-104527379D01*
X132778686Y-104542409D01*
X132847188Y-104562714D01*
X132927296Y-104587386D01*
X133015887Y-104615515D01*
X133040872Y-104623589D01*
X133175818Y-104666898D01*
X133297685Y-104705071D01*
X133404675Y-104737584D01*
X133494988Y-104763916D01*
X133566826Y-104783541D01*
X133618389Y-104795936D01*
X133647879Y-104800578D01*
X133649090Y-104800600D01*
X133660927Y-104788759D01*
X133677459Y-104755383D01*
X133697689Y-104703690D01*
X133720616Y-104636897D01*
X133745242Y-104558222D01*
X133770568Y-104470884D01*
X133795595Y-104378100D01*
X133819325Y-104283088D01*
X133840758Y-104189066D01*
X133844803Y-104170084D01*
X133902583Y-103842409D01*
X133936584Y-103519766D01*
X133946921Y-103198573D01*
X133933710Y-102875245D01*
X133897066Y-102546199D01*
X133897065Y-102546190D01*
X133881737Y-102450134D01*
X133863224Y-102349648D01*
X133842373Y-102248061D01*
X133820030Y-102148700D01*
X133797041Y-102054892D01*
X133774254Y-101969965D01*
X133752514Y-101897245D01*
X133732669Y-101840061D01*
X133715565Y-101801738D01*
X133703764Y-101786449D01*
X133680243Y-101782678D01*
X133635274Y-101787712D01*
X133568499Y-101801644D01*
X133479560Y-101824568D01*
X133368101Y-101856575D01*
X133233763Y-101897757D01*
X133076189Y-101948208D01*
X133068146Y-101950828D01*
X132978928Y-101979490D01*
X132895558Y-102005475D01*
X132821692Y-102027706D01*
X132760983Y-102045109D01*
X132717084Y-102056606D01*
X132693739Y-102061115D01*
X132668462Y-102061288D01*
X132652805Y-102054246D01*
X132641219Y-102034359D01*
X132628155Y-101995997D01*
X132627492Y-101993900D01*
X132603343Y-101929584D01*
X132566892Y-101848510D01*
X132520399Y-101754734D01*
X132466124Y-101652308D01*
X132406328Y-101545288D01*
X132343270Y-101437726D01*
X132279209Y-101333678D01*
X132216407Y-101237197D01*
X132162409Y-101159604D01*
X132068681Y-101030158D01*
X132274515Y-100850048D01*
X132352727Y-100781057D01*
X132441814Y-100701570D01*
X132534126Y-100618468D01*
X132622015Y-100538631D01*
X132686568Y-100479366D01*
X132892786Y-100288796D01*
X132817642Y-100204723D01*
X132761106Y-100143773D01*
X132691047Y-100071767D01*
X132613154Y-99994264D01*
X132533118Y-99916824D01*
X132456627Y-99845004D01*
X132389370Y-99784365D01*
X132372400Y-99769659D01*
X132241204Y-99662510D01*
X132094170Y-99551418D01*
X131938644Y-99441498D01*
X131781972Y-99337862D01*
X131631498Y-99245624D01*
X131565482Y-99207928D01*
X131466716Y-99156124D01*
X131355164Y-99102914D01*
X131234273Y-99049535D01*
X131107494Y-98997224D01*
X130978275Y-98947219D01*
X130850065Y-98900756D01*
X130726313Y-98859073D01*
X130610469Y-98823407D01*
X130505982Y-98794996D01*
X130416301Y-98775076D01*
X130344874Y-98764884D01*
X130327646Y-98763913D01*
X130295890Y-98763784D01*
X130268650Y-98766741D01*
X130245058Y-98774792D01*
X130224245Y-98789944D01*
X130205344Y-98814205D01*
X130187487Y-98849582D01*
X130169806Y-98898083D01*
X130151433Y-98961714D01*
X130131501Y-99042484D01*
X130109140Y-99142400D01*
X130083484Y-99263468D01*
X130057632Y-99388416D01*
X129978450Y-99773050D01*
X129597450Y-99772192D01*
X129427134Y-99772884D01*
X129281086Y-99775804D01*
X129158270Y-99780987D01*
X129057648Y-99788465D01*
X129038650Y-99790394D01*
X128955504Y-99799118D01*
X128893753Y-99804927D01*
X128849562Y-99807867D01*
X128819098Y-99807983D01*
X128798529Y-99805320D01*
X128784021Y-99799923D01*
X128773991Y-99793512D01*
X128765204Y-99780438D01*
X128754464Y-99751636D01*
X128741287Y-99705249D01*
X128725188Y-99639423D01*
X128705684Y-99552303D01*
X128682291Y-99442032D01*
X128682095Y-99441087D01*
X128653820Y-99305992D01*
X128629793Y-99193436D01*
X128609312Y-99101045D01*
X128591677Y-99026444D01*
X128576188Y-98967259D01*
X128562144Y-98921116D01*
X128548844Y-98885640D01*
X128535589Y-98858457D01*
X128521677Y-98837192D01*
X128506409Y-98819472D01*
X128495577Y-98808872D01*
X128467403Y-98787978D01*
X128434440Y-98776013D01*
X128392516Y-98772926D01*
X128337460Y-98778666D01*
X128265100Y-98793181D01*
X128214231Y-98805433D01*
X127973856Y-98874239D01*
X127726362Y-98961300D01*
X127478637Y-99063684D01*
X127237572Y-99178457D01*
X127010054Y-99302686D01*
X126923098Y-99355167D01*
X126777128Y-99451811D01*
X126622827Y-99564532D01*
X126466198Y-99688438D01*
X126313245Y-99818636D01*
X126169971Y-99950237D01*
X126066515Y-100053075D01*
X126004018Y-100118755D01*
X125957968Y-100169886D01*
X125926359Y-100209375D01*
X125907188Y-100240129D01*
X125898450Y-100265055D01*
X125898140Y-100287059D01*
X125899732Y-100294934D01*
X125914937Y-100323966D01*
X125949295Y-100367845D01*
X126001981Y-100425736D01*
X126072173Y-100496801D01*
X126159045Y-100580202D01*
X126261773Y-100675101D01*
X126366327Y-100768961D01*
X126435417Y-100830918D01*
X126497819Y-100888134D01*
X126551098Y-100938277D01*
X126592820Y-100979014D01*
X126620553Y-101008011D01*
X126631862Y-101022935D01*
X126632000Y-101023671D01*
X126625171Y-101051967D01*
X126604095Y-101094731D01*
X126567885Y-101153551D01*
X126522730Y-101219960D01*
X126466731Y-101303601D01*
X126406940Y-101399400D01*
X126345833Y-101502816D01*
X126285886Y-101609311D01*
X126229576Y-101714344D01*
X126179379Y-101813377D01*
X126137772Y-101901871D01*
X126107230Y-101975286D01*
X126100524Y-101993900D01*
X126086364Y-102032986D01*
X126074430Y-102053442D01*
X126058872Y-102060718D01*
X126033838Y-102060264D01*
X126029658Y-102059928D01*
X126005307Y-102055034D01*
X125960552Y-102043185D01*
X125899080Y-102025471D01*
X125824578Y-102002980D01*
X125740734Y-101976805D01*
X125652032Y-101948294D01*
X125524291Y-101907350D01*
X125406080Y-101870835D01*
X125299791Y-101839414D01*
X125207815Y-101813756D01*
X125132546Y-101794527D01*
X125076374Y-101782393D01*
X125041693Y-101778020D01*
X125041010Y-101778016D01*
X125029711Y-101780115D01*
X125019518Y-101788588D01*
X125009104Y-101806674D01*
X124997147Y-101837613D01*
X124982321Y-101884642D01*
X124963303Y-101951002D01*
X124948689Y-102003766D01*
X124872349Y-102328678D01*
X124820001Y-102659770D01*
X124791730Y-102994643D01*
X124787620Y-103330897D01*
X123372970Y-103330897D01*
X123369510Y-103175831D01*
X123379993Y-102840475D01*
X123408647Y-102515396D01*
X123413425Y-102476500D01*
X123474346Y-102094071D01*
X123558611Y-101720021D01*
X123665454Y-101355154D01*
X123794110Y-101000270D01*
X123943816Y-100656172D01*
X124113806Y-100323662D01*
X124303315Y-100003543D01*
X124511580Y-99696616D01*
X124737835Y-99403685D01*
X124981315Y-99125551D01*
X125241256Y-98863016D01*
X125516894Y-98616882D01*
X125807463Y-98387953D01*
X126112199Y-98177029D01*
X126430337Y-97984914D01*
X126761113Y-97812410D01*
X127103761Y-97660318D01*
X127457518Y-97529441D01*
X127821618Y-97420581D01*
X128195296Y-97334541D01*
X128340150Y-97307910D01*
X128509574Y-97280589D01*
X128664608Y-97259522D01*
X128814048Y-97243860D01*
X128966691Y-97232754D01*
X129131333Y-97225356D01*
X129222800Y-97222735D01*
X129614972Y-97225275D01*
X129614972Y-97225275D01*
G37*
X129614972Y-97225275D02*
X130000158Y-97252131D01*
X130379019Y-97303448D01*
X130752217Y-97379371D01*
X131120415Y-97480047D01*
X131484273Y-97605620D01*
X131844456Y-97756235D01*
X132010450Y-97834634D01*
X132352419Y-98016047D01*
X132680389Y-98218309D01*
X132993557Y-98440565D01*
X133291123Y-98681963D01*
X133572284Y-98941648D01*
X133836240Y-99218769D01*
X134082190Y-99512472D01*
X134309332Y-99821903D01*
X134516865Y-100146209D01*
X134703988Y-100484538D01*
X134869900Y-100836035D01*
X134903840Y-100915923D01*
X135039991Y-101275720D01*
X135152345Y-101643273D01*
X135240778Y-102017124D01*
X135305160Y-102395814D01*
X135345367Y-102777882D01*
X135361270Y-103161870D01*
X135352743Y-103546320D01*
X135319661Y-103929771D01*
X135261894Y-104310764D01*
X135217588Y-104527550D01*
X135120858Y-104902271D01*
X135001096Y-105267283D01*
X134859079Y-105621729D01*
X134695583Y-105964749D01*
X134511384Y-106295488D01*
X134307259Y-106613087D01*
X134083984Y-106916689D01*
X133842335Y-107205436D01*
X133583088Y-107478472D01*
X133307020Y-107734937D01*
X133014906Y-107973975D01*
X132707524Y-108194729D01*
X132385649Y-108396341D01*
X132050057Y-108577952D01*
X131701526Y-108738707D01*
X131340830Y-108877746D01*
X131252508Y-108907800D01*
X130902296Y-109012755D01*
X130552062Y-109094956D01*
X130198819Y-109154820D01*
X129839582Y-109192764D01*
X129471365Y-109209206D01*
X129121200Y-109205669D01*
X128743204Y-109179878D01*
X128367345Y-109129213D01*
X127995064Y-109054193D01*
X127627802Y-108955333D01*
X127267003Y-108833151D01*
X126914107Y-108688164D01*
X126570556Y-108520890D01*
X126237792Y-108331844D01*
X125917258Y-108121545D01*
X125742645Y-107993933D01*
X125440429Y-107748726D01*
X125156219Y-107486077D01*
X124890616Y-107206983D01*
X124644221Y-106912443D01*
X124417634Y-106603454D01*
X124211456Y-106281016D01*
X124026288Y-105946126D01*
X123862731Y-105599782D01*
X123721385Y-105242982D01*
X123602852Y-104876724D01*
X123507732Y-104502007D01*
X123445852Y-104178300D01*
X123402564Y-103851268D01*
X123377076Y-103514937D01*
X123372970Y-103330897D01*
X124787620Y-103330897D01*
X124807756Y-103666131D01*
X124852224Y-103997944D01*
X124873946Y-104114800D01*
X124892955Y-104204140D01*
X124914910Y-104297717D01*
X124938819Y-104392163D01*
X124963690Y-104484112D01*
X124988531Y-104570197D01*
X125012349Y-104647051D01*
X125034154Y-104711307D01*
X125052953Y-104759599D01*
X125067753Y-104788559D01*
X125074458Y-104795319D01*
X125095823Y-104794907D01*
X125139487Y-104786571D01*
X125203776Y-104770780D01*
X125287015Y-104747999D01*
X125387530Y-104718699D01*
X125503646Y-104683345D01*
X125633688Y-104642406D01*
X125711151Y-104617481D01*
X125825049Y-104581150D01*
X125915660Y-104553551D01*
X125983495Y-104534543D01*
X126029068Y-104523985D01*
X126052890Y-104521738D01*
X126056192Y-104522894D01*
X126066065Y-104537551D01*
X126085200Y-104571501D01*
X126111725Y-104621211D01*
X126143763Y-104683145D01*
X126179441Y-104753769D01*
X126192037Y-104779071D01*
X126234314Y-104862373D01*
X126279407Y-104947898D01*
X126323900Y-105029391D01*
X126364376Y-105100597D01*
X126397419Y-105155259D01*
X126398018Y-105156200D01*
X126460792Y-105254880D01*
X126510977Y-105334725D01*
X126549828Y-105398194D01*
X126578603Y-105447746D01*
X126598557Y-105485839D01*
X126610947Y-105514934D01*
X126617029Y-105537488D01*
X126618060Y-105555962D01*
X126615295Y-105572814D01*
X126613753Y-105578475D01*
X126602274Y-105594163D01*
X126574107Y-105623922D01*
X126531840Y-105665281D01*
X126478058Y-105715766D01*
X126415349Y-105772906D01*
X126346299Y-105834229D01*
X126344679Y-105835650D01*
X126254907Y-105915382D01*
X126172468Y-105990623D01*
X126099229Y-106059531D01*
X126037054Y-106120264D01*
X125987809Y-106170980D01*
X125953360Y-106209839D01*
X125935573Y-106234998D01*
X125933500Y-106241524D01*
X125942163Y-106256660D01*
X125966084Y-106286080D01*
X126002156Y-106326517D01*
X126047273Y-106374706D01*
X126098330Y-106427382D01*
X126152221Y-106481280D01*
X126205839Y-106533133D01*
X126249159Y-106573414D01*
X126514273Y-106798896D01*
X126787342Y-107000509D01*
X127069270Y-107178788D01*
X127360960Y-107334266D01*
X127663315Y-107467477D01*
X127921050Y-107560868D01*
X128016404Y-107591177D01*
X128115433Y-107620783D01*
X128213833Y-107648561D01*
X128307299Y-107673384D01*
X128391524Y-107694126D01*
X128462204Y-107709662D01*
X128515035Y-107718866D01*
X128532016Y-107720654D01*
X128540984Y-107709597D01*
X128553963Y-107679022D01*
X128568962Y-107634091D01*
X128579353Y-107597775D01*
X128591285Y-107550464D01*
X128607127Y-107483342D01*
X128625736Y-107401491D01*
X128645969Y-107309990D01*
X128666684Y-107213922D01*
X128681279Y-107144664D01*
X128704594Y-107035014D01*
X128724040Y-106948583D01*
X128740091Y-106883562D01*
X128753220Y-106838145D01*
X128763900Y-106810522D01*
X128771690Y-106799469D01*
X128786755Y-106791570D01*
X128809754Y-106785056D01*
X128842756Y-106779839D01*
X128887834Y-106775830D01*
X128947058Y-106772941D01*
X129022500Y-106771084D01*
X129116230Y-106770172D01*
X129230320Y-106770116D01*
X129366840Y-106770828D01*
X129432934Y-106771348D01*
X129558524Y-106772523D01*
X129661192Y-106773787D01*
X129743415Y-106775259D01*
X129807672Y-106777061D01*
X129856440Y-106779312D01*
X129892196Y-106782133D01*
X129917420Y-106785643D01*
X129934587Y-106789963D01*
X129946177Y-106795213D01*
X129947950Y-106796323D01*
X129958448Y-106804848D01*
X129967740Y-106817555D01*
X129976742Y-106837586D01*
X129986370Y-106868082D01*
X129997540Y-106912182D01*
X130011167Y-106973028D01*
X130028167Y-107053760D01*
X130040525Y-107113823D01*
X130072389Y-107267226D01*
X130100256Y-107396556D01*
X130124372Y-107502779D01*
X130144985Y-107586867D01*
X130162342Y-107649787D01*
X130176691Y-107692509D01*
X130188280Y-107716000D01*
X130195681Y-107721600D01*
X130210652Y-107718999D01*
X130245231Y-107711923D01*
X130294244Y-107701455D01*
X130351570Y-107688892D01*
X130681977Y-107602787D01*
X131003306Y-107493168D01*
X131314512Y-107360620D01*
X131614552Y-107205724D01*
X131902383Y-107029065D01*
X132176962Y-106831223D01*
X132437245Y-106612783D01*
X132655647Y-106401913D01*
X132805544Y-106247402D01*
X132767715Y-106200276D01*
X132729444Y-106156620D01*
X132674267Y-106100074D01*
X132601528Y-106030016D01*
X132510573Y-105945824D01*
X132400747Y-105846875D01*
X132324775Y-105779506D01*
X132243388Y-105706565D01*
X132180417Y-105647645D01*
X132136290Y-105603171D01*
X132111436Y-105573571D01*
X132105700Y-105561296D01*
X132108458Y-105538348D01*
X132117787Y-105509790D01*
X132135263Y-105472587D01*
X132162467Y-105423701D01*
X132200976Y-105360098D01*
X132252369Y-105278740D01*
X132253638Y-105276757D01*
X132323508Y-105166299D01*
X132382110Y-105070435D01*
X132432884Y-104983052D01*
X132479270Y-104898036D01*
X132524711Y-104809275D01*
X132572646Y-104710655D01*
X132574618Y-104706516D01*
X132604937Y-104643986D01*
X132632295Y-104589714D01*
X132654536Y-104547813D01*
X132669504Y-104522395D01*
X132674066Y-104516786D01*
X132689000Y-104518535D01*
X132724915Y-104527379D01*
X132778686Y-104542409D01*
X132847188Y-104562714D01*
X132927296Y-104587386D01*
X133015887Y-104615515D01*
X133040872Y-104623589D01*
X133175818Y-104666898D01*
X133297685Y-104705071D01*
X133404675Y-104737584D01*
X133494988Y-104763916D01*
X133566826Y-104783541D01*
X133618389Y-104795936D01*
X133647879Y-104800578D01*
X133649090Y-104800600D01*
X133660927Y-104788759D01*
X133677459Y-104755383D01*
X133697689Y-104703690D01*
X133720616Y-104636897D01*
X133745242Y-104558222D01*
X133770568Y-104470884D01*
X133795595Y-104378100D01*
X133819325Y-104283088D01*
X133840758Y-104189066D01*
X133844803Y-104170084D01*
X133902583Y-103842409D01*
X133936584Y-103519766D01*
X133946921Y-103198573D01*
X133933710Y-102875245D01*
X133897066Y-102546199D01*
X133897065Y-102546190D01*
X133881737Y-102450134D01*
X133863224Y-102349648D01*
X133842373Y-102248061D01*
X133820030Y-102148700D01*
X133797041Y-102054892D01*
X133774254Y-101969965D01*
X133752514Y-101897245D01*
X133732669Y-101840061D01*
X133715565Y-101801738D01*
X133703764Y-101786449D01*
X133680243Y-101782678D01*
X133635274Y-101787712D01*
X133568499Y-101801644D01*
X133479560Y-101824568D01*
X133368101Y-101856575D01*
X133233763Y-101897757D01*
X133076189Y-101948208D01*
X133068146Y-101950828D01*
X132978928Y-101979490D01*
X132895558Y-102005475D01*
X132821692Y-102027706D01*
X132760983Y-102045109D01*
X132717084Y-102056606D01*
X132693739Y-102061115D01*
X132668462Y-102061288D01*
X132652805Y-102054246D01*
X132641219Y-102034359D01*
X132628155Y-101995997D01*
X132627492Y-101993900D01*
X132603343Y-101929584D01*
X132566892Y-101848510D01*
X132520399Y-101754734D01*
X132466124Y-101652308D01*
X132406328Y-101545288D01*
X132343270Y-101437726D01*
X132279209Y-101333678D01*
X132216407Y-101237197D01*
X132162409Y-101159604D01*
X132068681Y-101030158D01*
X132274515Y-100850048D01*
X132352727Y-100781057D01*
X132441814Y-100701570D01*
X132534126Y-100618468D01*
X132622015Y-100538631D01*
X132686568Y-100479366D01*
X132892786Y-100288796D01*
X132817642Y-100204723D01*
X132761106Y-100143773D01*
X132691047Y-100071767D01*
X132613154Y-99994264D01*
X132533118Y-99916824D01*
X132456627Y-99845004D01*
X132389370Y-99784365D01*
X132372400Y-99769659D01*
X132241204Y-99662510D01*
X132094170Y-99551418D01*
X131938644Y-99441498D01*
X131781972Y-99337862D01*
X131631498Y-99245624D01*
X131565482Y-99207928D01*
X131466716Y-99156124D01*
X131355164Y-99102914D01*
X131234273Y-99049535D01*
X131107494Y-98997224D01*
X130978275Y-98947219D01*
X130850065Y-98900756D01*
X130726313Y-98859073D01*
X130610469Y-98823407D01*
X130505982Y-98794996D01*
X130416301Y-98775076D01*
X130344874Y-98764884D01*
X130327646Y-98763913D01*
X130295890Y-98763784D01*
X130268650Y-98766741D01*
X130245058Y-98774792D01*
X130224245Y-98789944D01*
X130205344Y-98814205D01*
X130187487Y-98849582D01*
X130169806Y-98898083D01*
X130151433Y-98961714D01*
X130131501Y-99042484D01*
X130109140Y-99142400D01*
X130083484Y-99263468D01*
X130057632Y-99388416D01*
X129978450Y-99773050D01*
X129597450Y-99772192D01*
X129427134Y-99772884D01*
X129281086Y-99775804D01*
X129158270Y-99780987D01*
X129057648Y-99788465D01*
X129038650Y-99790394D01*
X128955504Y-99799118D01*
X128893753Y-99804927D01*
X128849562Y-99807867D01*
X128819098Y-99807983D01*
X128798529Y-99805320D01*
X128784021Y-99799923D01*
X128773991Y-99793512D01*
X128765204Y-99780438D01*
X128754464Y-99751636D01*
X128741287Y-99705249D01*
X128725188Y-99639423D01*
X128705684Y-99552303D01*
X128682291Y-99442032D01*
X128682095Y-99441087D01*
X128653820Y-99305992D01*
X128629793Y-99193436D01*
X128609312Y-99101045D01*
X128591677Y-99026444D01*
X128576188Y-98967259D01*
X128562144Y-98921116D01*
X128548844Y-98885640D01*
X128535589Y-98858457D01*
X128521677Y-98837192D01*
X128506409Y-98819472D01*
X128495577Y-98808872D01*
X128467403Y-98787978D01*
X128434440Y-98776013D01*
X128392516Y-98772926D01*
X128337460Y-98778666D01*
X128265100Y-98793181D01*
X128214231Y-98805433D01*
X127973856Y-98874239D01*
X127726362Y-98961300D01*
X127478637Y-99063684D01*
X127237572Y-99178457D01*
X127010054Y-99302686D01*
X126923098Y-99355167D01*
X126777128Y-99451811D01*
X126622827Y-99564532D01*
X126466198Y-99688438D01*
X126313245Y-99818636D01*
X126169971Y-99950237D01*
X126066515Y-100053075D01*
X126004018Y-100118755D01*
X125957968Y-100169886D01*
X125926359Y-100209375D01*
X125907188Y-100240129D01*
X125898450Y-100265055D01*
X125898140Y-100287059D01*
X125899732Y-100294934D01*
X125914937Y-100323966D01*
X125949295Y-100367845D01*
X126001981Y-100425736D01*
X126072173Y-100496801D01*
X126159045Y-100580202D01*
X126261773Y-100675101D01*
X126366327Y-100768961D01*
X126435417Y-100830918D01*
X126497819Y-100888134D01*
X126551098Y-100938277D01*
X126592820Y-100979014D01*
X126620553Y-101008011D01*
X126631862Y-101022935D01*
X126632000Y-101023671D01*
X126625171Y-101051967D01*
X126604095Y-101094731D01*
X126567885Y-101153551D01*
X126522730Y-101219960D01*
X126466731Y-101303601D01*
X126406940Y-101399400D01*
X126345833Y-101502816D01*
X126285886Y-101609311D01*
X126229576Y-101714344D01*
X126179379Y-101813377D01*
X126137772Y-101901871D01*
X126107230Y-101975286D01*
X126100524Y-101993900D01*
X126086364Y-102032986D01*
X126074430Y-102053442D01*
X126058872Y-102060718D01*
X126033838Y-102060264D01*
X126029658Y-102059928D01*
X126005307Y-102055034D01*
X125960552Y-102043185D01*
X125899080Y-102025471D01*
X125824578Y-102002980D01*
X125740734Y-101976805D01*
X125652032Y-101948294D01*
X125524291Y-101907350D01*
X125406080Y-101870835D01*
X125299791Y-101839414D01*
X125207815Y-101813756D01*
X125132546Y-101794527D01*
X125076374Y-101782393D01*
X125041693Y-101778020D01*
X125041010Y-101778016D01*
X125029711Y-101780115D01*
X125019518Y-101788588D01*
X125009104Y-101806674D01*
X124997147Y-101837613D01*
X124982321Y-101884642D01*
X124963303Y-101951002D01*
X124948689Y-102003766D01*
X124872349Y-102328678D01*
X124820001Y-102659770D01*
X124791730Y-102994643D01*
X124787620Y-103330897D01*
X123372970Y-103330897D01*
X123369510Y-103175831D01*
X123379993Y-102840475D01*
X123408647Y-102515396D01*
X123413425Y-102476500D01*
X123474346Y-102094071D01*
X123558611Y-101720021D01*
X123665454Y-101355154D01*
X123794110Y-101000270D01*
X123943816Y-100656172D01*
X124113806Y-100323662D01*
X124303315Y-100003543D01*
X124511580Y-99696616D01*
X124737835Y-99403685D01*
X124981315Y-99125551D01*
X125241256Y-98863016D01*
X125516894Y-98616882D01*
X125807463Y-98387953D01*
X126112199Y-98177029D01*
X126430337Y-97984914D01*
X126761113Y-97812410D01*
X127103761Y-97660318D01*
X127457518Y-97529441D01*
X127821618Y-97420581D01*
X128195296Y-97334541D01*
X128340150Y-97307910D01*
X128509574Y-97280589D01*
X128664608Y-97259522D01*
X128814048Y-97243860D01*
X128966691Y-97232754D01*
X129131333Y-97225356D01*
X129222800Y-97222735D01*
X129614972Y-97225275D01*
G36*
X171054511Y-97259614D02*
G01*
X171438411Y-97296885D01*
X171820605Y-97358957D01*
X172155150Y-97434335D01*
X172436774Y-97513543D01*
X172709549Y-97605596D01*
X172980205Y-97713038D01*
X173255474Y-97838410D01*
X173355300Y-97887572D01*
X173701272Y-98074916D01*
X174030707Y-98281518D01*
X174343462Y-98507250D01*
X174639393Y-98751985D01*
X174918353Y-99015594D01*
X175180201Y-99297952D01*
X175424791Y-99598930D01*
X175647119Y-99911100D01*
X175747135Y-100064290D01*
X175834365Y-100205238D01*
X175912761Y-100340805D01*
X175986273Y-100477855D01*
X176058855Y-100623249D01*
X176067577Y-100641350D01*
X176219772Y-100985083D01*
X176349600Y-101336398D01*
X176457589Y-101697134D01*
X176544268Y-102069126D01*
X176610164Y-102454211D01*
X176628217Y-102590800D01*
X176636264Y-102674899D01*
X176642699Y-102779635D01*
X176647525Y-102900428D01*
X176650741Y-103032702D01*
X176652348Y-103171879D01*
X176652350Y-103313382D01*
X176650745Y-103452634D01*
X176647536Y-103585056D01*
X176642723Y-103706072D01*
X176636308Y-103811105D01*
X176628292Y-103895576D01*
X176627884Y-103898900D01*
X176569337Y-104285764D01*
X176491491Y-104657421D01*
X176393645Y-105015963D01*
X176275098Y-105363483D01*
X176135148Y-105702074D01*
X175973094Y-106033827D01*
X175821264Y-106305550D01*
X175624053Y-106615407D01*
X175404670Y-106915883D01*
X175165392Y-107204490D01*
X174908492Y-107478742D01*
X174636246Y-107736155D01*
X174350929Y-107974241D01*
X174170130Y-108109862D01*
X173849435Y-108325024D01*
X173516482Y-108518611D01*
X173172624Y-108690219D01*
X172819211Y-108839443D01*
X172457597Y-108965876D01*
X172089133Y-109069115D01*
X171715171Y-109148754D01*
X171337063Y-109204388D01*
X170956161Y-109235612D01*
X170573817Y-109242020D01*
X170408900Y-109237027D01*
X170022673Y-109207451D01*
X169642969Y-109153870D01*
X169270642Y-109076984D01*
X168906543Y-108977492D01*
X168551526Y-108856092D01*
X168206443Y-108713485D01*
X167872149Y-108550369D01*
X167549495Y-108367443D01*
X167239335Y-108165406D01*
X166942521Y-107944958D01*
X166659907Y-107706798D01*
X166392346Y-107451624D01*
X166140691Y-107180137D01*
X165905794Y-106893034D01*
X165688509Y-106591015D01*
X165489688Y-106274780D01*
X165310185Y-105945027D01*
X165150853Y-105602456D01*
X165012544Y-105247766D01*
X164896112Y-104881655D01*
X164841198Y-104673600D01*
X164776863Y-104384778D01*
X164728415Y-104105804D01*
X164695076Y-103829488D01*
X164676063Y-103548643D01*
X164670598Y-103256081D01*
X164670741Y-103244850D01*
X166086826Y-103244850D01*
X166092767Y-103504701D01*
X166111312Y-103750478D01*
X166143539Y-103989139D01*
X166190530Y-104227641D01*
X166253363Y-104472940D01*
X166303341Y-104639735D01*
X166362691Y-104828120D01*
X166420084Y-104819513D01*
X166460936Y-104811030D01*
X166523724Y-104794746D01*
X166606416Y-104771267D01*
X166706981Y-104741201D01*
X166823387Y-104705156D01*
X166953601Y-104663738D01*
X167094200Y-104618013D01*
X167169336Y-104593823D01*
X167236408Y-104573159D01*
X167291647Y-104557108D01*
X167331284Y-104546755D01*
X167351551Y-104543184D01*
X167353130Y-104543467D01*
X167362315Y-104556812D01*
X167379987Y-104588945D01*
X167403932Y-104635620D01*
X167431937Y-104692587D01*
X167444608Y-104719045D01*
X167497264Y-104827184D01*
X167549237Y-104927786D01*
X167603957Y-105026948D01*
X167664853Y-105130771D01*
X167735357Y-105245353D01*
X167782812Y-105320416D01*
X167832364Y-105398957D01*
X167869158Y-105459631D01*
X167894634Y-105505633D01*
X167910232Y-105540156D01*
X167917389Y-105566397D01*
X167917546Y-105587549D01*
X167912142Y-105606808D01*
X167911999Y-105607166D01*
X167899586Y-105623208D01*
X167870744Y-105653230D01*
X167828239Y-105694582D01*
X167774839Y-105744613D01*
X167713311Y-105800672D01*
X167665700Y-105843130D01*
X167569908Y-105928754D01*
X167482888Y-106008429D01*
X167406268Y-106080550D01*
X167341679Y-106143510D01*
X167290751Y-106195702D01*
X167255115Y-106235520D01*
X167236402Y-106261356D01*
X167233900Y-106268650D01*
X167242755Y-106285070D01*
X167267435Y-106315817D01*
X167305109Y-106357979D01*
X167352945Y-106408645D01*
X167408113Y-106464904D01*
X167467782Y-106523844D01*
X167529122Y-106582553D01*
X167589301Y-106638121D01*
X167618476Y-106664174D01*
X167832324Y-106843236D01*
X168045860Y-107002305D01*
X168265751Y-107145810D01*
X168498661Y-107278181D01*
X168681700Y-107370792D01*
X168872137Y-107457937D01*
X169061461Y-107534289D01*
X169255744Y-107601906D01*
X169461061Y-107662842D01*
X169683485Y-107719154D01*
X169767550Y-107738386D01*
X169803254Y-107745134D01*
X169827004Y-107743419D01*
X169843407Y-107729229D01*
X169857069Y-107698554D01*
X169872597Y-107647381D01*
X169872778Y-107646749D01*
X169883100Y-107607355D01*
X169897514Y-107547527D01*
X169915010Y-107471712D01*
X169934577Y-107384357D01*
X169955204Y-107289911D01*
X169975331Y-107195436D01*
X169994877Y-107104087D01*
X170013366Y-107020705D01*
X170030017Y-106948577D01*
X170044049Y-106890991D01*
X170054682Y-106851235D01*
X170061135Y-106832596D01*
X170061684Y-106831835D01*
X170078619Y-106822191D01*
X170109539Y-106814179D01*
X170156100Y-106807697D01*
X170219957Y-106802643D01*
X170302766Y-106798914D01*
X170406183Y-106796407D01*
X170531863Y-106795021D01*
X170662900Y-106794647D01*
X170806653Y-106795075D01*
X170926915Y-106796450D01*
X171025580Y-106798908D01*
X171104544Y-106802586D01*
X171165701Y-106807618D01*
X171210946Y-106814142D01*
X171242175Y-106822293D01*
X171261283Y-106832208D01*
X171266997Y-106838023D01*
X171273504Y-106855561D01*
X171283967Y-106894053D01*
X171297437Y-106949531D01*
X171312961Y-107018027D01*
X171329588Y-107095575D01*
X171334805Y-107120769D01*
X171367226Y-107276258D01*
X171396147Y-107409922D01*
X171421433Y-107521193D01*
X171442948Y-107609505D01*
X171460554Y-107674291D01*
X171474116Y-107714984D01*
X171480855Y-107728464D01*
X171489014Y-107737460D01*
X171500394Y-107742267D01*
X171519443Y-107742568D01*
X171550611Y-107738046D01*
X171598347Y-107728383D01*
X171654355Y-107716094D01*
X171975145Y-107632604D01*
X172289730Y-107526340D01*
X172594327Y-107398718D01*
X172863579Y-107263062D01*
X172965154Y-107204556D01*
X173079249Y-107134050D01*
X173199095Y-107056071D01*
X173317921Y-106975141D01*
X173428958Y-106895786D01*
X173525434Y-106822531D01*
X173539447Y-106811373D01*
X173588121Y-106770777D01*
X173646741Y-106719461D01*
X173712043Y-106660525D01*
X173780762Y-106597071D01*
X173849634Y-106532200D01*
X173915396Y-106469012D01*
X173974783Y-106410609D01*
X174024532Y-106360091D01*
X174061378Y-106320559D01*
X174080529Y-106297332D01*
X174104905Y-106263099D01*
X173966607Y-106125574D01*
X173911541Y-106072158D01*
X173843147Y-106007875D01*
X173767473Y-105938290D01*
X173690561Y-105868965D01*
X173623966Y-105810250D01*
X173562770Y-105756032D01*
X173508123Y-105705772D01*
X173463002Y-105662357D01*
X173430385Y-105628678D01*
X173413248Y-105607624D01*
X173411541Y-105604099D01*
X173408561Y-105579268D01*
X173414103Y-105549487D01*
X173429724Y-105511100D01*
X173456982Y-105460448D01*
X173497435Y-105393876D01*
X173508732Y-105375987D01*
X173581205Y-105260939D01*
X173642098Y-105162067D01*
X173694158Y-105074571D01*
X173740129Y-104993649D01*
X173782757Y-104914502D01*
X173824786Y-104832329D01*
X173856995Y-104767003D01*
X173890632Y-104698681D01*
X173920984Y-104638454D01*
X173946152Y-104589978D01*
X173964233Y-104556911D01*
X173973329Y-104542908D01*
X173973513Y-104542775D01*
X173988020Y-104544761D01*
X174023182Y-104553799D01*
X174075565Y-104568877D01*
X174141736Y-104588986D01*
X174218264Y-104613115D01*
X174276075Y-104631830D01*
X174431280Y-104682191D01*
X174563683Y-104724258D01*
X174674377Y-104758357D01*
X174764453Y-104784812D01*
X174835003Y-104803948D01*
X174887119Y-104816090D01*
X174908758Y-104819970D01*
X174966025Y-104828557D01*
X175018090Y-104668522D01*
X175112087Y-104338989D01*
X175181142Y-104005378D01*
X175225172Y-103668675D01*
X175244093Y-103329861D01*
X175237821Y-102989921D01*
X175206273Y-102649839D01*
X175196370Y-102578100D01*
X175182166Y-102489704D01*
X175164617Y-102394601D01*
X175144601Y-102296363D01*
X175122997Y-102198562D01*
X175100682Y-102104770D01*
X175078535Y-102018558D01*
X175057434Y-101943499D01*
X175038257Y-101883164D01*
X175021883Y-101841126D01*
X175010505Y-101822120D01*
X174995215Y-101814467D01*
X174968909Y-101812449D01*
X174929932Y-101816471D01*
X174876630Y-101826937D01*
X174807345Y-101844252D01*
X174720423Y-101868820D01*
X174614209Y-101901048D01*
X174487046Y-101941339D01*
X174377650Y-101976856D01*
X174288140Y-102005642D01*
X174204173Y-102031698D01*
X174129465Y-102053945D01*
X174067733Y-102071303D01*
X174022696Y-102082693D01*
X173998278Y-102087027D01*
X173968579Y-102086970D01*
X173951660Y-102079383D01*
X173940412Y-102058123D01*
X173931321Y-102029176D01*
X173910753Y-101972881D01*
X173878035Y-101899450D01*
X173835325Y-101812730D01*
X173784781Y-101716571D01*
X173728562Y-101614822D01*
X173668827Y-101511331D01*
X173607735Y-101409948D01*
X173547443Y-101314521D01*
X173490110Y-101228900D01*
X173454643Y-101179227D01*
X173367049Y-101060450D01*
X173409599Y-101022350D01*
X173430518Y-101003690D01*
X173467389Y-100970877D01*
X173517164Y-100926620D01*
X173576799Y-100873624D01*
X173643246Y-100814599D01*
X173705349Y-100759453D01*
X173780559Y-100692465D01*
X173856388Y-100624536D01*
X173928638Y-100559456D01*
X173993112Y-100501013D01*
X174045612Y-100452997D01*
X174072465Y-100428108D01*
X174186381Y-100321560D01*
X174163544Y-100286706D01*
X174148013Y-100267622D01*
X174117405Y-100233831D01*
X174074704Y-100188486D01*
X174022895Y-100134740D01*
X173964962Y-100075745D01*
X173941678Y-100052323D01*
X173722398Y-99846001D01*
X173489320Y-99652094D01*
X173246957Y-99473958D01*
X172999818Y-99314951D01*
X172801225Y-99203524D01*
X172692592Y-99149398D01*
X172573961Y-99095148D01*
X172448687Y-99041940D01*
X172320126Y-98990941D01*
X172191635Y-98943319D01*
X172066570Y-98900239D01*
X171948288Y-98862869D01*
X171840144Y-98832375D01*
X171745495Y-98809925D01*
X171667696Y-98796685D01*
X171621798Y-98793500D01*
X171590993Y-98794167D01*
X171564627Y-98797523D01*
X171541834Y-98805600D01*
X171521752Y-98820429D01*
X171503516Y-98844040D01*
X171486262Y-98878467D01*
X171469124Y-98925739D01*
X171451240Y-98987889D01*
X171431745Y-99066948D01*
X171409774Y-99164947D01*
X171384463Y-99283917D01*
X171357038Y-99415800D01*
X171276847Y-99803150D01*
X170928598Y-99799447D01*
X170828498Y-99798934D01*
X170729066Y-99799430D01*
X170635434Y-99800833D01*
X170552729Y-99803044D01*
X170486081Y-99805964D01*
X170447000Y-99808818D01*
X170374207Y-99815624D01*
X170294566Y-99822549D01*
X170221508Y-99828442D01*
X170197658Y-99830214D01*
X170142814Y-99833824D01*
X170107629Y-99834488D01*
X170086446Y-99831280D01*
X170073604Y-99823277D01*
X170063444Y-99809554D01*
X170062553Y-99808142D01*
X170055250Y-99788364D01*
X170043783Y-99747023D01*
X170028949Y-99687465D01*
X170011545Y-99613038D01*
X169992367Y-99527090D01*
X169972213Y-99432968D01*
X169964798Y-99397372D01*
X169936962Y-99264526D01*
X169912835Y-99154351D01*
X169891580Y-99064530D01*
X169872361Y-98992744D01*
X169854340Y-98936674D01*
X169836681Y-98894003D01*
X169818548Y-98862411D01*
X169799104Y-98839581D01*
X169777513Y-98823194D01*
X169753213Y-98811047D01*
X169724049Y-98802715D01*
X169687848Y-98800430D01*
X169641178Y-98804677D01*
X169580603Y-98815941D01*
X169502689Y-98834707D01*
X169411950Y-98859236D01*
X169196380Y-98926555D01*
X168970854Y-99010341D01*
X168742098Y-99107905D01*
X168516835Y-99216558D01*
X168511206Y-99219445D01*
X168382414Y-99287955D01*
X168263446Y-99356686D01*
X168148980Y-99429189D01*
X168033695Y-99509010D01*
X167912266Y-99599700D01*
X167779374Y-99704808D01*
X167760950Y-99719739D01*
X167703277Y-99768176D01*
X167638409Y-99825320D01*
X167569257Y-99888338D01*
X167498731Y-99954397D01*
X167429741Y-100020665D01*
X167365200Y-100084309D01*
X167308017Y-100142498D01*
X167261104Y-100192399D01*
X167227372Y-100231179D01*
X167209730Y-100256006D01*
X167209634Y-100256196D01*
X167199063Y-100296802D01*
X167201004Y-100323806D01*
X167215694Y-100351575D01*
X167248819Y-100393923D01*
X167299041Y-100449488D01*
X167365020Y-100516907D01*
X167445417Y-100594818D01*
X167538894Y-100681858D01*
X167644110Y-100776665D01*
X167659350Y-100790169D01*
X167739557Y-100861146D01*
X167802639Y-100917436D01*
X167850442Y-100961239D01*
X167884813Y-100994753D01*
X167907598Y-101020178D01*
X167920645Y-101039715D01*
X167925801Y-101055564D01*
X167924913Y-101069923D01*
X167919827Y-101084993D01*
X167915532Y-101095286D01*
X167899748Y-101125984D01*
X167873579Y-101169696D01*
X167841609Y-101218917D01*
X167827054Y-101240144D01*
X167772846Y-101320997D01*
X167715609Y-101412044D01*
X167657386Y-101509515D01*
X167600221Y-101609640D01*
X167546158Y-101708647D01*
X167497240Y-101802766D01*
X167455509Y-101888227D01*
X167423011Y-101961259D01*
X167401787Y-102018091D01*
X167397640Y-102032517D01*
X167380806Y-102098199D01*
X167329578Y-102091160D01*
X167304101Y-102085407D01*
X167258242Y-102072755D01*
X167195717Y-102054324D01*
X167120246Y-102031231D01*
X167035547Y-102004597D01*
X166945337Y-101975541D01*
X166943683Y-101975002D01*
X166799419Y-101928749D01*
X166672129Y-101889559D01*
X166562960Y-101857739D01*
X166473058Y-101833599D01*
X166403568Y-101817446D01*
X166355638Y-101809590D01*
X166331162Y-101810079D01*
X166316992Y-101825939D01*
X166299315Y-101863784D01*
X166278961Y-101920573D01*
X166256761Y-101993263D01*
X166233542Y-102078813D01*
X166210136Y-102174180D01*
X166187370Y-102276323D01*
X166166076Y-102382200D01*
X166148652Y-102479370D01*
X166125627Y-102626787D01*
X166108640Y-102762226D01*
X166097006Y-102894171D01*
X166090040Y-103031103D01*
X166087057Y-103181502D01*
X166086826Y-103244850D01*
X164670741Y-103244850D01*
X164672369Y-103117850D01*
X164680539Y-102885460D01*
X164695101Y-102670415D01*
X164717038Y-102465245D01*
X164747334Y-102262478D01*
X164786971Y-102054643D01*
X164836931Y-101834267D01*
X164846172Y-101796437D01*
X164950713Y-101424733D01*
X165078357Y-101062695D01*
X165228362Y-100711234D01*
X165399989Y-100371258D01*
X165592496Y-100043679D01*
X165805144Y-99729407D01*
X166037191Y-99429352D01*
X166287897Y-99144425D01*
X166556520Y-98875535D01*
X166842322Y-98623593D01*
X167144560Y-98389509D01*
X167462494Y-98174193D01*
X167795384Y-97978557D01*
X168065322Y-97840024D01*
X168419846Y-97683161D01*
X168782223Y-97550151D01*
X169151260Y-97441110D01*
X169525761Y-97356159D01*
X169904532Y-97295415D01*
X170286377Y-97258997D01*
X170670102Y-97247024D01*
X171054511Y-97259614D01*
X171054511Y-97259614D01*
G37*
X171054511Y-97259614D02*
X171438411Y-97296885D01*
X171820605Y-97358957D01*
X172155150Y-97434335D01*
X172436774Y-97513543D01*
X172709549Y-97605596D01*
X172980205Y-97713038D01*
X173255474Y-97838410D01*
X173355300Y-97887572D01*
X173701272Y-98074916D01*
X174030707Y-98281518D01*
X174343462Y-98507250D01*
X174639393Y-98751985D01*
X174918353Y-99015594D01*
X175180201Y-99297952D01*
X175424791Y-99598930D01*
X175647119Y-99911100D01*
X175747135Y-100064290D01*
X175834365Y-100205238D01*
X175912761Y-100340805D01*
X175986273Y-100477855D01*
X176058855Y-100623249D01*
X176067577Y-100641350D01*
X176219772Y-100985083D01*
X176349600Y-101336398D01*
X176457589Y-101697134D01*
X176544268Y-102069126D01*
X176610164Y-102454211D01*
X176628217Y-102590800D01*
X176636264Y-102674899D01*
X176642699Y-102779635D01*
X176647525Y-102900428D01*
X176650741Y-103032702D01*
X176652348Y-103171879D01*
X176652350Y-103313382D01*
X176650745Y-103452634D01*
X176647536Y-103585056D01*
X176642723Y-103706072D01*
X176636308Y-103811105D01*
X176628292Y-103895576D01*
X176627884Y-103898900D01*
X176569337Y-104285764D01*
X176491491Y-104657421D01*
X176393645Y-105015963D01*
X176275098Y-105363483D01*
X176135148Y-105702074D01*
X175973094Y-106033827D01*
X175821264Y-106305550D01*
X175624053Y-106615407D01*
X175404670Y-106915883D01*
X175165392Y-107204490D01*
X174908492Y-107478742D01*
X174636246Y-107736155D01*
X174350929Y-107974241D01*
X174170130Y-108109862D01*
X173849435Y-108325024D01*
X173516482Y-108518611D01*
X173172624Y-108690219D01*
X172819211Y-108839443D01*
X172457597Y-108965876D01*
X172089133Y-109069115D01*
X171715171Y-109148754D01*
X171337063Y-109204388D01*
X170956161Y-109235612D01*
X170573817Y-109242020D01*
X170408900Y-109237027D01*
X170022673Y-109207451D01*
X169642969Y-109153870D01*
X169270642Y-109076984D01*
X168906543Y-108977492D01*
X168551526Y-108856092D01*
X168206443Y-108713485D01*
X167872149Y-108550369D01*
X167549495Y-108367443D01*
X167239335Y-108165406D01*
X166942521Y-107944958D01*
X166659907Y-107706798D01*
X166392346Y-107451624D01*
X166140691Y-107180137D01*
X165905794Y-106893034D01*
X165688509Y-106591015D01*
X165489688Y-106274780D01*
X165310185Y-105945027D01*
X165150853Y-105602456D01*
X165012544Y-105247766D01*
X164896112Y-104881655D01*
X164841198Y-104673600D01*
X164776863Y-104384778D01*
X164728415Y-104105804D01*
X164695076Y-103829488D01*
X164676063Y-103548643D01*
X164670598Y-103256081D01*
X164670741Y-103244850D01*
X166086826Y-103244850D01*
X166092767Y-103504701D01*
X166111312Y-103750478D01*
X166143539Y-103989139D01*
X166190530Y-104227641D01*
X166253363Y-104472940D01*
X166303341Y-104639735D01*
X166362691Y-104828120D01*
X166420084Y-104819513D01*
X166460936Y-104811030D01*
X166523724Y-104794746D01*
X166606416Y-104771267D01*
X166706981Y-104741201D01*
X166823387Y-104705156D01*
X166953601Y-104663738D01*
X167094200Y-104618013D01*
X167169336Y-104593823D01*
X167236408Y-104573159D01*
X167291647Y-104557108D01*
X167331284Y-104546755D01*
X167351551Y-104543184D01*
X167353130Y-104543467D01*
X167362315Y-104556812D01*
X167379987Y-104588945D01*
X167403932Y-104635620D01*
X167431937Y-104692587D01*
X167444608Y-104719045D01*
X167497264Y-104827184D01*
X167549237Y-104927786D01*
X167603957Y-105026948D01*
X167664853Y-105130771D01*
X167735357Y-105245353D01*
X167782812Y-105320416D01*
X167832364Y-105398957D01*
X167869158Y-105459631D01*
X167894634Y-105505633D01*
X167910232Y-105540156D01*
X167917389Y-105566397D01*
X167917546Y-105587549D01*
X167912142Y-105606808D01*
X167911999Y-105607166D01*
X167899586Y-105623208D01*
X167870744Y-105653230D01*
X167828239Y-105694582D01*
X167774839Y-105744613D01*
X167713311Y-105800672D01*
X167665700Y-105843130D01*
X167569908Y-105928754D01*
X167482888Y-106008429D01*
X167406268Y-106080550D01*
X167341679Y-106143510D01*
X167290751Y-106195702D01*
X167255115Y-106235520D01*
X167236402Y-106261356D01*
X167233900Y-106268650D01*
X167242755Y-106285070D01*
X167267435Y-106315817D01*
X167305109Y-106357979D01*
X167352945Y-106408645D01*
X167408113Y-106464904D01*
X167467782Y-106523844D01*
X167529122Y-106582553D01*
X167589301Y-106638121D01*
X167618476Y-106664174D01*
X167832324Y-106843236D01*
X168045860Y-107002305D01*
X168265751Y-107145810D01*
X168498661Y-107278181D01*
X168681700Y-107370792D01*
X168872137Y-107457937D01*
X169061461Y-107534289D01*
X169255744Y-107601906D01*
X169461061Y-107662842D01*
X169683485Y-107719154D01*
X169767550Y-107738386D01*
X169803254Y-107745134D01*
X169827004Y-107743419D01*
X169843407Y-107729229D01*
X169857069Y-107698554D01*
X169872597Y-107647381D01*
X169872778Y-107646749D01*
X169883100Y-107607355D01*
X169897514Y-107547527D01*
X169915010Y-107471712D01*
X169934577Y-107384357D01*
X169955204Y-107289911D01*
X169975331Y-107195436D01*
X169994877Y-107104087D01*
X170013366Y-107020705D01*
X170030017Y-106948577D01*
X170044049Y-106890991D01*
X170054682Y-106851235D01*
X170061135Y-106832596D01*
X170061684Y-106831835D01*
X170078619Y-106822191D01*
X170109539Y-106814179D01*
X170156100Y-106807697D01*
X170219957Y-106802643D01*
X170302766Y-106798914D01*
X170406183Y-106796407D01*
X170531863Y-106795021D01*
X170662900Y-106794647D01*
X170806653Y-106795075D01*
X170926915Y-106796450D01*
X171025580Y-106798908D01*
X171104544Y-106802586D01*
X171165701Y-106807618D01*
X171210946Y-106814142D01*
X171242175Y-106822293D01*
X171261283Y-106832208D01*
X171266997Y-106838023D01*
X171273504Y-106855561D01*
X171283967Y-106894053D01*
X171297437Y-106949531D01*
X171312961Y-107018027D01*
X171329588Y-107095575D01*
X171334805Y-107120769D01*
X171367226Y-107276258D01*
X171396147Y-107409922D01*
X171421433Y-107521193D01*
X171442948Y-107609505D01*
X171460554Y-107674291D01*
X171474116Y-107714984D01*
X171480855Y-107728464D01*
X171489014Y-107737460D01*
X171500394Y-107742267D01*
X171519443Y-107742568D01*
X171550611Y-107738046D01*
X171598347Y-107728383D01*
X171654355Y-107716094D01*
X171975145Y-107632604D01*
X172289730Y-107526340D01*
X172594327Y-107398718D01*
X172863579Y-107263062D01*
X172965154Y-107204556D01*
X173079249Y-107134050D01*
X173199095Y-107056071D01*
X173317921Y-106975141D01*
X173428958Y-106895786D01*
X173525434Y-106822531D01*
X173539447Y-106811373D01*
X173588121Y-106770777D01*
X173646741Y-106719461D01*
X173712043Y-106660525D01*
X173780762Y-106597071D01*
X173849634Y-106532200D01*
X173915396Y-106469012D01*
X173974783Y-106410609D01*
X174024532Y-106360091D01*
X174061378Y-106320559D01*
X174080529Y-106297332D01*
X174104905Y-106263099D01*
X173966607Y-106125574D01*
X173911541Y-106072158D01*
X173843147Y-106007875D01*
X173767473Y-105938290D01*
X173690561Y-105868965D01*
X173623966Y-105810250D01*
X173562770Y-105756032D01*
X173508123Y-105705772D01*
X173463002Y-105662357D01*
X173430385Y-105628678D01*
X173413248Y-105607624D01*
X173411541Y-105604099D01*
X173408561Y-105579268D01*
X173414103Y-105549487D01*
X173429724Y-105511100D01*
X173456982Y-105460448D01*
X173497435Y-105393876D01*
X173508732Y-105375987D01*
X173581205Y-105260939D01*
X173642098Y-105162067D01*
X173694158Y-105074571D01*
X173740129Y-104993649D01*
X173782757Y-104914502D01*
X173824786Y-104832329D01*
X173856995Y-104767003D01*
X173890632Y-104698681D01*
X173920984Y-104638454D01*
X173946152Y-104589978D01*
X173964233Y-104556911D01*
X173973329Y-104542908D01*
X173973513Y-104542775D01*
X173988020Y-104544761D01*
X174023182Y-104553799D01*
X174075565Y-104568877D01*
X174141736Y-104588986D01*
X174218264Y-104613115D01*
X174276075Y-104631830D01*
X174431280Y-104682191D01*
X174563683Y-104724258D01*
X174674377Y-104758357D01*
X174764453Y-104784812D01*
X174835003Y-104803948D01*
X174887119Y-104816090D01*
X174908758Y-104819970D01*
X174966025Y-104828557D01*
X175018090Y-104668522D01*
X175112087Y-104338989D01*
X175181142Y-104005378D01*
X175225172Y-103668675D01*
X175244093Y-103329861D01*
X175237821Y-102989921D01*
X175206273Y-102649839D01*
X175196370Y-102578100D01*
X175182166Y-102489704D01*
X175164617Y-102394601D01*
X175144601Y-102296363D01*
X175122997Y-102198562D01*
X175100682Y-102104770D01*
X175078535Y-102018558D01*
X175057434Y-101943499D01*
X175038257Y-101883164D01*
X175021883Y-101841126D01*
X175010505Y-101822120D01*
X174995215Y-101814467D01*
X174968909Y-101812449D01*
X174929932Y-101816471D01*
X174876630Y-101826937D01*
X174807345Y-101844252D01*
X174720423Y-101868820D01*
X174614209Y-101901048D01*
X174487046Y-101941339D01*
X174377650Y-101976856D01*
X174288140Y-102005642D01*
X174204173Y-102031698D01*
X174129465Y-102053945D01*
X174067733Y-102071303D01*
X174022696Y-102082693D01*
X173998278Y-102087027D01*
X173968579Y-102086970D01*
X173951660Y-102079383D01*
X173940412Y-102058123D01*
X173931321Y-102029176D01*
X173910753Y-101972881D01*
X173878035Y-101899450D01*
X173835325Y-101812730D01*
X173784781Y-101716571D01*
X173728562Y-101614822D01*
X173668827Y-101511331D01*
X173607735Y-101409948D01*
X173547443Y-101314521D01*
X173490110Y-101228900D01*
X173454643Y-101179227D01*
X173367049Y-101060450D01*
X173409599Y-101022350D01*
X173430518Y-101003690D01*
X173467389Y-100970877D01*
X173517164Y-100926620D01*
X173576799Y-100873624D01*
X173643246Y-100814599D01*
X173705349Y-100759453D01*
X173780559Y-100692465D01*
X173856388Y-100624536D01*
X173928638Y-100559456D01*
X173993112Y-100501013D01*
X174045612Y-100452997D01*
X174072465Y-100428108D01*
X174186381Y-100321560D01*
X174163544Y-100286706D01*
X174148013Y-100267622D01*
X174117405Y-100233831D01*
X174074704Y-100188486D01*
X174022895Y-100134740D01*
X173964962Y-100075745D01*
X173941678Y-100052323D01*
X173722398Y-99846001D01*
X173489320Y-99652094D01*
X173246957Y-99473958D01*
X172999818Y-99314951D01*
X172801225Y-99203524D01*
X172692592Y-99149398D01*
X172573961Y-99095148D01*
X172448687Y-99041940D01*
X172320126Y-98990941D01*
X172191635Y-98943319D01*
X172066570Y-98900239D01*
X171948288Y-98862869D01*
X171840144Y-98832375D01*
X171745495Y-98809925D01*
X171667696Y-98796685D01*
X171621798Y-98793500D01*
X171590993Y-98794167D01*
X171564627Y-98797523D01*
X171541834Y-98805600D01*
X171521752Y-98820429D01*
X171503516Y-98844040D01*
X171486262Y-98878467D01*
X171469124Y-98925739D01*
X171451240Y-98987889D01*
X171431745Y-99066948D01*
X171409774Y-99164947D01*
X171384463Y-99283917D01*
X171357038Y-99415800D01*
X171276847Y-99803150D01*
X170928598Y-99799447D01*
X170828498Y-99798934D01*
X170729066Y-99799430D01*
X170635434Y-99800833D01*
X170552729Y-99803044D01*
X170486081Y-99805964D01*
X170447000Y-99808818D01*
X170374207Y-99815624D01*
X170294566Y-99822549D01*
X170221508Y-99828442D01*
X170197658Y-99830214D01*
X170142814Y-99833824D01*
X170107629Y-99834488D01*
X170086446Y-99831280D01*
X170073604Y-99823277D01*
X170063444Y-99809554D01*
X170062553Y-99808142D01*
X170055250Y-99788364D01*
X170043783Y-99747023D01*
X170028949Y-99687465D01*
X170011545Y-99613038D01*
X169992367Y-99527090D01*
X169972213Y-99432968D01*
X169964798Y-99397372D01*
X169936962Y-99264526D01*
X169912835Y-99154351D01*
X169891580Y-99064530D01*
X169872361Y-98992744D01*
X169854340Y-98936674D01*
X169836681Y-98894003D01*
X169818548Y-98862411D01*
X169799104Y-98839581D01*
X169777513Y-98823194D01*
X169753213Y-98811047D01*
X169724049Y-98802715D01*
X169687848Y-98800430D01*
X169641178Y-98804677D01*
X169580603Y-98815941D01*
X169502689Y-98834707D01*
X169411950Y-98859236D01*
X169196380Y-98926555D01*
X168970854Y-99010341D01*
X168742098Y-99107905D01*
X168516835Y-99216558D01*
X168511206Y-99219445D01*
X168382414Y-99287955D01*
X168263446Y-99356686D01*
X168148980Y-99429189D01*
X168033695Y-99509010D01*
X167912266Y-99599700D01*
X167779374Y-99704808D01*
X167760950Y-99719739D01*
X167703277Y-99768176D01*
X167638409Y-99825320D01*
X167569257Y-99888338D01*
X167498731Y-99954397D01*
X167429741Y-100020665D01*
X167365200Y-100084309D01*
X167308017Y-100142498D01*
X167261104Y-100192399D01*
X167227372Y-100231179D01*
X167209730Y-100256006D01*
X167209634Y-100256196D01*
X167199063Y-100296802D01*
X167201004Y-100323806D01*
X167215694Y-100351575D01*
X167248819Y-100393923D01*
X167299041Y-100449488D01*
X167365020Y-100516907D01*
X167445417Y-100594818D01*
X167538894Y-100681858D01*
X167644110Y-100776665D01*
X167659350Y-100790169D01*
X167739557Y-100861146D01*
X167802639Y-100917436D01*
X167850442Y-100961239D01*
X167884813Y-100994753D01*
X167907598Y-101020178D01*
X167920645Y-101039715D01*
X167925801Y-101055564D01*
X167924913Y-101069923D01*
X167919827Y-101084993D01*
X167915532Y-101095286D01*
X167899748Y-101125984D01*
X167873579Y-101169696D01*
X167841609Y-101218917D01*
X167827054Y-101240144D01*
X167772846Y-101320997D01*
X167715609Y-101412044D01*
X167657386Y-101509515D01*
X167600221Y-101609640D01*
X167546158Y-101708647D01*
X167497240Y-101802766D01*
X167455509Y-101888227D01*
X167423011Y-101961259D01*
X167401787Y-102018091D01*
X167397640Y-102032517D01*
X167380806Y-102098199D01*
X167329578Y-102091160D01*
X167304101Y-102085407D01*
X167258242Y-102072755D01*
X167195717Y-102054324D01*
X167120246Y-102031231D01*
X167035547Y-102004597D01*
X166945337Y-101975541D01*
X166943683Y-101975002D01*
X166799419Y-101928749D01*
X166672129Y-101889559D01*
X166562960Y-101857739D01*
X166473058Y-101833599D01*
X166403568Y-101817446D01*
X166355638Y-101809590D01*
X166331162Y-101810079D01*
X166316992Y-101825939D01*
X166299315Y-101863784D01*
X166278961Y-101920573D01*
X166256761Y-101993263D01*
X166233542Y-102078813D01*
X166210136Y-102174180D01*
X166187370Y-102276323D01*
X166166076Y-102382200D01*
X166148652Y-102479370D01*
X166125627Y-102626787D01*
X166108640Y-102762226D01*
X166097006Y-102894171D01*
X166090040Y-103031103D01*
X166087057Y-103181502D01*
X166086826Y-103244850D01*
X164670741Y-103244850D01*
X164672369Y-103117850D01*
X164680539Y-102885460D01*
X164695101Y-102670415D01*
X164717038Y-102465245D01*
X164747334Y-102262478D01*
X164786971Y-102054643D01*
X164836931Y-101834267D01*
X164846172Y-101796437D01*
X164950713Y-101424733D01*
X165078357Y-101062695D01*
X165228362Y-100711234D01*
X165399989Y-100371258D01*
X165592496Y-100043679D01*
X165805144Y-99729407D01*
X166037191Y-99429352D01*
X166287897Y-99144425D01*
X166556520Y-98875535D01*
X166842322Y-98623593D01*
X167144560Y-98389509D01*
X167462494Y-98174193D01*
X167795384Y-97978557D01*
X168065322Y-97840024D01*
X168419846Y-97683161D01*
X168782223Y-97550151D01*
X169151260Y-97441110D01*
X169525761Y-97356159D01*
X169904532Y-97295415D01*
X170286377Y-97258997D01*
X170670102Y-97247024D01*
X171054511Y-97259614D01*
G36*
X171805900Y-126022300D02*
G01*
X171285200Y-126022300D01*
X171285200Y-125501600D01*
X171805900Y-125501600D01*
X171805900Y-126022300D01*
X171805900Y-126022300D01*
G37*
X171805900Y-126022300D02*
X171285200Y-126022300D01*
X171285200Y-125501600D01*
X171805900Y-125501600D01*
X171805900Y-126022300D01*
G36*
X170764500Y-126022300D02*
G01*
X170243800Y-126022300D01*
X170243800Y-125501600D01*
X170764500Y-125501600D01*
X170764500Y-126022300D01*
X170764500Y-126022300D01*
G37*
X170764500Y-126022300D02*
X170243800Y-126022300D01*
X170243800Y-125501600D01*
X170764500Y-125501600D01*
X170764500Y-126022300D01*
G36*
X169723100Y-126022300D02*
G01*
X169202400Y-126022300D01*
X169202400Y-125501600D01*
X169723100Y-125501600D01*
X169723100Y-126022300D01*
X169723100Y-126022300D01*
G37*
X169723100Y-126022300D02*
X169202400Y-126022300D01*
X169202400Y-125501600D01*
X169723100Y-125501600D01*
X169723100Y-126022300D01*
G36*
X130581700Y-127482800D02*
G01*
X128524300Y-127482800D01*
X128524300Y-126962100D01*
X130581700Y-126962100D01*
X130581700Y-127482800D01*
X130581700Y-127482800D01*
G37*
X130581700Y-127482800D02*
X128524300Y-127482800D01*
X128524300Y-126962100D01*
X130581700Y-126962100D01*
X130581700Y-127482800D01*
G36*
X191681400Y-75552500D02*
G01*
X191325800Y-75552500D01*
X191325800Y-75184200D01*
X191681400Y-75184200D01*
X191681400Y-75552500D01*
X191681400Y-75552500D01*
G37*
X191681400Y-75552500D02*
X191325800Y-75552500D01*
X191325800Y-75184200D01*
X191681400Y-75184200D01*
X191681400Y-75552500D01*
G36*
X110312500Y-76238300D02*
G01*
X109956900Y-76238300D01*
X109956900Y-75882700D01*
X110312500Y-75882700D01*
X110312500Y-76238300D01*
X110312500Y-76238300D01*
G37*
X110312500Y-76238300D02*
X109956900Y-76238300D01*
X109956900Y-75882700D01*
X110312500Y-75882700D01*
X110312500Y-76238300D01*
G36*
X190957500Y-74828600D02*
G01*
X191313100Y-74828600D01*
X191313100Y-75196900D01*
X190957500Y-75196900D01*
X190957500Y-76924100D01*
X190601900Y-76924100D01*
X190601900Y-75196900D01*
X190246300Y-75196900D01*
X190246300Y-75539800D01*
X189890700Y-75539800D01*
X189890700Y-75184200D01*
X190245583Y-75184200D01*
X190249116Y-75009575D01*
X190252650Y-74834950D01*
X190427275Y-74831416D01*
X190601900Y-74827883D01*
X190601900Y-74498400D01*
X190957500Y-74498400D01*
X190957500Y-74828600D01*
X190957500Y-74828600D01*
G37*
X190957500Y-74828600D02*
X191313100Y-74828600D01*
X191313100Y-75196900D01*
X190957500Y-75196900D01*
X190957500Y-76924100D01*
X190601900Y-76924100D01*
X190601900Y-75196900D01*
X190246300Y-75196900D01*
X190246300Y-75539800D01*
X189890700Y-75539800D01*
X189890700Y-75184200D01*
X190245583Y-75184200D01*
X190249116Y-75009575D01*
X190252650Y-74834950D01*
X190427275Y-74831416D01*
X190601900Y-74827883D01*
X190601900Y-74498400D01*
X190957500Y-74498400D01*
X190957500Y-74828600D01*
G36*
X109588600Y-76225600D02*
G01*
X109944200Y-76225600D01*
X109944200Y-76593900D01*
X109588600Y-76593900D01*
X109588600Y-76924100D01*
X109233000Y-76924100D01*
X109233000Y-76593900D01*
X108877400Y-76593900D01*
X108877400Y-76238300D01*
X108521800Y-76238300D01*
X108521800Y-75882700D01*
X108877400Y-75882700D01*
X108877400Y-76225600D01*
X109233000Y-76225600D01*
X109233000Y-74498400D01*
X109588600Y-74498400D01*
X109588600Y-76225600D01*
X109588600Y-76225600D01*
G37*
X109588600Y-76225600D02*
X109944200Y-76225600D01*
X109944200Y-76593900D01*
X109588600Y-76593900D01*
X109588600Y-76924100D01*
X109233000Y-76924100D01*
X109233000Y-76593900D01*
X108877400Y-76593900D01*
X108877400Y-76238300D01*
X108521800Y-76238300D01*
X108521800Y-75882700D01*
X108877400Y-75882700D01*
X108877400Y-76225600D01*
X109233000Y-76225600D01*
X109233000Y-74498400D01*
X109588600Y-74498400D01*
X109588600Y-76225600D01*
G36*
X195034200Y-89954300D02*
G01*
X194437300Y-89954300D01*
X194437300Y-90246400D01*
X194145200Y-90246400D01*
X194145200Y-89954300D01*
X193840400Y-89954300D01*
X193840400Y-89649500D01*
X195034200Y-89649500D01*
X195034200Y-89954300D01*
X195034200Y-89954300D01*
G37*
X195034200Y-89954300D02*
X194437300Y-89954300D01*
X194437300Y-90246400D01*
X194145200Y-90246400D01*
X194145200Y-89954300D01*
X193840400Y-89954300D01*
X193840400Y-89649500D01*
X195034200Y-89649500D01*
X195034200Y-89954300D01*
G36*
X195034200Y-90551200D02*
G01*
X194437300Y-90551200D01*
X194437300Y-90246400D01*
X195034200Y-90246400D01*
X195034200Y-90551200D01*
X195034200Y-90551200D01*
G37*
X195034200Y-90551200D02*
X194437300Y-90551200D01*
X194437300Y-90246400D01*
X195034200Y-90246400D01*
X195034200Y-90551200D01*
G36*
X195034200Y-91148100D02*
G01*
X195034200Y-91452900D01*
X194742100Y-91452900D01*
X194742100Y-91745000D01*
X194145200Y-91745000D01*
X194145200Y-91452900D01*
X193840400Y-91452900D01*
X193840400Y-91148100D01*
X194145200Y-91148100D01*
X194145200Y-91452900D01*
X194742100Y-91452900D01*
X194742100Y-91148100D01*
X194145200Y-91148100D01*
X194145200Y-90856000D01*
X194742100Y-90856000D01*
X194742100Y-91148100D01*
X195034200Y-91148100D01*
X195034200Y-91148100D01*
G37*
X195034200Y-91148100D02*
X195034200Y-91452900D01*
X194742100Y-91452900D01*
X194742100Y-91745000D01*
X194145200Y-91745000D01*
X194145200Y-91452900D01*
X193840400Y-91452900D01*
X193840400Y-91148100D01*
X194145200Y-91148100D01*
X194145200Y-91452900D01*
X194742100Y-91452900D01*
X194742100Y-91148100D01*
X194145200Y-91148100D01*
X194145200Y-90856000D01*
X194742100Y-90856000D01*
X194742100Y-91148100D01*
X195034200Y-91148100D01*
G36*
X106540600Y-91224300D02*
G01*
X106540600Y-91516400D01*
X106235800Y-91516400D01*
X106235800Y-91821200D01*
X105638900Y-91821200D01*
X105638900Y-91516400D01*
X105346800Y-91516400D01*
X105346800Y-91224300D01*
X105638900Y-91224300D01*
X105638900Y-91516400D01*
X106235800Y-91516400D01*
X106235800Y-91224300D01*
X105638900Y-91224300D01*
X105638900Y-90919500D01*
X106235800Y-90919500D01*
X106235800Y-91224300D01*
X106540600Y-91224300D01*
X106540600Y-91224300D01*
G37*
X106540600Y-91224300D02*
X106540600Y-91516400D01*
X106235800Y-91516400D01*
X106235800Y-91821200D01*
X105638900Y-91821200D01*
X105638900Y-91516400D01*
X105346800Y-91516400D01*
X105346800Y-91224300D01*
X105638900Y-91224300D01*
X105638900Y-91516400D01*
X106235800Y-91516400D01*
X106235800Y-91224300D01*
X105638900Y-91224300D01*
X105638900Y-90919500D01*
X106235800Y-90919500D01*
X106235800Y-91224300D01*
X106540600Y-91224300D01*
G36*
X195643800Y-92646700D02*
G01*
X193839593Y-92646700D01*
X193843171Y-92497475D01*
X193846750Y-92348250D01*
X195339000Y-92341696D01*
X195339000Y-92049800D01*
X195643800Y-92049800D01*
X195643800Y-92646700D01*
X195643800Y-92646700D01*
G37*
X195643800Y-92646700D02*
X193839593Y-92646700D01*
X193843171Y-92497475D01*
X193846750Y-92348250D01*
X195339000Y-92341696D01*
X195339000Y-92049800D01*
X195643800Y-92049800D01*
X195643800Y-92646700D01*
G36*
X106540600Y-92722900D02*
G01*
X106235800Y-92722900D01*
X106235800Y-92418100D01*
X105346800Y-92418100D01*
X105346800Y-92113300D01*
X106540600Y-92113300D01*
X106540600Y-92722900D01*
X106540600Y-92722900D01*
G37*
X106540600Y-92722900D02*
X106235800Y-92722900D01*
X106235800Y-92418100D01*
X105346800Y-92418100D01*
X105346800Y-92113300D01*
X106540600Y-92113300D01*
X106540600Y-92722900D01*
G36*
X106235800Y-93015000D02*
G01*
X105346800Y-93015000D01*
X105346800Y-92722900D01*
X106235800Y-92722900D01*
X106235800Y-93015000D01*
X106235800Y-93015000D01*
G37*
X106235800Y-93015000D02*
X105346800Y-93015000D01*
X105346800Y-92722900D01*
X106235800Y-92722900D01*
X106235800Y-93015000D01*
G36*
X195034200Y-93548400D02*
G01*
X194145200Y-93548400D01*
X194145200Y-93840500D01*
X195034200Y-93840500D01*
X195034200Y-94145300D01*
X193840400Y-94145300D01*
X193840400Y-93243600D01*
X195034200Y-93243600D01*
X195034200Y-93548400D01*
X195034200Y-93548400D01*
G37*
X195034200Y-93548400D02*
X194145200Y-93548400D01*
X194145200Y-93840500D01*
X195034200Y-93840500D01*
X195034200Y-94145300D01*
X193840400Y-94145300D01*
X193840400Y-93243600D01*
X195034200Y-93243600D01*
X195034200Y-93548400D01*
G36*
X105943700Y-93611900D02*
G01*
X105638900Y-93611900D01*
X105638900Y-93319800D01*
X105943700Y-93319800D01*
X105943700Y-93611900D01*
X105943700Y-93611900D01*
G37*
X105943700Y-93611900D02*
X105638900Y-93611900D01*
X105638900Y-93319800D01*
X105943700Y-93319800D01*
X105943700Y-93611900D01*
G36*
X106235800Y-93916700D02*
G01*
X105943700Y-93916700D01*
X105943700Y-93611900D01*
X106235800Y-93611900D01*
X106235800Y-93916700D01*
X106235800Y-93916700D01*
G37*
X106235800Y-93916700D02*
X105943700Y-93916700D01*
X105943700Y-93611900D01*
X106235800Y-93611900D01*
X106235800Y-93916700D01*
G36*
X106540600Y-94208800D02*
G01*
X106235800Y-94208800D01*
X106235800Y-93916700D01*
X106540600Y-93916700D01*
X106540600Y-94208800D01*
X106540600Y-94208800D01*
G37*
X106540600Y-94208800D02*
X106235800Y-94208800D01*
X106235800Y-93916700D01*
X106540600Y-93916700D01*
X106540600Y-94208800D01*
G36*
X195034200Y-95047000D02*
G01*
X194742100Y-95047000D01*
X194742100Y-95339100D01*
X193840400Y-95339100D01*
X193840400Y-95047806D01*
X194138850Y-95040650D01*
X194146006Y-94742200D01*
X193839593Y-94742200D01*
X193843171Y-94592975D01*
X193846750Y-94443750D01*
X195034200Y-94437148D01*
X195034200Y-95047000D01*
X195034200Y-95047000D01*
G37*
X195034200Y-95047000D02*
X194742100Y-95047000D01*
X194742100Y-95339100D01*
X193840400Y-95339100D01*
X193840400Y-95047806D01*
X194138850Y-95040650D01*
X194146006Y-94742200D01*
X193839593Y-94742200D01*
X193843171Y-94592975D01*
X193846750Y-94443750D01*
X195034200Y-94437148D01*
X195034200Y-95047000D01*
G36*
X106540600Y-94818400D02*
G01*
X106540600Y-95110500D01*
X106235800Y-95110500D01*
X106235800Y-95415300D01*
X105638900Y-95415300D01*
X105638900Y-95110500D01*
X105346800Y-95110500D01*
X105346800Y-94818400D01*
X105638900Y-94818400D01*
X105638900Y-95110500D01*
X106235800Y-95110500D01*
X106235800Y-94818400D01*
X105638900Y-94818400D01*
X105638900Y-94513600D01*
X106235800Y-94513600D01*
X106235800Y-94818400D01*
X106540600Y-94818400D01*
X106540600Y-94818400D01*
G37*
X106540600Y-94818400D02*
X106540600Y-95110500D01*
X106235800Y-95110500D01*
X106235800Y-95415300D01*
X105638900Y-95415300D01*
X105638900Y-95110500D01*
X105346800Y-95110500D01*
X105346800Y-94818400D01*
X105638900Y-94818400D01*
X105638900Y-95110500D01*
X106235800Y-95110500D01*
X106235800Y-94818400D01*
X105638900Y-94818400D01*
X105638900Y-94513600D01*
X106235800Y-94513600D01*
X106235800Y-94818400D01*
X106540600Y-94818400D01*
G36*
X194145200Y-96532900D02*
G01*
X193840400Y-96532900D01*
X193840400Y-95936000D01*
X194145200Y-95936000D01*
X194145200Y-96532900D01*
X194145200Y-96532900D01*
G37*
X194145200Y-96532900D02*
X193840400Y-96532900D01*
X193840400Y-95936000D01*
X194145200Y-95936000D01*
X194145200Y-96532900D01*
G36*
X194145200Y-95643900D02*
G01*
X194742100Y-95643900D01*
X194742100Y-95936000D01*
X195034200Y-95936000D01*
X195034200Y-96532900D01*
X194437300Y-96532900D01*
X194437300Y-95936000D01*
X194145200Y-95936000D01*
X194145200Y-95643900D01*
X194145200Y-95643900D01*
G37*
X194145200Y-95643900D02*
X194742100Y-95643900D01*
X194742100Y-95936000D01*
X195034200Y-95936000D01*
X195034200Y-96532900D01*
X194437300Y-96532900D01*
X194437300Y-95936000D01*
X194145200Y-95936000D01*
X194145200Y-95643900D01*
G36*
X106540600Y-96012200D02*
G01*
X107137500Y-96012200D01*
X107137500Y-96609100D01*
X106832700Y-96609100D01*
X106832700Y-96304300D01*
X106540600Y-96304300D01*
X106540600Y-96609100D01*
X106235800Y-96609100D01*
X106235800Y-96304300D01*
X105346800Y-96304300D01*
X105346800Y-96012200D01*
X106234993Y-96012200D01*
X106238571Y-95862975D01*
X106242150Y-95713750D01*
X106391375Y-95710171D01*
X106540600Y-95706593D01*
X106540600Y-96012200D01*
X106540600Y-96012200D01*
G37*
X106540600Y-96012200D02*
X107137500Y-96012200D01*
X107137500Y-96609100D01*
X106832700Y-96609100D01*
X106832700Y-96304300D01*
X106540600Y-96304300D01*
X106540600Y-96609100D01*
X106235800Y-96609100D01*
X106235800Y-96304300D01*
X105346800Y-96304300D01*
X105346800Y-96012200D01*
X106234993Y-96012200D01*
X106238571Y-95862975D01*
X106242150Y-95713750D01*
X106391375Y-95710171D01*
X106540600Y-95706593D01*
X106540600Y-96012200D01*
G36*
X106540600Y-97206000D02*
G01*
X107137500Y-97206000D01*
X107137500Y-97802900D01*
X106832700Y-97802900D01*
X106832700Y-97510800D01*
X106540600Y-97510800D01*
X106540600Y-97802900D01*
X106235800Y-97802900D01*
X106235800Y-97510800D01*
X105346800Y-97510800D01*
X105346800Y-97206000D01*
X106235800Y-97206000D01*
X106235800Y-96913900D01*
X106540600Y-96913900D01*
X106540600Y-97206000D01*
X106540600Y-97206000D01*
G37*
X106540600Y-97206000D02*
X107137500Y-97206000D01*
X107137500Y-97802900D01*
X106832700Y-97802900D01*
X106832700Y-97510800D01*
X106540600Y-97510800D01*
X106540600Y-97802900D01*
X106235800Y-97802900D01*
X106235800Y-97510800D01*
X105346800Y-97510800D01*
X105346800Y-97206000D01*
X106235800Y-97206000D01*
X106235800Y-96913900D01*
X106540600Y-96913900D01*
X106540600Y-97206000D01*
G36*
X194335700Y-106311900D02*
G01*
X193967400Y-106311900D01*
X193967400Y-105956300D01*
X194335700Y-105956300D01*
X194335700Y-106311900D01*
X194335700Y-106311900D01*
G37*
X194335700Y-106311900D02*
X193967400Y-106311900D01*
X193967400Y-105956300D01*
X194335700Y-105956300D01*
X194335700Y-106311900D01*
G36*
X191744900Y-106311900D02*
G01*
X191376600Y-106311900D01*
X191376600Y-105956300D01*
X191744900Y-105956300D01*
X191744900Y-106311900D01*
X191744900Y-106311900D01*
G37*
X191744900Y-106311900D02*
X191376600Y-106311900D01*
X191376600Y-105956300D01*
X191744900Y-105956300D01*
X191744900Y-106311900D01*
G36*
X108229700Y-106311900D02*
G01*
X107874100Y-106311900D01*
X107874100Y-105956300D01*
X108229700Y-105956300D01*
X108229700Y-106311900D01*
X108229700Y-106311900D01*
G37*
X108229700Y-106311900D02*
X107874100Y-106311900D01*
X107874100Y-105956300D01*
X108229700Y-105956300D01*
X108229700Y-106311900D01*
G36*
X105638900Y-106311900D02*
G01*
X105283300Y-106311900D01*
X105283300Y-105956300D01*
X105638900Y-105956300D01*
X105638900Y-106311900D01*
X105638900Y-106311900D01*
G37*
X105638900Y-106311900D02*
X105283300Y-106311900D01*
X105283300Y-105956300D01*
X105638900Y-105956300D01*
X105638900Y-106311900D01*
G36*
X194691300Y-106680200D02*
G01*
X194323000Y-106680200D01*
X194323000Y-106324600D01*
X194691300Y-106324600D01*
X194691300Y-106680200D01*
X194691300Y-106680200D01*
G37*
X194691300Y-106680200D02*
X194323000Y-106680200D01*
X194323000Y-106324600D01*
X194691300Y-106324600D01*
X194691300Y-106680200D01*
G36*
X193040300Y-106311900D02*
G01*
X193395900Y-106311900D01*
X193395900Y-106680200D01*
X193027600Y-106680200D01*
X193027600Y-106311900D01*
X192671302Y-106311900D01*
X192678350Y-105949950D01*
X193040300Y-105942902D01*
X193040300Y-106311900D01*
X193040300Y-106311900D01*
G37*
X193040300Y-106311900D02*
X193395900Y-106311900D01*
X193395900Y-106680200D01*
X193027600Y-106680200D01*
X193027600Y-106311900D01*
X192671302Y-106311900D01*
X192678350Y-105949950D01*
X193040300Y-105942902D01*
X193040300Y-106311900D01*
G36*
X192100500Y-106680200D02*
G01*
X191732200Y-106680200D01*
X191732200Y-106324600D01*
X192100500Y-106324600D01*
X192100500Y-106680200D01*
X192100500Y-106680200D01*
G37*
X192100500Y-106680200D02*
X191732200Y-106680200D01*
X191732200Y-106324600D01*
X192100500Y-106324600D01*
X192100500Y-106680200D01*
G36*
X108585300Y-106680200D02*
G01*
X108229700Y-106680200D01*
X108229700Y-106324600D01*
X108585300Y-106324600D01*
X108585300Y-106680200D01*
X108585300Y-106680200D01*
G37*
X108585300Y-106680200D02*
X108229700Y-106680200D01*
X108229700Y-106324600D01*
X108585300Y-106324600D01*
X108585300Y-106680200D01*
G36*
X106940650Y-105949950D02*
G01*
X106944171Y-106130568D01*
X106947693Y-106311187D01*
X107121971Y-106314718D01*
X107296250Y-106318250D01*
X107299773Y-106499225D01*
X107303297Y-106680200D01*
X106934300Y-106680200D01*
X106934300Y-106311900D01*
X106578700Y-106311900D01*
X106578700Y-105942902D01*
X106940650Y-105949950D01*
X106940650Y-105949950D01*
G37*
X106940650Y-105949950D02*
X106944171Y-106130568D01*
X106947693Y-106311187D01*
X107121971Y-106314718D01*
X107296250Y-106318250D01*
X107299773Y-106499225D01*
X107303297Y-106680200D01*
X106934300Y-106680200D01*
X106934300Y-106311900D01*
X106578700Y-106311900D01*
X106578700Y-105942902D01*
X106940650Y-105949950D01*
G36*
X105994500Y-106680200D02*
G01*
X105638900Y-106680200D01*
X105638900Y-106324600D01*
X105994500Y-106324600D01*
X105994500Y-106680200D01*
X105994500Y-106680200D01*
G37*
X105994500Y-106680200D02*
X105638900Y-106680200D01*
X105638900Y-106324600D01*
X105994500Y-106324600D01*
X105994500Y-106680200D01*
G36*
X194688473Y-107210425D02*
G01*
X194691997Y-107391400D01*
X194335700Y-107391400D01*
X194335700Y-107747000D01*
X193980100Y-107747000D01*
X193980100Y-107391400D01*
X194322302Y-107391400D01*
X194329350Y-107029450D01*
X194684950Y-107029450D01*
X194688473Y-107210425D01*
X194688473Y-107210425D01*
G37*
X194688473Y-107210425D02*
X194691997Y-107391400D01*
X194335700Y-107391400D01*
X194335700Y-107747000D01*
X193980100Y-107747000D01*
X193980100Y-107391400D01*
X194322302Y-107391400D01*
X194329350Y-107029450D01*
X194684950Y-107029450D01*
X194688473Y-107210425D01*
G36*
X192097673Y-107210425D02*
G01*
X192101197Y-107391400D01*
X191744900Y-107391400D01*
X191744900Y-107747000D01*
X191389300Y-107747000D01*
X191389300Y-107391400D01*
X191731502Y-107391400D01*
X191738550Y-107029450D01*
X192094150Y-107029450D01*
X192097673Y-107210425D01*
X192097673Y-107210425D01*
G37*
X192097673Y-107210425D02*
X192101197Y-107391400D01*
X191744900Y-107391400D01*
X191744900Y-107747000D01*
X191389300Y-107747000D01*
X191389300Y-107391400D01*
X191731502Y-107391400D01*
X191738550Y-107029450D01*
X192094150Y-107029450D01*
X192097673Y-107210425D01*
G36*
X108585300Y-107391400D02*
G01*
X108242400Y-107391400D01*
X108242400Y-107747000D01*
X107886800Y-107747000D01*
X107886800Y-107391400D01*
X108229700Y-107391400D01*
X108229700Y-107023100D01*
X108585300Y-107023100D01*
X108585300Y-107391400D01*
X108585300Y-107391400D01*
G37*
X108585300Y-107391400D02*
X108242400Y-107391400D01*
X108242400Y-107747000D01*
X107886800Y-107747000D01*
X107886800Y-107391400D01*
X108229700Y-107391400D01*
X108229700Y-107023100D01*
X108585300Y-107023100D01*
X108585300Y-107391400D01*
G36*
X105994500Y-107391400D02*
G01*
X105651600Y-107391400D01*
X105651600Y-107747000D01*
X105283300Y-107747000D01*
X105283300Y-107391400D01*
X105638900Y-107391400D01*
X105638900Y-107023100D01*
X105994500Y-107023100D01*
X105994500Y-107391400D01*
X105994500Y-107391400D01*
G37*
X105994500Y-107391400D02*
X105651600Y-107391400D01*
X105651600Y-107747000D01*
X105283300Y-107747000D01*
X105283300Y-107391400D01*
X105638900Y-107391400D01*
X105638900Y-107023100D01*
X105994500Y-107023100D01*
X105994500Y-107391400D01*
G36*
X193395900Y-107391400D02*
G01*
X193053697Y-107391400D01*
X193050173Y-107572375D01*
X193046650Y-107753350D01*
X192865675Y-107756873D01*
X192684700Y-107760397D01*
X192684700Y-107391400D01*
X193027600Y-107391400D01*
X193027600Y-107023100D01*
X193395900Y-107023100D01*
X193395900Y-107391400D01*
X193395900Y-107391400D01*
G37*
X193395900Y-107391400D02*
X193053697Y-107391400D01*
X193050173Y-107572375D01*
X193046650Y-107753350D01*
X192865675Y-107756873D01*
X192684700Y-107760397D01*
X192684700Y-107391400D01*
X193027600Y-107391400D01*
X193027600Y-107023100D01*
X193395900Y-107023100D01*
X193395900Y-107391400D01*
G36*
X107296250Y-107029450D02*
G01*
X107299773Y-107210425D01*
X107303297Y-107391400D01*
X106947000Y-107391400D01*
X106947000Y-107759700D01*
X106771316Y-107759700D01*
X106706923Y-107759118D01*
X106651867Y-107757523D01*
X106611018Y-107755139D01*
X106589245Y-107752189D01*
X106587166Y-107751233D01*
X106584091Y-107736095D01*
X106581514Y-107700428D01*
X106579661Y-107649102D01*
X106578754Y-107586985D01*
X106578700Y-107567083D01*
X106578700Y-107391400D01*
X106934300Y-107391400D01*
X106934300Y-107022402D01*
X107296250Y-107029450D01*
X107296250Y-107029450D01*
G37*
X107296250Y-107029450D02*
X107299773Y-107210425D01*
X107303297Y-107391400D01*
X106947000Y-107391400D01*
X106947000Y-107759700D01*
X106771316Y-107759700D01*
X106706923Y-107759118D01*
X106651867Y-107757523D01*
X106611018Y-107755139D01*
X106589245Y-107752189D01*
X106587166Y-107751233D01*
X106584091Y-107736095D01*
X106581514Y-107700428D01*
X106579661Y-107649102D01*
X106578754Y-107586985D01*
X106578700Y-107567083D01*
X106578700Y-107391400D01*
X106934300Y-107391400D01*
X106934300Y-107022402D01*
X107296250Y-107029450D01*
G36*
X192760900Y-109613900D02*
G01*
X193116500Y-109613900D01*
X193116500Y-109245600D01*
X193497500Y-109245600D01*
X193497500Y-108890000D01*
X193815000Y-108890000D01*
X193815000Y-108534400D01*
X194183300Y-108534400D01*
X194183300Y-109614616D01*
X194532550Y-109607550D01*
X194536073Y-109426575D01*
X194539597Y-109245600D01*
X194894500Y-109245600D01*
X194894500Y-109613900D01*
X194538900Y-109613900D01*
X194538900Y-109969500D01*
X194183300Y-109969500D01*
X194183300Y-110337800D01*
X193827700Y-110337800D01*
X193827700Y-109258300D01*
X193510200Y-109258300D01*
X193510200Y-109613900D01*
X193154600Y-109613900D01*
X193154600Y-109968762D01*
X192818050Y-109975850D01*
X192811002Y-110337800D01*
X192405300Y-110337800D01*
X192405300Y-109258300D01*
X192087800Y-109258300D01*
X192087800Y-109613900D01*
X191744900Y-109613900D01*
X191744900Y-109968783D01*
X191570275Y-109972316D01*
X191395650Y-109975850D01*
X191388602Y-110337800D01*
X191033700Y-110337800D01*
X191033700Y-109969500D01*
X191376600Y-109969500D01*
X191376600Y-109613900D01*
X191732200Y-109613900D01*
X191732200Y-109245600D01*
X192075100Y-109245600D01*
X192075100Y-108890000D01*
X192405300Y-108890000D01*
X192405300Y-108534400D01*
X192760900Y-108534400D01*
X192760900Y-109613900D01*
X192760900Y-109613900D01*
G37*
X192760900Y-109613900D02*
X193116500Y-109613900D01*
X193116500Y-109245600D01*
X193497500Y-109245600D01*
X193497500Y-108890000D01*
X193815000Y-108890000D01*
X193815000Y-108534400D01*
X194183300Y-108534400D01*
X194183300Y-109614616D01*
X194532550Y-109607550D01*
X194536073Y-109426575D01*
X194539597Y-109245600D01*
X194894500Y-109245600D01*
X194894500Y-109613900D01*
X194538900Y-109613900D01*
X194538900Y-109969500D01*
X194183300Y-109969500D01*
X194183300Y-110337800D01*
X193827700Y-110337800D01*
X193827700Y-109258300D01*
X193510200Y-109258300D01*
X193510200Y-109613900D01*
X193154600Y-109613900D01*
X193154600Y-109968762D01*
X192818050Y-109975850D01*
X192811002Y-110337800D01*
X192405300Y-110337800D01*
X192405300Y-109258300D01*
X192087800Y-109258300D01*
X192087800Y-109613900D01*
X191744900Y-109613900D01*
X191744900Y-109968783D01*
X191570275Y-109972316D01*
X191395650Y-109975850D01*
X191388602Y-110337800D01*
X191033700Y-110337800D01*
X191033700Y-109969500D01*
X191376600Y-109969500D01*
X191376600Y-109613900D01*
X191732200Y-109613900D01*
X191732200Y-109245600D01*
X192075100Y-109245600D01*
X192075100Y-108890000D01*
X192405300Y-108890000D01*
X192405300Y-108534400D01*
X192760900Y-108534400D01*
X192760900Y-109613900D01*
G36*
X106159600Y-108890000D02*
G01*
X106477100Y-108890000D01*
X106477100Y-109244920D01*
X106851750Y-109251950D01*
X106855273Y-109432925D01*
X106858797Y-109613900D01*
X107201000Y-109613900D01*
X107201000Y-109342897D01*
X107201475Y-109237786D01*
X107202792Y-109118255D01*
X107204784Y-108994954D01*
X107207287Y-108878533D01*
X107209369Y-108803147D01*
X107217739Y-108534400D01*
X107569300Y-108534400D01*
X107569300Y-108890000D01*
X107899500Y-108890000D01*
X107899500Y-109245600D01*
X108242400Y-109245600D01*
X108242400Y-109613900D01*
X108585300Y-109613900D01*
X108585300Y-109969500D01*
X108941597Y-109969500D01*
X108938073Y-110150475D01*
X108934550Y-110331450D01*
X108578950Y-110331450D01*
X108571902Y-109969500D01*
X108229700Y-109969500D01*
X108229700Y-109613900D01*
X107886800Y-109613900D01*
X107886800Y-109258300D01*
X107569575Y-109258300D01*
X107566262Y-109794875D01*
X107562950Y-110331450D01*
X107363275Y-110334945D01*
X107163601Y-110338441D01*
X107160075Y-110157145D01*
X107156550Y-109975850D01*
X106981925Y-109972316D01*
X106807300Y-109968783D01*
X106807300Y-109613900D01*
X106464400Y-109613900D01*
X106464400Y-109258300D01*
X106146900Y-109258300D01*
X106146900Y-110337800D01*
X105791300Y-110337800D01*
X105791300Y-109969500D01*
X105423000Y-109969500D01*
X105423000Y-109613900D01*
X105080100Y-109613900D01*
X105080100Y-109245600D01*
X105435700Y-109245600D01*
X105435700Y-109613900D01*
X105791300Y-109613900D01*
X105791300Y-108534400D01*
X106159600Y-108534400D01*
X106159600Y-108890000D01*
X106159600Y-108890000D01*
G37*
X106159600Y-108890000D02*
X106477100Y-108890000D01*
X106477100Y-109244920D01*
X106851750Y-109251950D01*
X106855273Y-109432925D01*
X106858797Y-109613900D01*
X107201000Y-109613900D01*
X107201000Y-109342897D01*
X107201475Y-109237786D01*
X107202792Y-109118255D01*
X107204784Y-108994954D01*
X107207287Y-108878533D01*
X107209369Y-108803147D01*
X107217739Y-108534400D01*
X107569300Y-108534400D01*
X107569300Y-108890000D01*
X107899500Y-108890000D01*
X107899500Y-109245600D01*
X108242400Y-109245600D01*
X108242400Y-109613900D01*
X108585300Y-109613900D01*
X108585300Y-109969500D01*
X108941597Y-109969500D01*
X108938073Y-110150475D01*
X108934550Y-110331450D01*
X108578950Y-110331450D01*
X108571902Y-109969500D01*
X108229700Y-109969500D01*
X108229700Y-109613900D01*
X107886800Y-109613900D01*
X107886800Y-109258300D01*
X107569575Y-109258300D01*
X107566262Y-109794875D01*
X107562950Y-110331450D01*
X107363275Y-110334945D01*
X107163601Y-110338441D01*
X107160075Y-110157145D01*
X107156550Y-109975850D01*
X106981925Y-109972316D01*
X106807300Y-109968783D01*
X106807300Y-109613900D01*
X106464400Y-109613900D01*
X106464400Y-109258300D01*
X106146900Y-109258300D01*
X106146900Y-110337800D01*
X105791300Y-110337800D01*
X105791300Y-109969500D01*
X105423000Y-109969500D01*
X105423000Y-109613900D01*
X105080100Y-109613900D01*
X105080100Y-109245600D01*
X105435700Y-109245600D01*
X105435700Y-109613900D01*
X105791300Y-109613900D01*
X105791300Y-108534400D01*
X106159600Y-108534400D01*
X106159600Y-108890000D01*
G36*
X178126542Y-94307306D02*
G01*
X178339748Y-94366845D01*
X178540264Y-94447836D01*
X178727051Y-94549480D01*
X178899070Y-94670975D01*
X179055281Y-94811523D01*
X179194647Y-94970323D01*
X179316127Y-95146575D01*
X179390168Y-95280309D01*
X179439147Y-95390558D01*
X179484303Y-95516630D01*
X179522512Y-95648956D01*
X179548204Y-95764550D01*
X179549845Y-95773832D01*
X179551408Y-95784118D01*
X179552895Y-95796017D01*
X179554310Y-95810134D01*
X179555652Y-95827080D01*
X179556925Y-95847461D01*
X179558129Y-95871886D01*
X179559268Y-95900962D01*
X179560342Y-95935298D01*
X179561354Y-95975502D01*
X179562306Y-96022181D01*
X179563199Y-96075943D01*
X179564035Y-96137397D01*
X179564816Y-96207150D01*
X179565544Y-96285810D01*
X179566221Y-96373986D01*
X179566848Y-96472284D01*
X179567428Y-96581314D01*
X179567963Y-96701684D01*
X179568454Y-96834000D01*
X179568902Y-96978871D01*
X179569311Y-97136906D01*
X179569682Y-97308711D01*
X179570016Y-97494895D01*
X179570316Y-97696067D01*
X179570583Y-97912833D01*
X179570820Y-98145802D01*
X179571028Y-98395581D01*
X179571208Y-98662780D01*
X179571364Y-98948005D01*
X179571496Y-99251865D01*
X179571607Y-99574968D01*
X179571699Y-99917921D01*
X179571772Y-100281332D01*
X179571830Y-100665811D01*
X179571874Y-101071963D01*
X179571906Y-101500399D01*
X179571928Y-101951724D01*
X179571941Y-102426548D01*
X179571947Y-102925478D01*
X179571949Y-103449123D01*
X179571950Y-103517900D01*
X179571950Y-111144250D01*
X179542553Y-111277600D01*
X179482662Y-111494221D01*
X179402073Y-111696529D01*
X179301587Y-111883735D01*
X179182006Y-112055048D01*
X179044130Y-112209679D01*
X178888763Y-112346839D01*
X178716705Y-112465737D01*
X178528760Y-112565585D01*
X178325727Y-112645592D01*
X178108409Y-112704968D01*
X178089137Y-112709074D01*
X178084446Y-112709871D01*
X178077915Y-112710650D01*
X178069232Y-112711408D01*
X178058084Y-112712148D01*
X178044160Y-112712870D01*
X178027146Y-112713572D01*
X178006732Y-112714257D01*
X177982603Y-112714923D01*
X177954450Y-112715572D01*
X177921958Y-112716204D01*
X177884816Y-112716818D01*
X177842712Y-112717415D01*
X177795333Y-112717996D01*
X177742368Y-112718560D01*
X177683503Y-112719108D01*
X177618427Y-112719641D01*
X177546828Y-112720157D01*
X177468392Y-112720659D01*
X177382809Y-112721145D01*
X177289765Y-112721616D01*
X177188949Y-112722073D01*
X177080049Y-112722516D01*
X176962751Y-112722944D01*
X176836744Y-112723359D01*
X176701716Y-112723760D01*
X176557354Y-112724148D01*
X176403346Y-112724523D01*
X176239380Y-112724885D01*
X176065144Y-112725234D01*
X175880325Y-112725572D01*
X175684612Y-112725897D01*
X175477691Y-112726211D01*
X175259251Y-112726513D01*
X175028980Y-112726804D01*
X174786564Y-112727084D01*
X174531693Y-112727353D01*
X174264054Y-112727612D01*
X173983334Y-112727861D01*
X173689221Y-112728100D01*
X173381403Y-112728329D01*
X173059569Y-112728549D01*
X172723405Y-112728760D01*
X172372599Y-112728961D01*
X172006839Y-112729155D01*
X171625814Y-112729340D01*
X171229210Y-112729516D01*
X170816715Y-112729685D01*
X170388018Y-112729847D01*
X169942805Y-112730001D01*
X169480766Y-112730148D01*
X169001586Y-112730288D01*
X168504956Y-112730422D01*
X167990561Y-112730550D01*
X167458090Y-112730671D01*
X166907230Y-112730787D01*
X166337670Y-112730897D01*
X165749097Y-112731002D01*
X165141198Y-112731102D01*
X164513663Y-112731198D01*
X163866178Y-112731289D01*
X163198431Y-112731375D01*
X162510109Y-112731458D01*
X161800902Y-112731537D01*
X161070496Y-112731613D01*
X160318579Y-112731686D01*
X159544839Y-112731755D01*
X158748964Y-112731822D01*
X157930642Y-112731887D01*
X157089559Y-112731950D01*
X156225405Y-112732010D01*
X155337867Y-112732069D01*
X154426632Y-112732127D01*
X153491389Y-112732184D01*
X152531824Y-112732240D01*
X151547627Y-112732295D01*
X150538484Y-112732350D01*
X150069850Y-112732375D01*
X149226998Y-112732418D01*
X148390111Y-112732457D01*
X147559552Y-112732491D01*
X146735684Y-112732522D01*
X145918870Y-112732548D01*
X145109474Y-112732570D01*
X144307861Y-112732588D01*
X143514392Y-112732602D01*
X142729433Y-112732612D01*
X141953346Y-112732618D01*
X141186495Y-112732620D01*
X140429243Y-112732618D01*
X139681955Y-112732613D01*
X138944993Y-112732604D01*
X138218721Y-112732591D01*
X137503503Y-112732574D01*
X136799702Y-112732553D01*
X136107682Y-112732529D01*
X135427806Y-112732501D01*
X134760438Y-112732470D01*
X134105942Y-112732435D01*
X133464681Y-112732397D01*
X132837018Y-112732355D01*
X132223317Y-112732310D01*
X131623942Y-112732262D01*
X131039256Y-112732210D01*
X130469623Y-112732155D01*
X129915406Y-112732096D01*
X129376969Y-112732035D01*
X128854676Y-112731970D01*
X128348889Y-112731902D01*
X127859973Y-112731831D01*
X127388290Y-112731756D01*
X126934206Y-112731679D01*
X126498082Y-112731599D01*
X126080283Y-112731516D01*
X125681172Y-112731430D01*
X125301113Y-112731341D01*
X124940470Y-112731249D01*
X124599605Y-112731154D01*
X124278882Y-112731057D01*
X123978666Y-112730956D01*
X123699319Y-112730853D01*
X123441205Y-112730748D01*
X123204688Y-112730640D01*
X122990131Y-112730529D01*
X122797897Y-112730415D01*
X122628351Y-112730300D01*
X122481856Y-112730181D01*
X122358774Y-112730060D01*
X122259471Y-112729937D01*
X122184309Y-112729812D01*
X122133652Y-112729684D01*
X122107864Y-112729554D01*
X122104450Y-112729493D01*
X121929651Y-112705120D01*
X121751236Y-112662935D01*
X121578172Y-112605480D01*
X121419740Y-112535455D01*
X121276907Y-112454538D01*
X121144787Y-112361621D01*
X121016322Y-112251514D01*
X120961211Y-112198350D01*
X120820221Y-112040749D01*
X120700363Y-111869381D01*
X120601445Y-111683891D01*
X120523276Y-111483924D01*
X120469406Y-111286342D01*
X120440750Y-111156950D01*
X120440750Y-103511550D01*
X120440751Y-102983819D01*
X120440758Y-102480883D01*
X120440772Y-102002136D01*
X120440795Y-101546972D01*
X120440828Y-101114786D01*
X120440873Y-100704971D01*
X120440921Y-100389913D01*
X121033107Y-100389913D01*
X121033125Y-100865706D01*
X121033198Y-101366417D01*
X121033324Y-101892145D01*
X121033505Y-102442986D01*
X121033740Y-103019037D01*
X121034012Y-103587750D01*
X121037848Y-111106150D01*
X121065502Y-111207750D01*
X121088866Y-111287961D01*
X121112795Y-111355617D01*
X121141919Y-111422675D01*
X121173715Y-111487150D01*
X121260954Y-111630575D01*
X121367925Y-111759661D01*
X121492281Y-111872629D01*
X121631675Y-111967697D01*
X121783760Y-112043086D01*
X121946191Y-112097016D01*
X121991722Y-112107711D01*
X121996996Y-112108400D01*
X122006510Y-112109073D01*
X122020566Y-112109728D01*
X122039469Y-112110367D01*
X122063520Y-112110989D01*
X122093024Y-112111595D01*
X122128283Y-112112184D01*
X122169600Y-112112758D01*
X122217278Y-112113315D01*
X122271621Y-112113857D01*
X122332931Y-112114383D01*
X122401511Y-112114894D01*
X122477665Y-112115389D01*
X122561696Y-112115870D01*
X122653906Y-112116336D01*
X122754598Y-112116787D01*
X122864077Y-112117224D01*
X122982644Y-112117646D01*
X123110603Y-112118054D01*
X123248256Y-112118449D01*
X123395908Y-112118829D01*
X123553861Y-112119196D01*
X123722417Y-112119550D01*
X123901881Y-112119890D01*
X124092555Y-112120218D01*
X124294742Y-112120532D01*
X124508745Y-112120834D01*
X124734868Y-112121123D01*
X124973413Y-112121400D01*
X125224684Y-112121665D01*
X125488983Y-112121918D01*
X125766613Y-112122159D01*
X126057878Y-112122389D01*
X126363081Y-112122607D01*
X126682524Y-112122814D01*
X127016511Y-112123009D01*
X127365345Y-112123194D01*
X127729329Y-112123368D01*
X128108766Y-112123532D01*
X128503959Y-112123685D01*
X128915211Y-112123829D01*
X129342825Y-112123962D01*
X129787104Y-112124085D01*
X130248351Y-112124199D01*
X130726869Y-112124303D01*
X131222962Y-112124398D01*
X131736932Y-112124484D01*
X132269083Y-112124561D01*
X132819717Y-112124629D01*
X133389138Y-112124689D01*
X133977648Y-112124740D01*
X134585551Y-112124783D01*
X135213149Y-112124818D01*
X135860747Y-112124846D01*
X136528646Y-112124865D01*
X137217150Y-112124877D01*
X137926562Y-112124882D01*
X138657185Y-112124880D01*
X139409322Y-112124871D01*
X140183276Y-112124855D01*
X140979350Y-112124832D01*
X141797847Y-112124803D01*
X142639071Y-112124768D01*
X143503324Y-112124727D01*
X144390909Y-112124680D01*
X145302130Y-112124627D01*
X146237289Y-112124568D01*
X147196690Y-112124505D01*
X148180636Y-112124436D01*
X149189429Y-112124362D01*
X150038100Y-112124298D01*
X177997150Y-112122150D01*
X178091545Y-112092887D01*
X178263635Y-112027206D01*
X178419615Y-111942312D01*
X178558614Y-111839166D01*
X178679760Y-111718727D01*
X178782181Y-111581956D01*
X178865007Y-111429813D01*
X178927364Y-111263257D01*
X178958511Y-111137900D01*
X178959691Y-111128167D01*
X178960817Y-111110667D01*
X178961889Y-111084854D01*
X178962909Y-111050188D01*
X178963878Y-111006123D01*
X178964797Y-110952117D01*
X178965667Y-110887628D01*
X178966490Y-110812111D01*
X178967266Y-110725024D01*
X178967998Y-110625824D01*
X178968685Y-110513967D01*
X178969329Y-110388911D01*
X178969932Y-110250112D01*
X178970494Y-110097026D01*
X178971017Y-109929112D01*
X178971502Y-109745826D01*
X178971950Y-109546624D01*
X178972362Y-109330964D01*
X178972739Y-109098302D01*
X178973083Y-108848096D01*
X178973395Y-108579802D01*
X178973675Y-108292877D01*
X178973926Y-107986778D01*
X178974148Y-107660962D01*
X178974343Y-107314885D01*
X178974511Y-106948005D01*
X178974654Y-106559778D01*
X178974772Y-106149662D01*
X178974869Y-105717113D01*
X178974943Y-105261588D01*
X178974997Y-104782543D01*
X178975031Y-104279437D01*
X178975048Y-103751725D01*
X178975050Y-103498850D01*
X178975048Y-102974315D01*
X178975041Y-102474573D01*
X178975027Y-101999012D01*
X178975004Y-101547025D01*
X178974971Y-101118003D01*
X178974926Y-100711336D01*
X178974866Y-100326416D01*
X178974790Y-99962635D01*
X178974697Y-99619383D01*
X178974583Y-99296051D01*
X178974448Y-98992031D01*
X178974289Y-98706714D01*
X178974106Y-98439490D01*
X178973894Y-98189752D01*
X178973654Y-97956890D01*
X178973384Y-97740296D01*
X178973080Y-97539360D01*
X178972742Y-97353474D01*
X178972367Y-97182028D01*
X178971955Y-97024415D01*
X178971502Y-96880025D01*
X178971007Y-96748250D01*
X178970469Y-96628480D01*
X178969885Y-96520107D01*
X178969253Y-96422521D01*
X178968572Y-96335115D01*
X178967840Y-96257279D01*
X178967055Y-96188404D01*
X178966216Y-96127882D01*
X178965319Y-96075104D01*
X178964364Y-96029460D01*
X178963349Y-95990343D01*
X178962272Y-95957143D01*
X178961130Y-95929251D01*
X178959923Y-95906058D01*
X178958647Y-95886957D01*
X178957303Y-95871337D01*
X178955887Y-95858590D01*
X178954397Y-95848107D01*
X178952833Y-95839280D01*
X178951830Y-95834400D01*
X178902800Y-95665563D01*
X178830822Y-95507476D01*
X178736332Y-95360962D01*
X178646352Y-95254258D01*
X178518505Y-95135728D01*
X178378160Y-95038776D01*
X178223931Y-94962594D01*
X178054432Y-94906375D01*
X178045083Y-94903960D01*
X177933650Y-94875550D01*
X148992294Y-94875550D01*
X147996975Y-94875552D01*
X147026432Y-94875556D01*
X146080352Y-94875561D01*
X145158421Y-94875569D01*
X144260329Y-94875579D01*
X143385762Y-94875592D01*
X142534407Y-94875608D01*
X141705954Y-94875626D01*
X140900088Y-94875649D01*
X140116497Y-94875674D01*
X139354870Y-94875704D01*
X138614894Y-94875738D01*
X137896255Y-94875776D01*
X137198643Y-94875819D01*
X136521743Y-94875866D01*
X135865245Y-94875919D01*
X135228835Y-94875977D01*
X134612201Y-94876041D01*
X134015031Y-94876110D01*
X133437011Y-94876186D01*
X132877830Y-94876268D01*
X132337176Y-94876356D01*
X131814735Y-94876451D01*
X131310196Y-94876554D01*
X130823245Y-94876663D01*
X130353571Y-94876781D01*
X129900861Y-94876906D01*
X129464802Y-94877039D01*
X129045082Y-94877180D01*
X128641389Y-94877330D01*
X128253411Y-94877489D01*
X127880834Y-94877657D01*
X127523346Y-94877834D01*
X127180635Y-94878020D01*
X126852389Y-94878217D01*
X126538294Y-94878423D01*
X126238039Y-94878640D01*
X125951311Y-94878867D01*
X125677798Y-94879105D01*
X125417187Y-94879354D01*
X125169165Y-94879614D01*
X124933421Y-94879886D01*
X124709642Y-94880169D01*
X124497515Y-94880465D01*
X124296728Y-94880773D01*
X124106969Y-94881093D01*
X123927925Y-94881426D01*
X123759283Y-94881772D01*
X123600732Y-94882131D01*
X123451958Y-94882503D01*
X123312649Y-94882890D01*
X123182494Y-94883290D01*
X123061178Y-94883704D01*
X122948391Y-94884133D01*
X122843819Y-94884577D01*
X122747150Y-94885036D01*
X122658072Y-94885509D01*
X122576272Y-94885999D01*
X122501438Y-94886503D01*
X122433257Y-94887024D01*
X122371417Y-94887561D01*
X122315605Y-94888115D01*
X122265509Y-94888685D01*
X122220817Y-94889272D01*
X122181215Y-94889876D01*
X122146393Y-94890498D01*
X122116036Y-94891137D01*
X122089833Y-94891794D01*
X122067472Y-94892469D01*
X122048639Y-94893163D01*
X122033023Y-94893875D01*
X122020310Y-94894607D01*
X122010189Y-94895357D01*
X122002347Y-94896127D01*
X121996472Y-94896916D01*
X121992690Y-94897625D01*
X121826746Y-94945999D01*
X121674168Y-95014732D01*
X121532554Y-95105183D01*
X121399501Y-95218711D01*
X121365931Y-95252261D01*
X121257230Y-95381001D01*
X121170561Y-95520954D01*
X121105361Y-95673344D01*
X121061067Y-95839398D01*
X121043242Y-95955050D01*
X121042206Y-95975867D01*
X121041226Y-96019755D01*
X121040302Y-96086811D01*
X121039435Y-96177132D01*
X121038624Y-96290816D01*
X121037869Y-96427959D01*
X121037170Y-96588659D01*
X121036527Y-96773014D01*
X121035940Y-96981120D01*
X121035408Y-97213075D01*
X121034932Y-97468976D01*
X121034511Y-97748920D01*
X121034146Y-98053005D01*
X121033836Y-98381327D01*
X121033580Y-98733985D01*
X121033380Y-99111076D01*
X121033234Y-99512695D01*
X121033143Y-99938942D01*
X121033107Y-100389913D01*
X120440921Y-100389913D01*
X120440933Y-100316924D01*
X120441008Y-99950037D01*
X120441101Y-99603706D01*
X120441214Y-99277325D01*
X120441347Y-98970288D01*
X120441504Y-98681990D01*
X120441686Y-98411825D01*
X120441895Y-98159187D01*
X120442132Y-97923472D01*
X120442400Y-97704073D01*
X120442700Y-97500385D01*
X120443033Y-97311802D01*
X120443403Y-97137718D01*
X120443810Y-96977529D01*
X120444256Y-96830629D01*
X120444744Y-96696411D01*
X120445274Y-96574271D01*
X120445850Y-96463603D01*
X120446472Y-96363801D01*
X120447142Y-96274260D01*
X120447863Y-96194374D01*
X120448636Y-96123537D01*
X120449462Y-96061145D01*
X120450344Y-96006591D01*
X120451284Y-95959270D01*
X120452283Y-95918576D01*
X120453343Y-95883903D01*
X120454466Y-95854647D01*
X120455653Y-95830202D01*
X120456907Y-95809961D01*
X120458229Y-95793320D01*
X120459622Y-95779673D01*
X120461086Y-95768414D01*
X120462624Y-95758938D01*
X120463893Y-95752310D01*
X120519793Y-95536627D01*
X120596979Y-95334723D01*
X120695404Y-95146692D01*
X120815019Y-94972625D01*
X120933748Y-94835266D01*
X121090686Y-94688693D01*
X121260898Y-94563555D01*
X121444826Y-94459607D01*
X121642913Y-94376604D01*
X121855603Y-94314299D01*
X121886157Y-94307306D01*
X122015550Y-94278650D01*
X177997150Y-94278650D01*
X178126542Y-94307306D01*
X178126542Y-94307306D01*
G37*
X178126542Y-94307306D02*
X178339748Y-94366845D01*
X178540264Y-94447836D01*
X178727051Y-94549480D01*
X178899070Y-94670975D01*
X179055281Y-94811523D01*
X179194647Y-94970323D01*
X179316127Y-95146575D01*
X179390168Y-95280309D01*
X179439147Y-95390558D01*
X179484303Y-95516630D01*
X179522512Y-95648956D01*
X179548204Y-95764550D01*
X179549845Y-95773832D01*
X179551408Y-95784118D01*
X179552895Y-95796017D01*
X179554310Y-95810134D01*
X179555652Y-95827080D01*
X179556925Y-95847461D01*
X179558129Y-95871886D01*
X179559268Y-95900962D01*
X179560342Y-95935298D01*
X179561354Y-95975502D01*
X179562306Y-96022181D01*
X179563199Y-96075943D01*
X179564035Y-96137397D01*
X179564816Y-96207150D01*
X179565544Y-96285810D01*
X179566221Y-96373986D01*
X179566848Y-96472284D01*
X179567428Y-96581314D01*
X179567963Y-96701684D01*
X179568454Y-96834000D01*
X179568902Y-96978871D01*
X179569311Y-97136906D01*
X179569682Y-97308711D01*
X179570016Y-97494895D01*
X179570316Y-97696067D01*
X179570583Y-97912833D01*
X179570820Y-98145802D01*
X179571028Y-98395581D01*
X179571208Y-98662780D01*
X179571364Y-98948005D01*
X179571496Y-99251865D01*
X179571607Y-99574968D01*
X179571699Y-99917921D01*
X179571772Y-100281332D01*
X179571830Y-100665811D01*
X179571874Y-101071963D01*
X179571906Y-101500399D01*
X179571928Y-101951724D01*
X179571941Y-102426548D01*
X179571947Y-102925478D01*
X179571949Y-103449123D01*
X179571950Y-103517900D01*
X179571950Y-111144250D01*
X179542553Y-111277600D01*
X179482662Y-111494221D01*
X179402073Y-111696529D01*
X179301587Y-111883735D01*
X179182006Y-112055048D01*
X179044130Y-112209679D01*
X178888763Y-112346839D01*
X178716705Y-112465737D01*
X178528760Y-112565585D01*
X178325727Y-112645592D01*
X178108409Y-112704968D01*
X178089137Y-112709074D01*
X178084446Y-112709871D01*
X178077915Y-112710650D01*
X178069232Y-112711408D01*
X178058084Y-112712148D01*
X178044160Y-112712870D01*
X178027146Y-112713572D01*
X178006732Y-112714257D01*
X177982603Y-112714923D01*
X177954450Y-112715572D01*
X177921958Y-112716204D01*
X177884816Y-112716818D01*
X177842712Y-112717415D01*
X177795333Y-112717996D01*
X177742368Y-112718560D01*
X177683503Y-112719108D01*
X177618427Y-112719641D01*
X177546828Y-112720157D01*
X177468392Y-112720659D01*
X177382809Y-112721145D01*
X177289765Y-112721616D01*
X177188949Y-112722073D01*
X177080049Y-112722516D01*
X176962751Y-112722944D01*
X176836744Y-112723359D01*
X176701716Y-112723760D01*
X176557354Y-112724148D01*
X176403346Y-112724523D01*
X176239380Y-112724885D01*
X176065144Y-112725234D01*
X175880325Y-112725572D01*
X175684612Y-112725897D01*
X175477691Y-112726211D01*
X175259251Y-112726513D01*
X175028980Y-112726804D01*
X174786564Y-112727084D01*
X174531693Y-112727353D01*
X174264054Y-112727612D01*
X173983334Y-112727861D01*
X173689221Y-112728100D01*
X173381403Y-112728329D01*
X173059569Y-112728549D01*
X172723405Y-112728760D01*
X172372599Y-112728961D01*
X172006839Y-112729155D01*
X171625814Y-112729340D01*
X171229210Y-112729516D01*
X170816715Y-112729685D01*
X170388018Y-112729847D01*
X169942805Y-112730001D01*
X169480766Y-112730148D01*
X169001586Y-112730288D01*
X168504956Y-112730422D01*
X167990561Y-112730550D01*
X167458090Y-112730671D01*
X166907230Y-112730787D01*
X166337670Y-112730897D01*
X165749097Y-112731002D01*
X165141198Y-112731102D01*
X164513663Y-112731198D01*
X163866178Y-112731289D01*
X163198431Y-112731375D01*
X162510109Y-112731458D01*
X161800902Y-112731537D01*
X161070496Y-112731613D01*
X160318579Y-112731686D01*
X159544839Y-112731755D01*
X158748964Y-112731822D01*
X157930642Y-112731887D01*
X157089559Y-112731950D01*
X156225405Y-112732010D01*
X155337867Y-112732069D01*
X154426632Y-112732127D01*
X153491389Y-112732184D01*
X152531824Y-112732240D01*
X151547627Y-112732295D01*
X150538484Y-112732350D01*
X150069850Y-112732375D01*
X149226998Y-112732418D01*
X148390111Y-112732457D01*
X147559552Y-112732491D01*
X146735684Y-112732522D01*
X145918870Y-112732548D01*
X145109474Y-112732570D01*
X144307861Y-112732588D01*
X143514392Y-112732602D01*
X142729433Y-112732612D01*
X141953346Y-112732618D01*
X141186495Y-112732620D01*
X140429243Y-112732618D01*
X139681955Y-112732613D01*
X138944993Y-112732604D01*
X138218721Y-112732591D01*
X137503503Y-112732574D01*
X136799702Y-112732553D01*
X136107682Y-112732529D01*
X135427806Y-112732501D01*
X134760438Y-112732470D01*
X134105942Y-112732435D01*
X133464681Y-112732397D01*
X132837018Y-112732355D01*
X132223317Y-112732310D01*
X131623942Y-112732262D01*
X131039256Y-112732210D01*
X130469623Y-112732155D01*
X129915406Y-112732096D01*
X129376969Y-112732035D01*
X128854676Y-112731970D01*
X128348889Y-112731902D01*
X127859973Y-112731831D01*
X127388290Y-112731756D01*
X126934206Y-112731679D01*
X126498082Y-112731599D01*
X126080283Y-112731516D01*
X125681172Y-112731430D01*
X125301113Y-112731341D01*
X124940470Y-112731249D01*
X124599605Y-112731154D01*
X124278882Y-112731057D01*
X123978666Y-112730956D01*
X123699319Y-112730853D01*
X123441205Y-112730748D01*
X123204688Y-112730640D01*
X122990131Y-112730529D01*
X122797897Y-112730415D01*
X122628351Y-112730300D01*
X122481856Y-112730181D01*
X122358774Y-112730060D01*
X122259471Y-112729937D01*
X122184309Y-112729812D01*
X122133652Y-112729684D01*
X122107864Y-112729554D01*
X122104450Y-112729493D01*
X121929651Y-112705120D01*
X121751236Y-112662935D01*
X121578172Y-112605480D01*
X121419740Y-112535455D01*
X121276907Y-112454538D01*
X121144787Y-112361621D01*
X121016322Y-112251514D01*
X120961211Y-112198350D01*
X120820221Y-112040749D01*
X120700363Y-111869381D01*
X120601445Y-111683891D01*
X120523276Y-111483924D01*
X120469406Y-111286342D01*
X120440750Y-111156950D01*
X120440750Y-103511550D01*
X120440751Y-102983819D01*
X120440758Y-102480883D01*
X120440772Y-102002136D01*
X120440795Y-101546972D01*
X120440828Y-101114786D01*
X120440873Y-100704971D01*
X120440921Y-100389913D01*
X121033107Y-100389913D01*
X121033125Y-100865706D01*
X121033198Y-101366417D01*
X121033324Y-101892145D01*
X121033505Y-102442986D01*
X121033740Y-103019037D01*
X121034012Y-103587750D01*
X121037848Y-111106150D01*
X121065502Y-111207750D01*
X121088866Y-111287961D01*
X121112795Y-111355617D01*
X121141919Y-111422675D01*
X121173715Y-111487150D01*
X121260954Y-111630575D01*
X121367925Y-111759661D01*
X121492281Y-111872629D01*
X121631675Y-111967697D01*
X121783760Y-112043086D01*
X121946191Y-112097016D01*
X121991722Y-112107711D01*
X121996996Y-112108400D01*
X122006510Y-112109073D01*
X122020566Y-112109728D01*
X122039469Y-112110367D01*
X122063520Y-112110989D01*
X122093024Y-112111595D01*
X122128283Y-112112184D01*
X122169600Y-112112758D01*
X122217278Y-112113315D01*
X122271621Y-112113857D01*
X122332931Y-112114383D01*
X122401511Y-112114894D01*
X122477665Y-112115389D01*
X122561696Y-112115870D01*
X122653906Y-112116336D01*
X122754598Y-112116787D01*
X122864077Y-112117224D01*
X122982644Y-112117646D01*
X123110603Y-112118054D01*
X123248256Y-112118449D01*
X123395908Y-112118829D01*
X123553861Y-112119196D01*
X123722417Y-112119550D01*
X123901881Y-112119890D01*
X124092555Y-112120218D01*
X124294742Y-112120532D01*
X124508745Y-112120834D01*
X124734868Y-112121123D01*
X124973413Y-112121400D01*
X125224684Y-112121665D01*
X125488983Y-112121918D01*
X125766613Y-112122159D01*
X126057878Y-112122389D01*
X126363081Y-112122607D01*
X126682524Y-112122814D01*
X127016511Y-112123009D01*
X127365345Y-112123194D01*
X127729329Y-112123368D01*
X128108766Y-112123532D01*
X128503959Y-112123685D01*
X128915211Y-112123829D01*
X129342825Y-112123962D01*
X129787104Y-112124085D01*
X130248351Y-112124199D01*
X130726869Y-112124303D01*
X131222962Y-112124398D01*
X131736932Y-112124484D01*
X132269083Y-112124561D01*
X132819717Y-112124629D01*
X133389138Y-112124689D01*
X133977648Y-112124740D01*
X134585551Y-112124783D01*
X135213149Y-112124818D01*
X135860747Y-112124846D01*
X136528646Y-112124865D01*
X137217150Y-112124877D01*
X137926562Y-112124882D01*
X138657185Y-112124880D01*
X139409322Y-112124871D01*
X140183276Y-112124855D01*
X140979350Y-112124832D01*
X141797847Y-112124803D01*
X142639071Y-112124768D01*
X143503324Y-112124727D01*
X144390909Y-112124680D01*
X145302130Y-112124627D01*
X146237289Y-112124568D01*
X147196690Y-112124505D01*
X148180636Y-112124436D01*
X149189429Y-112124362D01*
X150038100Y-112124298D01*
X177997150Y-112122150D01*
X178091545Y-112092887D01*
X178263635Y-112027206D01*
X178419615Y-111942312D01*
X178558614Y-111839166D01*
X178679760Y-111718727D01*
X178782181Y-111581956D01*
X178865007Y-111429813D01*
X178927364Y-111263257D01*
X178958511Y-111137900D01*
X178959691Y-111128167D01*
X178960817Y-111110667D01*
X178961889Y-111084854D01*
X178962909Y-111050188D01*
X178963878Y-111006123D01*
X178964797Y-110952117D01*
X178965667Y-110887628D01*
X178966490Y-110812111D01*
X178967266Y-110725024D01*
X178967998Y-110625824D01*
X178968685Y-110513967D01*
X178969329Y-110388911D01*
X178969932Y-110250112D01*
X178970494Y-110097026D01*
X178971017Y-109929112D01*
X178971502Y-109745826D01*
X178971950Y-109546624D01*
X178972362Y-109330964D01*
X178972739Y-109098302D01*
X178973083Y-108848096D01*
X178973395Y-108579802D01*
X178973675Y-108292877D01*
X178973926Y-107986778D01*
X178974148Y-107660962D01*
X178974343Y-107314885D01*
X178974511Y-106948005D01*
X178974654Y-106559778D01*
X178974772Y-106149662D01*
X178974869Y-105717113D01*
X178974943Y-105261588D01*
X178974997Y-104782543D01*
X178975031Y-104279437D01*
X178975048Y-103751725D01*
X178975050Y-103498850D01*
X178975048Y-102974315D01*
X178975041Y-102474573D01*
X178975027Y-101999012D01*
X178975004Y-101547025D01*
X178974971Y-101118003D01*
X178974926Y-100711336D01*
X178974866Y-100326416D01*
X178974790Y-99962635D01*
X178974697Y-99619383D01*
X178974583Y-99296051D01*
X178974448Y-98992031D01*
X178974289Y-98706714D01*
X178974106Y-98439490D01*
X178973894Y-98189752D01*
X178973654Y-97956890D01*
X178973384Y-97740296D01*
X178973080Y-97539360D01*
X178972742Y-97353474D01*
X178972367Y-97182028D01*
X178971955Y-97024415D01*
X178971502Y-96880025D01*
X178971007Y-96748250D01*
X178970469Y-96628480D01*
X178969885Y-96520107D01*
X178969253Y-96422521D01*
X178968572Y-96335115D01*
X178967840Y-96257279D01*
X178967055Y-96188404D01*
X178966216Y-96127882D01*
X178965319Y-96075104D01*
X178964364Y-96029460D01*
X178963349Y-95990343D01*
X178962272Y-95957143D01*
X178961130Y-95929251D01*
X178959923Y-95906058D01*
X178958647Y-95886957D01*
X178957303Y-95871337D01*
X178955887Y-95858590D01*
X178954397Y-95848107D01*
X178952833Y-95839280D01*
X178951830Y-95834400D01*
X178902800Y-95665563D01*
X178830822Y-95507476D01*
X178736332Y-95360962D01*
X178646352Y-95254258D01*
X178518505Y-95135728D01*
X178378160Y-95038776D01*
X178223931Y-94962594D01*
X178054432Y-94906375D01*
X178045083Y-94903960D01*
X177933650Y-94875550D01*
X148992294Y-94875550D01*
X147996975Y-94875552D01*
X147026432Y-94875556D01*
X146080352Y-94875561D01*
X145158421Y-94875569D01*
X144260329Y-94875579D01*
X143385762Y-94875592D01*
X142534407Y-94875608D01*
X141705954Y-94875626D01*
X140900088Y-94875649D01*
X140116497Y-94875674D01*
X139354870Y-94875704D01*
X138614894Y-94875738D01*
X137896255Y-94875776D01*
X137198643Y-94875819D01*
X136521743Y-94875866D01*
X135865245Y-94875919D01*
X135228835Y-94875977D01*
X134612201Y-94876041D01*
X134015031Y-94876110D01*
X133437011Y-94876186D01*
X132877830Y-94876268D01*
X132337176Y-94876356D01*
X131814735Y-94876451D01*
X131310196Y-94876554D01*
X130823245Y-94876663D01*
X130353571Y-94876781D01*
X129900861Y-94876906D01*
X129464802Y-94877039D01*
X129045082Y-94877180D01*
X128641389Y-94877330D01*
X128253411Y-94877489D01*
X127880834Y-94877657D01*
X127523346Y-94877834D01*
X127180635Y-94878020D01*
X126852389Y-94878217D01*
X126538294Y-94878423D01*
X126238039Y-94878640D01*
X125951311Y-94878867D01*
X125677798Y-94879105D01*
X125417187Y-94879354D01*
X125169165Y-94879614D01*
X124933421Y-94879886D01*
X124709642Y-94880169D01*
X124497515Y-94880465D01*
X124296728Y-94880773D01*
X124106969Y-94881093D01*
X123927925Y-94881426D01*
X123759283Y-94881772D01*
X123600732Y-94882131D01*
X123451958Y-94882503D01*
X123312649Y-94882890D01*
X123182494Y-94883290D01*
X123061178Y-94883704D01*
X122948391Y-94884133D01*
X122843819Y-94884577D01*
X122747150Y-94885036D01*
X122658072Y-94885509D01*
X122576272Y-94885999D01*
X122501438Y-94886503D01*
X122433257Y-94887024D01*
X122371417Y-94887561D01*
X122315605Y-94888115D01*
X122265509Y-94888685D01*
X122220817Y-94889272D01*
X122181215Y-94889876D01*
X122146393Y-94890498D01*
X122116036Y-94891137D01*
X122089833Y-94891794D01*
X122067472Y-94892469D01*
X122048639Y-94893163D01*
X122033023Y-94893875D01*
X122020310Y-94894607D01*
X122010189Y-94895357D01*
X122002347Y-94896127D01*
X121996472Y-94896916D01*
X121992690Y-94897625D01*
X121826746Y-94945999D01*
X121674168Y-95014732D01*
X121532554Y-95105183D01*
X121399501Y-95218711D01*
X121365931Y-95252261D01*
X121257230Y-95381001D01*
X121170561Y-95520954D01*
X121105361Y-95673344D01*
X121061067Y-95839398D01*
X121043242Y-95955050D01*
X121042206Y-95975867D01*
X121041226Y-96019755D01*
X121040302Y-96086811D01*
X121039435Y-96177132D01*
X121038624Y-96290816D01*
X121037869Y-96427959D01*
X121037170Y-96588659D01*
X121036527Y-96773014D01*
X121035940Y-96981120D01*
X121035408Y-97213075D01*
X121034932Y-97468976D01*
X121034511Y-97748920D01*
X121034146Y-98053005D01*
X121033836Y-98381327D01*
X121033580Y-98733985D01*
X121033380Y-99111076D01*
X121033234Y-99512695D01*
X121033143Y-99938942D01*
X121033107Y-100389913D01*
X120440921Y-100389913D01*
X120440933Y-100316924D01*
X120441008Y-99950037D01*
X120441101Y-99603706D01*
X120441214Y-99277325D01*
X120441347Y-98970288D01*
X120441504Y-98681990D01*
X120441686Y-98411825D01*
X120441895Y-98159187D01*
X120442132Y-97923472D01*
X120442400Y-97704073D01*
X120442700Y-97500385D01*
X120443033Y-97311802D01*
X120443403Y-97137718D01*
X120443810Y-96977529D01*
X120444256Y-96830629D01*
X120444744Y-96696411D01*
X120445274Y-96574271D01*
X120445850Y-96463603D01*
X120446472Y-96363801D01*
X120447142Y-96274260D01*
X120447863Y-96194374D01*
X120448636Y-96123537D01*
X120449462Y-96061145D01*
X120450344Y-96006591D01*
X120451284Y-95959270D01*
X120452283Y-95918576D01*
X120453343Y-95883903D01*
X120454466Y-95854647D01*
X120455653Y-95830202D01*
X120456907Y-95809961D01*
X120458229Y-95793320D01*
X120459622Y-95779673D01*
X120461086Y-95768414D01*
X120462624Y-95758938D01*
X120463893Y-95752310D01*
X120519793Y-95536627D01*
X120596979Y-95334723D01*
X120695404Y-95146692D01*
X120815019Y-94972625D01*
X120933748Y-94835266D01*
X121090686Y-94688693D01*
X121260898Y-94563555D01*
X121444826Y-94459607D01*
X121642913Y-94376604D01*
X121855603Y-94314299D01*
X121886157Y-94307306D01*
X122015550Y-94278650D01*
X177997150Y-94278650D01*
X178126542Y-94307306D01*
G36*
X193141866Y-111306175D02*
G01*
X193141439Y-111392874D01*
X193141191Y-111490875D01*
X193141142Y-111587468D01*
X193141283Y-111661775D01*
X193141900Y-111836400D01*
X193827700Y-111836400D01*
X193827700Y-112204700D01*
X193141900Y-112204700D01*
X193141900Y-112915900D01*
X192773600Y-112915900D01*
X192773600Y-112204700D01*
X192062400Y-112204700D01*
X192062400Y-111836400D01*
X192773600Y-111836400D01*
X192774216Y-111661775D01*
X192774362Y-111577077D01*
X192774290Y-111479691D01*
X192774020Y-111382327D01*
X192773633Y-111306175D01*
X192772432Y-111125200D01*
X193143067Y-111125200D01*
X193141866Y-111306175D01*
X193141866Y-111306175D01*
G37*
X193141866Y-111306175D02*
X193141439Y-111392874D01*
X193141191Y-111490875D01*
X193141142Y-111587468D01*
X193141283Y-111661775D01*
X193141900Y-111836400D01*
X193827700Y-111836400D01*
X193827700Y-112204700D01*
X193141900Y-112204700D01*
X193141900Y-112915900D01*
X192773600Y-112915900D01*
X192773600Y-112204700D01*
X192062400Y-112204700D01*
X192062400Y-111836400D01*
X192773600Y-111836400D01*
X192774216Y-111661775D01*
X192774362Y-111577077D01*
X192774290Y-111479691D01*
X192774020Y-111382327D01*
X192773633Y-111306175D01*
X192772432Y-111125200D01*
X193143067Y-111125200D01*
X193141866Y-111306175D01*
G36*
X107188300Y-111836004D02*
G01*
X107905850Y-111842750D01*
X107909373Y-112023725D01*
X107912897Y-112204700D01*
X107188300Y-112204700D01*
X107188300Y-112915900D01*
X106832700Y-112915900D01*
X106832700Y-112204700D01*
X106146900Y-112204700D01*
X106146900Y-111836400D01*
X106832700Y-111836400D01*
X106832700Y-111125200D01*
X107188300Y-111125200D01*
X107188300Y-111836004D01*
X107188300Y-111836004D01*
G37*
X107188300Y-111836004D02*
X107905850Y-111842750D01*
X107909373Y-112023725D01*
X107912897Y-112204700D01*
X107188300Y-112204700D01*
X107188300Y-112915900D01*
X106832700Y-112915900D01*
X106832700Y-112204700D01*
X106146900Y-112204700D01*
X106146900Y-111836400D01*
X106832700Y-111836400D01*
X106832700Y-111125200D01*
X107188300Y-111125200D01*
X107188300Y-111836004D01*
G36*
X193764200Y-114643100D02*
G01*
X191998900Y-114643100D01*
X191998900Y-114287500D01*
X193764200Y-114287500D01*
X193764200Y-114643100D01*
X193764200Y-114643100D01*
G37*
X193764200Y-114643100D02*
X191998900Y-114643100D01*
X191998900Y-114287500D01*
X193764200Y-114287500D01*
X193764200Y-114643100D01*
G36*
X107975700Y-114643100D02*
G01*
X106210400Y-114643100D01*
X106210400Y-114287500D01*
X107975700Y-114287500D01*
X107975700Y-114643100D01*
X107975700Y-114643100D01*
G37*
X107975700Y-114643100D02*
X106210400Y-114643100D01*
X106210400Y-114287500D01*
X107975700Y-114287500D01*
X107975700Y-114643100D01*
G36*
X175984200Y-119240500D02*
G01*
X175463500Y-119240500D01*
X175463500Y-118719800D01*
X175984200Y-118719800D01*
X175984200Y-119240500D01*
X175984200Y-119240500D01*
G37*
X175984200Y-119240500D02*
X175463500Y-119240500D01*
X175463500Y-118719800D01*
X175984200Y-118719800D01*
X175984200Y-119240500D01*
G36*
X175463500Y-119761200D02*
G01*
X174942800Y-119761200D01*
X174942800Y-119240500D01*
X175463500Y-119240500D01*
X175463500Y-119761200D01*
X175463500Y-119761200D01*
G37*
X175463500Y-119761200D02*
X174942800Y-119761200D01*
X174942800Y-119240500D01*
X175463500Y-119240500D01*
X175463500Y-119761200D01*
G36*
X165875000Y-119240500D02*
G01*
X165354300Y-119240500D01*
X165354300Y-118719800D01*
X165875000Y-118719800D01*
X165875000Y-119240500D01*
X165875000Y-119240500D01*
G37*
X165875000Y-119240500D02*
X165354300Y-119240500D01*
X165354300Y-118719800D01*
X165875000Y-118719800D01*
X165875000Y-119240500D01*
G36*
X166395700Y-119761200D02*
G01*
X165875000Y-119761200D01*
X165875000Y-119240500D01*
X166395700Y-119240500D01*
X166395700Y-119761200D01*
X166395700Y-119761200D01*
G37*
X166395700Y-119761200D02*
X165875000Y-119761200D01*
X165875000Y-119240500D01*
X166395700Y-119240500D01*
X166395700Y-119761200D01*
G36*
X168157814Y-120805775D02*
G01*
X168160979Y-121323300D01*
X167627600Y-121323300D01*
X167627600Y-123939500D01*
X168160979Y-123939500D01*
X168157814Y-124457025D01*
X168154650Y-124974550D01*
X167899847Y-124977980D01*
X167821795Y-124978587D01*
X167752489Y-124978284D01*
X167695909Y-124977155D01*
X167656033Y-124975288D01*
X167636839Y-124972770D01*
X167635876Y-124972242D01*
X167633126Y-124957287D01*
X167630798Y-124920916D01*
X167629018Y-124867108D01*
X167627908Y-124799847D01*
X167627594Y-124723113D01*
X167627632Y-124708462D01*
X167627917Y-124606546D01*
X167628106Y-124490161D01*
X167628190Y-124370238D01*
X167628158Y-124257709D01*
X167628078Y-124196937D01*
X167627600Y-123940025D01*
X167370425Y-123936587D01*
X167113250Y-123933150D01*
X167113250Y-121329650D01*
X167370282Y-121326212D01*
X167627315Y-121322774D01*
X167630632Y-120805512D01*
X167633950Y-120288250D01*
X168154650Y-120288250D01*
X168157814Y-120805775D01*
X168157814Y-120805775D01*
G37*
X168157814Y-120805775D02*
X168160979Y-121323300D01*
X167627600Y-121323300D01*
X167627600Y-123939500D01*
X168160979Y-123939500D01*
X168157814Y-124457025D01*
X168154650Y-124974550D01*
X167899847Y-124977980D01*
X167821795Y-124978587D01*
X167752489Y-124978284D01*
X167695909Y-124977155D01*
X167656033Y-124975288D01*
X167636839Y-124972770D01*
X167635876Y-124972242D01*
X167633126Y-124957287D01*
X167630798Y-124920916D01*
X167629018Y-124867108D01*
X167627908Y-124799847D01*
X167627594Y-124723113D01*
X167627632Y-124708462D01*
X167627917Y-124606546D01*
X167628106Y-124490161D01*
X167628190Y-124370238D01*
X167628158Y-124257709D01*
X167628078Y-124196937D01*
X167627600Y-123940025D01*
X167370425Y-123936587D01*
X167113250Y-123933150D01*
X167113250Y-121329650D01*
X167370282Y-121326212D01*
X167627315Y-121322774D01*
X167630632Y-120805512D01*
X167633950Y-120288250D01*
X168154650Y-120288250D01*
X168157814Y-120805775D01*
G36*
X168158087Y-127327225D02*
G01*
X168161525Y-127584400D01*
X167627600Y-127584400D01*
X167627600Y-128105100D01*
X167106900Y-128105100D01*
X167106900Y-127584400D01*
X167627074Y-127584400D01*
X167633950Y-127070050D01*
X168154650Y-127070050D01*
X168158087Y-127327225D01*
X168158087Y-127327225D01*
G37*
X168158087Y-127327225D02*
X168161525Y-127584400D01*
X167627600Y-127584400D01*
X167627600Y-128105100D01*
X167106900Y-128105100D01*
X167106900Y-127584400D01*
X167627074Y-127584400D01*
X167633950Y-127070050D01*
X168154650Y-127070050D01*
X168158087Y-127327225D01*
G36*
X172326600Y-124460200D02*
G01*
X172326600Y-124980900D01*
X172847300Y-124980900D01*
X172847300Y-127063700D01*
X171285200Y-127063700D01*
X171285200Y-127584400D01*
X171805900Y-127584400D01*
X171805900Y-128105100D01*
X173368000Y-128105100D01*
X173368000Y-128625800D01*
X167627074Y-128625800D01*
X167633950Y-128111450D01*
X169202400Y-128104906D01*
X169202400Y-127584400D01*
X169723100Y-127584400D01*
X169723100Y-128105100D01*
X171285200Y-128105100D01*
X171285200Y-127584400D01*
X170764500Y-127584400D01*
X170764500Y-127063700D01*
X170243800Y-127063700D01*
X170243800Y-127584400D01*
X169723100Y-127584400D01*
X169723100Y-127063700D01*
X168161000Y-127063700D01*
X168161000Y-124980900D01*
X168681700Y-124980900D01*
X168681700Y-126543000D01*
X169723100Y-126543000D01*
X169723100Y-126022300D01*
X170243800Y-126022300D01*
X170243800Y-126543000D01*
X170764500Y-126543000D01*
X170764500Y-126022300D01*
X171285200Y-126022300D01*
X171285200Y-126543000D01*
X172326600Y-126543000D01*
X172326600Y-124980900D01*
X171805900Y-124980900D01*
X171805900Y-124460200D01*
X171285200Y-124460200D01*
X171285200Y-125501600D01*
X170764500Y-125501600D01*
X170764500Y-124460200D01*
X170243800Y-124460200D01*
X170243800Y-125501600D01*
X169723100Y-125501600D01*
X169723100Y-124460200D01*
X169202400Y-124460200D01*
X169202400Y-124980900D01*
X168681700Y-124980900D01*
X168681700Y-124460200D01*
X169202400Y-124460200D01*
X169202400Y-122364174D01*
X169716750Y-122371050D01*
X169720182Y-122634575D01*
X169723615Y-122898100D01*
X170243800Y-122898100D01*
X170243800Y-123418800D01*
X169723100Y-123418800D01*
X169723100Y-123939500D01*
X171285200Y-123939500D01*
X171285200Y-123418800D01*
X170764500Y-123418800D01*
X170764500Y-122898100D01*
X171285200Y-122898100D01*
X171285200Y-122364700D01*
X171805900Y-122364700D01*
X171805900Y-124460200D01*
X172326600Y-124460200D01*
X172326600Y-124460200D01*
G37*
X172326600Y-124460200D02*
X172326600Y-124980900D01*
X172847300Y-124980900D01*
X172847300Y-127063700D01*
X171285200Y-127063700D01*
X171285200Y-127584400D01*
X171805900Y-127584400D01*
X171805900Y-128105100D01*
X173368000Y-128105100D01*
X173368000Y-128625800D01*
X167627074Y-128625800D01*
X167633950Y-128111450D01*
X169202400Y-128104906D01*
X169202400Y-127584400D01*
X169723100Y-127584400D01*
X169723100Y-128105100D01*
X171285200Y-128105100D01*
X171285200Y-127584400D01*
X170764500Y-127584400D01*
X170764500Y-127063700D01*
X170243800Y-127063700D01*
X170243800Y-127584400D01*
X169723100Y-127584400D01*
X169723100Y-127063700D01*
X168161000Y-127063700D01*
X168161000Y-124980900D01*
X168681700Y-124980900D01*
X168681700Y-126543000D01*
X169723100Y-126543000D01*
X169723100Y-126022300D01*
X170243800Y-126022300D01*
X170243800Y-126543000D01*
X170764500Y-126543000D01*
X170764500Y-126022300D01*
X171285200Y-126022300D01*
X171285200Y-126543000D01*
X172326600Y-126543000D01*
X172326600Y-124980900D01*
X171805900Y-124980900D01*
X171805900Y-124460200D01*
X171285200Y-124460200D01*
X171285200Y-125501600D01*
X170764500Y-125501600D01*
X170764500Y-124460200D01*
X170243800Y-124460200D01*
X170243800Y-125501600D01*
X169723100Y-125501600D01*
X169723100Y-124460200D01*
X169202400Y-124460200D01*
X169202400Y-124980900D01*
X168681700Y-124980900D01*
X168681700Y-124460200D01*
X169202400Y-124460200D01*
X169202400Y-122364174D01*
X169716750Y-122371050D01*
X169720182Y-122634575D01*
X169723615Y-122898100D01*
X170243800Y-122898100D01*
X170243800Y-123418800D01*
X169723100Y-123418800D01*
X169723100Y-123939500D01*
X171285200Y-123939500D01*
X171285200Y-123418800D01*
X170764500Y-123418800D01*
X170764500Y-122898100D01*
X171285200Y-122898100D01*
X171285200Y-122364700D01*
X171805900Y-122364700D01*
X171805900Y-124460200D01*
X172326600Y-124460200D01*
G36*
X171805900Y-119761200D02*
G01*
X169202400Y-119761200D01*
X169202400Y-119240500D01*
X171805900Y-119240500D01*
X171805900Y-119761200D01*
X171805900Y-119761200D01*
G37*
X171805900Y-119761200D02*
X169202400Y-119761200D01*
X169202400Y-119240500D01*
X171805900Y-119240500D01*
X171805900Y-119761200D01*
G36*
X172847300Y-120281900D02*
G01*
X171805900Y-120281900D01*
X171805900Y-119761200D01*
X172847300Y-119761200D01*
X172847300Y-120281900D01*
X172847300Y-120281900D01*
G37*
X172847300Y-120281900D02*
X171805900Y-120281900D01*
X171805900Y-119761200D01*
X172847300Y-119761200D01*
X172847300Y-120281900D01*
G36*
X169202400Y-120281900D02*
G01*
X168161000Y-120281900D01*
X168161000Y-119761200D01*
X169202400Y-119761200D01*
X169202400Y-120281900D01*
X169202400Y-120281900D01*
G37*
X169202400Y-120281900D02*
X168161000Y-120281900D01*
X168161000Y-119761200D01*
X169202400Y-119761200D01*
X169202400Y-120281900D01*
G36*
X173368000Y-121844000D02*
G01*
X172847300Y-121844000D01*
X172847300Y-120281900D01*
X173368000Y-120281900D01*
X173368000Y-121844000D01*
X173368000Y-121844000D01*
G37*
X173368000Y-121844000D02*
X172847300Y-121844000D01*
X172847300Y-120281900D01*
X173368000Y-120281900D01*
X173368000Y-121844000D01*
G36*
X171285200Y-122364700D02*
G01*
X169723100Y-122364700D01*
X169723100Y-121844000D01*
X171285200Y-121844000D01*
X171285200Y-122364700D01*
X171285200Y-122364700D01*
G37*
X171285200Y-122364700D02*
X169723100Y-122364700D01*
X169723100Y-121844000D01*
X171285200Y-121844000D01*
X171285200Y-122364700D01*
G36*
X173888700Y-123939500D02*
G01*
X173368000Y-123939500D01*
X173368000Y-121844000D01*
X173888700Y-121844000D01*
X173888700Y-123939500D01*
X173888700Y-123939500D01*
G37*
X173888700Y-123939500D02*
X173368000Y-123939500D01*
X173368000Y-121844000D01*
X173888700Y-121844000D01*
X173888700Y-123939500D01*
G36*
X173368000Y-124980900D02*
G01*
X172847300Y-124980900D01*
X172847300Y-123939500D01*
X173368000Y-123939500D01*
X173368000Y-124980900D01*
X173368000Y-124980900D01*
G37*
X173368000Y-124980900D02*
X172847300Y-124980900D01*
X172847300Y-123939500D01*
X173368000Y-123939500D01*
X173368000Y-124980900D01*
G36*
X173368000Y-127584400D02*
G01*
X172847300Y-127584400D01*
X172847300Y-127063700D01*
X173368000Y-127063700D01*
X173368000Y-127584400D01*
X173368000Y-127584400D01*
G37*
X173368000Y-127584400D02*
X172847300Y-127584400D01*
X172847300Y-127063700D01*
X173368000Y-127063700D01*
X173368000Y-127584400D01*
G36*
X173888700Y-128105100D02*
G01*
X173368000Y-128105100D01*
X173368000Y-127584400D01*
X173888700Y-127584400D01*
X173888700Y-128105100D01*
X173888700Y-128105100D01*
G37*
X173888700Y-128105100D02*
X173368000Y-128105100D01*
X173368000Y-127584400D01*
X173888700Y-127584400D01*
X173888700Y-128105100D01*
G36*
X174809450Y-128505150D02*
G01*
X174809450Y-129025850D01*
X174552275Y-129029287D01*
X174295100Y-129032725D01*
X174295100Y-128498274D01*
X174809450Y-128505150D01*
X174809450Y-128505150D01*
G37*
X174809450Y-128505150D02*
X174809450Y-129025850D01*
X174552275Y-129029287D01*
X174295100Y-129032725D01*
X174295100Y-128498274D01*
X174809450Y-128505150D01*
G36*
X166713200Y-129032200D02*
G01*
X166458801Y-129032200D01*
X166367140Y-129031812D01*
X166298247Y-129030542D01*
X166249501Y-129028225D01*
X166218281Y-129024698D01*
X166201966Y-129019798D01*
X166198167Y-129015950D01*
X166196405Y-128998685D01*
X166195193Y-128960221D01*
X166194574Y-128904756D01*
X166194592Y-128836487D01*
X166195293Y-128759610D01*
X166195390Y-128752425D01*
X166198850Y-128505150D01*
X166713200Y-128498274D01*
X166713200Y-129032200D01*
X166713200Y-129032200D01*
G37*
X166713200Y-129032200D02*
X166458801Y-129032200D01*
X166367140Y-129031812D01*
X166298247Y-129030542D01*
X166249501Y-129028225D01*
X166218281Y-129024698D01*
X166201966Y-129019798D01*
X166198167Y-129015950D01*
X166196405Y-128998685D01*
X166195193Y-128960221D01*
X166194574Y-128904756D01*
X166194592Y-128836487D01*
X166195293Y-128759610D01*
X166195390Y-128752425D01*
X166198850Y-128505150D01*
X166713200Y-128498274D01*
X166713200Y-129032200D01*
G36*
X132982000Y-120777200D02*
G01*
X132982000Y-121297900D01*
X133502700Y-121297900D01*
X133502700Y-121805900D01*
X134010700Y-121805900D01*
X134010700Y-121297900D01*
X134531400Y-121297900D01*
X134531400Y-122326600D01*
X133312200Y-122326600D01*
X133312200Y-123876000D01*
X134010700Y-123876000D01*
X134010700Y-124383474D01*
X134525050Y-124390350D01*
X134525050Y-125419050D01*
X134267875Y-125422487D01*
X134010700Y-125425925D01*
X134010700Y-129540200D01*
X124739700Y-129540200D01*
X124739700Y-125425400D01*
X125247700Y-125425400D01*
X125247700Y-129032200D01*
X128003600Y-129032200D01*
X128003600Y-127482800D01*
X128524300Y-127482800D01*
X128524300Y-129032200D01*
X130581700Y-129032200D01*
X130581700Y-127482800D01*
X131102400Y-127482800D01*
X131102400Y-129032200D01*
X133502700Y-129032200D01*
X133502700Y-125425400D01*
X131953300Y-125425400D01*
X131953300Y-126454168D01*
X127311450Y-126447750D01*
X127308647Y-126193750D01*
X127307672Y-126092136D01*
X127306798Y-125976013D01*
X127306090Y-125856273D01*
X127305617Y-125743806D01*
X127305472Y-125682575D01*
X127305101Y-125425694D01*
X127825800Y-125425694D01*
X127825800Y-125933400D01*
X131432600Y-125933400D01*
X131432600Y-125425596D01*
X130667425Y-125422323D01*
X130524014Y-125421820D01*
X130359475Y-125421435D01*
X130178079Y-125421169D01*
X129984099Y-125421021D01*
X129781805Y-125420990D01*
X129575470Y-125421078D01*
X129369364Y-125421283D01*
X129167760Y-125421606D01*
X128974929Y-125422047D01*
X128864025Y-125422372D01*
X127825800Y-125425694D01*
X127305101Y-125425694D01*
X127305100Y-125425400D01*
X125247700Y-125425400D01*
X124739700Y-125425400D01*
X124219000Y-125425400D01*
X124219000Y-124383474D01*
X124733350Y-124390350D01*
X124733350Y-124904713D01*
X125117525Y-124904706D01*
X125501700Y-124904700D01*
X126022400Y-124904700D01*
X126543625Y-124904700D01*
X126540187Y-124647525D01*
X126536750Y-124390350D01*
X126061747Y-124384000D01*
X127051100Y-124384000D01*
X127051100Y-124904700D01*
X127571800Y-124904700D01*
X128079274Y-124904700D01*
X128600500Y-124904700D01*
X128600500Y-124384000D01*
X129121200Y-124384000D01*
X129121200Y-124904700D01*
X129629200Y-124904700D01*
X129629200Y-124384000D01*
X130149900Y-124384000D01*
X130149900Y-124904700D01*
X130657900Y-124904700D01*
X131178600Y-124904700D01*
X131699825Y-124904700D01*
X132207300Y-124904700D01*
X132728525Y-124904700D01*
X132725087Y-124647525D01*
X132721650Y-124390350D01*
X132246647Y-124384000D01*
X133236000Y-124384000D01*
X133236000Y-124904700D01*
X134010700Y-124904700D01*
X134010700Y-124384000D01*
X133236000Y-124384000D01*
X132246647Y-124384000D01*
X132207300Y-124383474D01*
X132207300Y-124904700D01*
X131699825Y-124904700D01*
X131696387Y-124647525D01*
X131692950Y-124390350D01*
X131178600Y-124383474D01*
X131178600Y-124904700D01*
X130657900Y-124904700D01*
X130657900Y-124384000D01*
X130149900Y-124384000D01*
X129629200Y-124384000D01*
X129121200Y-124384000D01*
X128600500Y-124384000D01*
X128600500Y-124383474D01*
X128086150Y-124390350D01*
X128079274Y-124904700D01*
X127571800Y-124904700D01*
X127571800Y-124384000D01*
X127051100Y-124384000D01*
X126061747Y-124384000D01*
X126022400Y-124383474D01*
X126022400Y-124904700D01*
X125501700Y-124904700D01*
X125501700Y-124384000D01*
X124739700Y-124384000D01*
X124739700Y-123876000D01*
X125577900Y-123876000D01*
X125577900Y-122326600D01*
X126098600Y-122326600D01*
X126098600Y-123876000D01*
X126619300Y-123876000D01*
X126619300Y-122847300D01*
X127648000Y-122847300D01*
X127648000Y-123876000D01*
X128498900Y-123876000D01*
X128498900Y-123355300D01*
X129006900Y-123355300D01*
X129006900Y-123876000D01*
X130035600Y-123876000D01*
X130035600Y-123355300D01*
X129006900Y-123355300D01*
X128498900Y-123355300D01*
X128498900Y-122847300D01*
X130556300Y-122847300D01*
X130556300Y-123876000D01*
X131254800Y-123876000D01*
X131254800Y-122847300D01*
X132283500Y-122847300D01*
X132283500Y-123876000D01*
X132804200Y-123876000D01*
X132804200Y-122326600D01*
X126098600Y-122326600D01*
X125577900Y-122326600D01*
X124219000Y-122326600D01*
X124219000Y-121297900D01*
X124739700Y-121297900D01*
X124739700Y-121805900D01*
X125247700Y-121805900D01*
X125247700Y-121297900D01*
X125768400Y-121297900D01*
X125768400Y-121805374D01*
X126019225Y-121808812D01*
X126112121Y-121809731D01*
X126210909Y-121810104D01*
X126307242Y-121809940D01*
X126392770Y-121809247D01*
X126444675Y-121808387D01*
X126619300Y-121804525D01*
X126619300Y-120777200D01*
X127127300Y-120777200D01*
X127127300Y-121804787D01*
X127219375Y-121808518D01*
X127268923Y-121809669D01*
X127335088Y-121810018D01*
X127409096Y-121809570D01*
X127479725Y-121808387D01*
X127648000Y-121804525D01*
X127648000Y-120777200D01*
X128156000Y-120777200D01*
X128156000Y-121804787D01*
X128248075Y-121808518D01*
X128297623Y-121809669D01*
X128363788Y-121810018D01*
X128437796Y-121809570D01*
X128508425Y-121808387D01*
X128676700Y-121804525D01*
X128676700Y-121241045D01*
X129193152Y-121241045D01*
X129193287Y-121359642D01*
X129193949Y-121472427D01*
X129194724Y-121542375D01*
X129198399Y-121805900D01*
X129705400Y-121805900D01*
X129705400Y-120777200D01*
X130226100Y-120777200D01*
X130226100Y-121805900D01*
X130734100Y-121805900D01*
X130734100Y-120777200D01*
X131254800Y-120777200D01*
X131254800Y-121805900D01*
X131761800Y-121805900D01*
X131765475Y-121542375D01*
X131766504Y-121439851D01*
X131767008Y-121324232D01*
X131766983Y-121205919D01*
X131766424Y-121095315D01*
X131765712Y-121028025D01*
X131762274Y-120777200D01*
X132283500Y-120777200D01*
X132283500Y-121804787D01*
X132375575Y-121808518D01*
X132417588Y-121809504D01*
X132479187Y-121810005D01*
X132554564Y-121810021D01*
X132637909Y-121809551D01*
X132723413Y-121808595D01*
X132724825Y-121808575D01*
X132982000Y-121804900D01*
X132982000Y-121297900D01*
X132461300Y-121297900D01*
X132461300Y-120777200D01*
X132283500Y-120777200D01*
X131762274Y-120777200D01*
X131254800Y-120777200D01*
X130734100Y-120777200D01*
X130226100Y-120777200D01*
X129705400Y-120777200D01*
X129197925Y-120777200D01*
X129194487Y-121028025D01*
X129193551Y-121127038D01*
X129193152Y-121241045D01*
X128676700Y-121241045D01*
X128676700Y-120777200D01*
X128156000Y-120777200D01*
X127648000Y-120777200D01*
X127127300Y-120777200D01*
X126619300Y-120777200D01*
X126276400Y-120777200D01*
X126276400Y-121297900D01*
X125768400Y-121297900D01*
X125768400Y-120777200D01*
X126276400Y-120777200D01*
X126276400Y-119748500D01*
X126797100Y-119748500D01*
X126797100Y-120269200D01*
X131953300Y-120269200D01*
X131953300Y-119748500D01*
X126797100Y-119748500D01*
X126276400Y-119748500D01*
X125768925Y-119748500D01*
X125765487Y-119491325D01*
X125762050Y-119234150D01*
X125247700Y-119227274D01*
X125247700Y-118719800D01*
X126276400Y-118719800D01*
X126276400Y-119227800D01*
X126533575Y-119227964D01*
X126573021Y-119227980D01*
X126636356Y-119227996D01*
X126722066Y-119228010D01*
X126828639Y-119228023D01*
X126954564Y-119228035D01*
X127098328Y-119228046D01*
X127258419Y-119228056D01*
X127433325Y-119228065D01*
X127621533Y-119228072D01*
X127821531Y-119228078D01*
X128031808Y-119228084D01*
X128250850Y-119228088D01*
X128477147Y-119228091D01*
X128709185Y-119228093D01*
X128945452Y-119228094D01*
X129184437Y-119228094D01*
X129424626Y-119228092D01*
X129664509Y-119228090D01*
X129902572Y-119228087D01*
X130137304Y-119228083D01*
X130367192Y-119228077D01*
X130590725Y-119228071D01*
X130806389Y-119228064D01*
X131012673Y-119228056D01*
X131208065Y-119228046D01*
X131391052Y-119228036D01*
X131560122Y-119228025D01*
X131713764Y-119228013D01*
X131850464Y-119228000D01*
X131968711Y-119227985D01*
X132066992Y-119227971D01*
X132143796Y-119227955D01*
X132197610Y-119227938D01*
X132210475Y-119227932D01*
X132461300Y-119227800D01*
X132461300Y-118719800D01*
X133502700Y-118719800D01*
X133502700Y-119227800D01*
X132982000Y-119227800D01*
X132982000Y-119748500D01*
X132461300Y-119748500D01*
X132461300Y-120777200D01*
X132982000Y-120777200D01*
X132982000Y-120777200D01*
G37*
X132982000Y-120777200D02*
X132982000Y-121297900D01*
X133502700Y-121297900D01*
X133502700Y-121805900D01*
X134010700Y-121805900D01*
X134010700Y-121297900D01*
X134531400Y-121297900D01*
X134531400Y-122326600D01*
X133312200Y-122326600D01*
X133312200Y-123876000D01*
X134010700Y-123876000D01*
X134010700Y-124383474D01*
X134525050Y-124390350D01*
X134525050Y-125419050D01*
X134267875Y-125422487D01*
X134010700Y-125425925D01*
X134010700Y-129540200D01*
X124739700Y-129540200D01*
X124739700Y-125425400D01*
X125247700Y-125425400D01*
X125247700Y-129032200D01*
X128003600Y-129032200D01*
X128003600Y-127482800D01*
X128524300Y-127482800D01*
X128524300Y-129032200D01*
X130581700Y-129032200D01*
X130581700Y-127482800D01*
X131102400Y-127482800D01*
X131102400Y-129032200D01*
X133502700Y-129032200D01*
X133502700Y-125425400D01*
X131953300Y-125425400D01*
X131953300Y-126454168D01*
X127311450Y-126447750D01*
X127308647Y-126193750D01*
X127307672Y-126092136D01*
X127306798Y-125976013D01*
X127306090Y-125856273D01*
X127305617Y-125743806D01*
X127305472Y-125682575D01*
X127305101Y-125425694D01*
X127825800Y-125425694D01*
X127825800Y-125933400D01*
X131432600Y-125933400D01*
X131432600Y-125425596D01*
X130667425Y-125422323D01*
X130524014Y-125421820D01*
X130359475Y-125421435D01*
X130178079Y-125421169D01*
X129984099Y-125421021D01*
X129781805Y-125420990D01*
X129575470Y-125421078D01*
X129369364Y-125421283D01*
X129167760Y-125421606D01*
X128974929Y-125422047D01*
X128864025Y-125422372D01*
X127825800Y-125425694D01*
X127305101Y-125425694D01*
X127305100Y-125425400D01*
X125247700Y-125425400D01*
X124739700Y-125425400D01*
X124219000Y-125425400D01*
X124219000Y-124383474D01*
X124733350Y-124390350D01*
X124733350Y-124904713D01*
X125117525Y-124904706D01*
X125501700Y-124904700D01*
X126022400Y-124904700D01*
X126543625Y-124904700D01*
X126540187Y-124647525D01*
X126536750Y-124390350D01*
X126061747Y-124384000D01*
X127051100Y-124384000D01*
X127051100Y-124904700D01*
X127571800Y-124904700D01*
X128079274Y-124904700D01*
X128600500Y-124904700D01*
X128600500Y-124384000D01*
X129121200Y-124384000D01*
X129121200Y-124904700D01*
X129629200Y-124904700D01*
X129629200Y-124384000D01*
X130149900Y-124384000D01*
X130149900Y-124904700D01*
X130657900Y-124904700D01*
X131178600Y-124904700D01*
X131699825Y-124904700D01*
X132207300Y-124904700D01*
X132728525Y-124904700D01*
X132725087Y-124647525D01*
X132721650Y-124390350D01*
X132246647Y-124384000D01*
X133236000Y-124384000D01*
X133236000Y-124904700D01*
X134010700Y-124904700D01*
X134010700Y-124384000D01*
X133236000Y-124384000D01*
X132246647Y-124384000D01*
X132207300Y-124383474D01*
X132207300Y-124904700D01*
X131699825Y-124904700D01*
X131696387Y-124647525D01*
X131692950Y-124390350D01*
X131178600Y-124383474D01*
X131178600Y-124904700D01*
X130657900Y-124904700D01*
X130657900Y-124384000D01*
X130149900Y-124384000D01*
X129629200Y-124384000D01*
X129121200Y-124384000D01*
X128600500Y-124384000D01*
X128600500Y-124383474D01*
X128086150Y-124390350D01*
X128079274Y-124904700D01*
X127571800Y-124904700D01*
X127571800Y-124384000D01*
X127051100Y-124384000D01*
X126061747Y-124384000D01*
X126022400Y-124383474D01*
X126022400Y-124904700D01*
X125501700Y-124904700D01*
X125501700Y-124384000D01*
X124739700Y-124384000D01*
X124739700Y-123876000D01*
X125577900Y-123876000D01*
X125577900Y-122326600D01*
X126098600Y-122326600D01*
X126098600Y-123876000D01*
X126619300Y-123876000D01*
X126619300Y-122847300D01*
X127648000Y-122847300D01*
X127648000Y-123876000D01*
X128498900Y-123876000D01*
X128498900Y-123355300D01*
X129006900Y-123355300D01*
X129006900Y-123876000D01*
X130035600Y-123876000D01*
X130035600Y-123355300D01*
X129006900Y-123355300D01*
X128498900Y-123355300D01*
X128498900Y-122847300D01*
X130556300Y-122847300D01*
X130556300Y-123876000D01*
X131254800Y-123876000D01*
X131254800Y-122847300D01*
X132283500Y-122847300D01*
X132283500Y-123876000D01*
X132804200Y-123876000D01*
X132804200Y-122326600D01*
X126098600Y-122326600D01*
X125577900Y-122326600D01*
X124219000Y-122326600D01*
X124219000Y-121297900D01*
X124739700Y-121297900D01*
X124739700Y-121805900D01*
X125247700Y-121805900D01*
X125247700Y-121297900D01*
X125768400Y-121297900D01*
X125768400Y-121805374D01*
X126019225Y-121808812D01*
X126112121Y-121809731D01*
X126210909Y-121810104D01*
X126307242Y-121809940D01*
X126392770Y-121809247D01*
X126444675Y-121808387D01*
X126619300Y-121804525D01*
X126619300Y-120777200D01*
X127127300Y-120777200D01*
X127127300Y-121804787D01*
X127219375Y-121808518D01*
X127268923Y-121809669D01*
X127335088Y-121810018D01*
X127409096Y-121809570D01*
X127479725Y-121808387D01*
X127648000Y-121804525D01*
X127648000Y-120777200D01*
X128156000Y-120777200D01*
X128156000Y-121804787D01*
X128248075Y-121808518D01*
X128297623Y-121809669D01*
X128363788Y-121810018D01*
X128437796Y-121809570D01*
X128508425Y-121808387D01*
X128676700Y-121804525D01*
X128676700Y-121241045D01*
X129193152Y-121241045D01*
X129193287Y-121359642D01*
X129193949Y-121472427D01*
X129194724Y-121542375D01*
X129198399Y-121805900D01*
X129705400Y-121805900D01*
X129705400Y-120777200D01*
X130226100Y-120777200D01*
X130226100Y-121805900D01*
X130734100Y-121805900D01*
X130734100Y-120777200D01*
X131254800Y-120777200D01*
X131254800Y-121805900D01*
X131761800Y-121805900D01*
X131765475Y-121542375D01*
X131766504Y-121439851D01*
X131767008Y-121324232D01*
X131766983Y-121205919D01*
X131766424Y-121095315D01*
X131765712Y-121028025D01*
X131762274Y-120777200D01*
X132283500Y-120777200D01*
X132283500Y-121804787D01*
X132375575Y-121808518D01*
X132417588Y-121809504D01*
X132479187Y-121810005D01*
X132554564Y-121810021D01*
X132637909Y-121809551D01*
X132723413Y-121808595D01*
X132724825Y-121808575D01*
X132982000Y-121804900D01*
X132982000Y-121297900D01*
X132461300Y-121297900D01*
X132461300Y-120777200D01*
X132283500Y-120777200D01*
X131762274Y-120777200D01*
X131254800Y-120777200D01*
X130734100Y-120777200D01*
X130226100Y-120777200D01*
X129705400Y-120777200D01*
X129197925Y-120777200D01*
X129194487Y-121028025D01*
X129193551Y-121127038D01*
X129193152Y-121241045D01*
X128676700Y-121241045D01*
X128676700Y-120777200D01*
X128156000Y-120777200D01*
X127648000Y-120777200D01*
X127127300Y-120777200D01*
X126619300Y-120777200D01*
X126276400Y-120777200D01*
X126276400Y-121297900D01*
X125768400Y-121297900D01*
X125768400Y-120777200D01*
X126276400Y-120777200D01*
X126276400Y-119748500D01*
X126797100Y-119748500D01*
X126797100Y-120269200D01*
X131953300Y-120269200D01*
X131953300Y-119748500D01*
X126797100Y-119748500D01*
X126276400Y-119748500D01*
X125768925Y-119748500D01*
X125765487Y-119491325D01*
X125762050Y-119234150D01*
X125247700Y-119227274D01*
X125247700Y-118719800D01*
X126276400Y-118719800D01*
X126276400Y-119227800D01*
X126533575Y-119227964D01*
X126573021Y-119227980D01*
X126636356Y-119227996D01*
X126722066Y-119228010D01*
X126828639Y-119228023D01*
X126954564Y-119228035D01*
X127098328Y-119228046D01*
X127258419Y-119228056D01*
X127433325Y-119228065D01*
X127621533Y-119228072D01*
X127821531Y-119228078D01*
X128031808Y-119228084D01*
X128250850Y-119228088D01*
X128477147Y-119228091D01*
X128709185Y-119228093D01*
X128945452Y-119228094D01*
X129184437Y-119228094D01*
X129424626Y-119228092D01*
X129664509Y-119228090D01*
X129902572Y-119228087D01*
X130137304Y-119228083D01*
X130367192Y-119228077D01*
X130590725Y-119228071D01*
X130806389Y-119228064D01*
X131012673Y-119228056D01*
X131208065Y-119228046D01*
X131391052Y-119228036D01*
X131560122Y-119228025D01*
X131713764Y-119228013D01*
X131850464Y-119228000D01*
X131968711Y-119227985D01*
X132066992Y-119227971D01*
X132143796Y-119227955D01*
X132197610Y-119227938D01*
X132210475Y-119227932D01*
X132461300Y-119227800D01*
X132461300Y-118719800D01*
X133502700Y-118719800D01*
X133502700Y-119227800D01*
X132982000Y-119227800D01*
X132982000Y-119748500D01*
X132461300Y-119748500D01*
X132461300Y-120777200D01*
X132982000Y-120777200D01*
G36*
X175333587Y-129289375D02*
G01*
X175330150Y-129546550D01*
X175072975Y-129549987D01*
X174815800Y-129553425D01*
X174815800Y-129032200D01*
X175337025Y-129032200D01*
X175333587Y-129289375D01*
X175333587Y-129289375D01*
G37*
X175333587Y-129289375D02*
X175330150Y-129546550D01*
X175072975Y-129549987D01*
X174815800Y-129553425D01*
X174815800Y-129032200D01*
X175337025Y-129032200D01*
X175333587Y-129289375D01*
G36*
X166192500Y-129552900D02*
G01*
X165671800Y-129552900D01*
X165671800Y-129032200D01*
X166192500Y-129032200D01*
X166192500Y-129552900D01*
X166192500Y-129552900D01*
G37*
X166192500Y-129552900D02*
X165671800Y-129552900D01*
X165671800Y-129032200D01*
X166192500Y-129032200D01*
X166192500Y-129552900D01*
D11*
X192010000Y-124892000D02*
X196010000Y-124892000D01*
X192060000Y-128092000D02*
X196060000Y-128092000D01*
X107696000Y-128092000D02*
X103696000Y-128092000D01*
X107646000Y-124892000D02*
X103646000Y-124892000D01*
X155070000Y-98260000D02*
X144790000Y-98260000D01*
X155070000Y-108660000D02*
X155070000Y-98260000D01*
X144790000Y-108660000D02*
X155070000Y-108660000D01*
X144790000Y-98260000D02*
X144790000Y-108660000D01*
X152580000Y-98320000D02*
X150930000Y-98320000D01*
X152580000Y-108600000D02*
X152580000Y-98320000D01*
X147280000Y-108600000D02*
X152580000Y-108600000D01*
X147280000Y-98320000D02*
X147280000Y-108600000D01*
X148930000Y-98320000D02*
X147280000Y-98320000D01*
X150930000Y-98320000D02*
G75*
G02X148930000Y-98320000I-1000000J0D01*
G01*
X150830000Y-109920000D02*
X148830000Y-109920000D01*
X148830000Y-111960000D02*
X150830000Y-111960000D01*
X150780000Y-112850000D02*
X148780000Y-112850000D01*
X148780000Y-114890000D02*
X150780000Y-114890000D01*
X189754000Y-82808000D02*
X191754000Y-82808000D01*
X191754000Y-80768000D02*
X189754000Y-80768000D01*
X108220000Y-82808000D02*
X110220000Y-82808000D01*
X110220000Y-80768000D02*
X108220000Y-80768000D01*
X108252000Y-84130000D02*
X110252000Y-84130000D01*
X110252000Y-86270000D02*
X108252000Y-86270000D01*
X192548000Y-121358000D02*
X194548000Y-121358000D01*
X194548000Y-123498000D02*
X192548000Y-123498000D01*
X105172000Y-121358000D02*
X107172000Y-121358000D01*
X107172000Y-123498000D02*
X105172000Y-123498000D01*
X158804000Y-117872000D02*
X158804000Y-119872000D01*
X156664000Y-119872000D02*
X156664000Y-117872000D01*
X143056000Y-117872000D02*
X143056000Y-119872000D01*
X140916000Y-119872000D02*
X140916000Y-117872000D01*
X155550000Y-93472000D02*
X155550000Y-95472000D01*
X153410000Y-95472000D02*
X153410000Y-93472000D01*
X189802000Y-84130000D02*
X191802000Y-84130000D01*
X191802000Y-86270000D02*
X189802000Y-86270000D01*
X145596000Y-111014000D02*
X145596000Y-113014000D01*
X143456000Y-113014000D02*
X143456000Y-111014000D01*
X150930000Y-117872000D02*
X150930000Y-119872000D01*
X148790000Y-119872000D02*
X148790000Y-117872000D01*
X154050000Y-117872000D02*
X154050000Y-119872000D01*
X151910000Y-119872000D02*
X151910000Y-117872000D01*
X147810000Y-117872000D02*
X147810000Y-119872000D01*
X145670000Y-119872000D02*
X145670000Y-117872000D01*
X146310000Y-93462000D02*
X146310000Y-95462000D01*
X144170000Y-95462000D02*
X144170000Y-93462000D01*
X148790000Y-95462000D02*
X148790000Y-93462000D01*
X150930000Y-93462000D02*
X150930000Y-95462000D01*
X156264000Y-110822000D02*
X156264000Y-112822000D01*
X154124000Y-112822000D02*
X154124000Y-110822000D01*
D12*
M02*
