<?xml version="1.0" encoding="UTF-8" standalone="no"?>
<!-- Created with Inkscape (http://www.inkscape.org/) -->

<svg
   xmlns:dc="http://purl.org/dc/elements/1.1/"
   xmlns:cc="http://creativecommons.org/ns#"
   xmlns:rdf="http://www.w3.org/1999/02/22-rdf-syntax-ns#"
   xmlns:svg="http://www.w3.org/2000/svg"
   xmlns="http://www.w3.org/2000/svg"
   xmlns:sodipodi="http://sodipodi.sourceforge.net/DTD/sodipodi-0.dtd"
   xmlns:inkscape="http://www.inkscape.org/namespaces/inkscape"
   width="60.0mm"
   height="12.0mm"
   viewBox="0 0 60.0 12.0"
   version="1.1"
   id="svg7992"
   inkscape:version="0.92.4 (unknown)"
   sodipodi:docname="pixelache_logo.svg">
  <defs
     id="defs7986" />
  <sodipodi:namedview
     id="base"
     pagecolor="#ffffff"
     bordercolor="#666666"
     borderopacity="1.0"
     inkscape:pageopacity="0.0"
     inkscape:pageshadow="2"
     inkscape:zoom="1.4"
     inkscape:cx="3.4886249"
     inkscape:cy="-70.760559"
     inkscape:document-units="mm"
     inkscape:current-layer="g8575"
     showgrid="true"
     inkscape:window-width="1472"
     inkscape:window-height="995"
     inkscape:window-x="68"
     inkscape:window-y="24"
     inkscape:window-maximized="0"
     borderlayer="true"
     inkscape:snap-grids="false"
     inkscape:snap-others="false"
     inkscape:snap-nodes="false">
    <inkscape:grid
       spacingx="2.54"
       spacingy="2.54"
       empspacing="1"
       type="xygrid"
       units="mm"
       id="grid8559" />
    <inkscape:grid
       id="grid8725"
       units="mm"
       type="xygrid"
       empspacing="1"
       spacingy="2.54"
       spacingx="2.54" />
  </sodipodi:namedview>
  <metadata
     id="metadata7989">
    <rdf:RDF>
      <cc:Work
         rdf:about="">
        <dc:format>image/svg+xml</dc:format>
        <dc:type
           rdf:resource="http://purl.org/dc/dcmitype/StillImage" />
        <dc:title />
      </cc:Work>
    </rdf:RDF>
  </metadata>
  <g
     id="g8565"
     sodipodi:insensitive="true"
     inkscape:groupmode="layer"
     inkscape:label="[fixed] BG">
    <rect
       id="rect8563"
       style="stroke:none;fill-opacity:1;fill:#FFFFFF"
       height="65.0"
       width="100.0"
       y="0"
       x="0" />
  </g>
  <g
     id="g8567"
     inkscape:groupmode="layer"
     inkscape:label="Edge.Cuts" />
  <g
     id="g8569"
     inkscape:groupmode="layer"
     inkscape:label="B.Cu-disabled" />
  <g
     id="g8571"
     inkscape:groupmode="layer"
     inkscape:label="B.Mask-disabled" />
  <g
     id="g8573"
     inkscape:groupmode="layer"
     inkscape:label="B.Silk-disabled" />
  <g
     inkscape:groupmode="layer"
     id="layer1"
     inkscape:label="stuff">
    <rect
       style="display:inline;opacity:1;fill:#800080;fill-opacity:0.975;stroke:none;stroke-width:0.2;stroke-linecap:round;stroke-linejoin:miter;stroke-miterlimit:4;stroke-dasharray:none;stroke-opacity:1;paint-order:normal"
       id="rect8672"
       width="66.807289"
       height="12.284225"
       x="2.5086405"
       y="18.227947" />
  </g>
  <g
     id="g8575"
     inkscape:groupmode="layer"
     inkscape:label="F.Cu"
     style="display:inline">
    <path
       style="display:inline;opacity:1;fill:#800080;fill-opacity:0.975;stroke:#ff00ff;stroke-width:0.06594101;stroke-linecap:round;stroke-linejoin:miter;stroke-miterlimit:4;stroke-dasharray:none;stroke-opacity:1;paint-order:normal"
       d="m 26.648386,3.64413 c -0.08628,-2.303e-4 -0.171153,0.018192 -0.328367,0.055245 -0.58155,0.1370928 -0.950214,0.4807542 -1.11807,1.0423761 -0.110355,0.3691641 -0.110394,1.5325392 -1.21e-4,1.9038325 0.04243,0.1428679 0.08936,0.2694687 0.104271,0.28137 0.01494,0.011916 0.07569,0.095225 0.135006,0.1851141 0.121114,0.1835404 0.464603,0.4384131 0.718675,0.5332014 0.116797,0.043547 0.289014,0.05786 0.562027,0.046648 0.333568,-0.0137 0.429357,-0.035294 0.626717,-0.1415824 0.128115,-0.068997 0.301568,-0.1939117 0.385526,-0.2775456 0.178221,-0.1775399 0.390787,-0.5678829 0.390787,-0.7177198 0,-0.1006851 -0.0108,-0.1042731 -0.319279,-0.1042731 h -0.31928 l -0.02679,0.1334518 c -0.0672,0.3360455 -0.381396,0.5592715 -0.78743,0.5592715 -0.332436,0 -0.642823,-0.1762462 -0.782056,-0.4438797 -0.228884,-0.4399607 -0.217835,-1.6948079 0.01816,-2.0611976 0.155329,-0.2411454 0.499846,-0.4388597 0.764591,-0.4388597 0.320161,0 0.735031,0.3002277 0.789235,0.5712357 0.02395,0.1198704 0.0284,0.121372 0.343542,0.121372 0.309653,0 0.319279,-0.0031 0.319279,-0.1055887 0,-0.058119 -0.01795,-0.116874 -0.03992,-0.1304595 -0.02198,-0.013582 -0.05178,-0.078146 -0.06614,-0.1436134 C 27.985573,4.3614075 27.683609,4.0061071 27.479937,3.8785141 27.394114,3.8247515 27.171574,3.7450799 26.98535,3.7015364 26.822408,3.6634352 26.734655,3.6444139 26.648373,3.6441455 Z m -9.00042,0.071752 -1.363689,0.014581 -1.363693,0.014605 v 1.9589597 1.9589565 h 1.363693 1.363689 V 7.3823293 7.1017974 l -1.028148,-0.011597 -1.028267,-0.011706 -0.01196,-0.595266 -0.01206,-0.5952701 h 0.910365 0.910359 V 5.6086101 5.3292714 l -0.681845,0.014471 c -0.375023,0.00788 -0.784159,0.00428 -0.909169,-0.00813 L 15.569924,5.3131579 V 4.7996806 4.2862067 h 1.039027 1.039035 V 4.0010083 Z m 1.384376,0.0036 -0.291775,0.012795 -0.291654,0.012795 -0.01128,1.904787 c -0.0061,1.0476793 -0.0021,1.9291912 0.0095,1.9589581 0.01592,0.041512 0.303396,0.054165 1.234304,0.054165 h 1.213498 V 7.3391611 7.0153439 L 19.974983,7.003629 19.055054,6.9919142 19.043672,5.3557035 Z m 10.43454,1.233e-4 -0.313901,0.012686 -0.313891,0.012795 -0.01126,1.9047853 c -0.0061,1.047681 -0.0021,1.929192 0.0095,1.9589598 0.01387,0.036166 0.121423,0.054165 0.324298,0.054165 h 0.30349 l 0.0117,-0.8766433 0.0117,-0.8767574 0.854154,-0.011715 0.854041,-0.011715 0.01173,0.8775945 0.0117,0.8775995 0.313899,0.012686 0.313898,0.012795 V 5.6951332 3.7233764 h -0.3247 -0.324779 V 4.5026849 5.2819866 H 30.332694 29.466817 V 4.5007693 Z m 6.060909,0.00167 -1.385337,0.00436 -1.385332,0.00436 v 1.9664879 1.9663713 h 1.385332 1.385337 V 7.3815106 7.1001382 l -0.98486,-6.87e-4 c -0.541703,-2.439e-4 -1.029267,-0.012494 -1.083516,-0.027024 -0.0971,-0.026018 -0.09843,-0.035227 -0.08657,-0.5946711 l 0.01195,-0.5683614 0.920043,-0.011597 0.919931,-0.011715 V 5.6063787 5.3266856 L 34.304834,5.3150886 33.384791,5.3033825 V 4.8054623 4.3076504 l 1.071549,-0.011597 1.071433,-0.011598 v -0.281726 z m -12.767185,0.0021 -0.06037,0.1407495 c -0.03319,0.077392 -0.114287,0.3160396 -0.180328,0.5303383 -0.06605,0.2143004 -0.134582,0.4091832 -0.152222,0.4329991 -0.01764,0.023798 -0.07465,0.1854535 -0.12664,0.3593359 -0.05198,0.173884 -0.115768,0.3687828 -0.141822,0.4330008 -0.09809,0.2418073 -0.342859,0.9459191 -0.386719,1.1124519 -0.02511,0.095247 -0.06153,0.2121076 -0.08084,0.2597277 -0.05975,0.1472635 -0.217158,0.6135222 -0.217158,0.6431014 0,0.015402 0.12426,0.027978 0.276111,0.027978 0.297523,0 0.341906,-0.026956 0.392225,-0.2380836 0.02896,-0.1214719 0.11805,-0.349098 0.194911,-0.497931 0.02761,-0.053402 0.172765,-0.066943 0.81757,-0.076654 l 0.784084,-0.011849 0.08789,0.1724327 c 0.04838,0.094833 0.08801,0.1937299 0.08801,0.2197924 0,0.02606 0.03945,0.1340275 0.08765,0.2398725 l 0.08765,0.1924051 h 0.299903 0.299906 l -0.0598,-0.1840677 c -0.03288,-0.101192 -0.08953,-0.2618207 -0.12592,-0.3570642 -0.03637,-0.09524 -0.06698,-0.2131851 -0.06805,-0.262 -0.0011,-0.048802 -0.01926,-0.1072403 -0.04056,-0.1298647 C 24.514863,6.7074147 24.415478,6.4454574 24.315242,6.1478172 24.215009,5.8501771 24.115822,5.5676366 24.094857,5.5200165 24.073884,5.4724132 24.00562,5.2678899 23.943108,5.0654933 23.880606,4.8631025 23.814789,4.6779523 23.796746,4.6541432 23.778687,4.6303377 23.710278,4.4355576 23.644759,4.2212639 23.57923,4.0069651 23.506063,3.8072617 23.482129,3.7775006 23.454006,3.7425338 23.31873,3.7233358 23.099596,3.7233358 Z M 6.5894586,3.7469427 c -0.3824397,-0.0031 -0.8366244,0.00167 -1.0092548,0.010651 l -0.3138979,0.016264 v 1.91579 c 0,1.0536622 0.013046,1.9287353 0.028917,1.9446041 0.01587,0.01587 0.1716894,0.028825 0.3463025,0.028825 H 5.9590089 V 6.9293361 6.1955965 L 6.5759233,6.1795583 C 7.3606139,6.1591712 7.5203099,6.1130427 7.8017359,5.8256054 7.9733215,5.6503479 8.0368733,5.5450944 8.0939905,5.3415406 8.1854433,5.0155982 8.1857197,4.8593025 8.0954989,4.5757532 8.0004028,4.2771217 7.7946486,4.0299691 7.5143404,3.8774106 7.2899328,3.7552726 7.2691972,3.7523934 6.5895097,3.746946 Z m 2.2268145,0.019851 v 1.9480778 1.948194 h 0.303137 0.3030163 V 5.7148482 3.7667708 H 9.1194101 Z m 1.4287439,0 v 0.2957237 c 0,0.1627093 0.01295,0.3089087 0.02881,0.3247776 0.01587,0.015887 0.161946,0.028825 0.324661,0.028825 h 0.295837 V 4.0914487 3.7667834 h -0.324659 z m 3.203663,0 v 0.2957237 c 0,0.1627093 0.01294,0.3089087 0.02881,0.3247776 0.01587,0.015887 0.171689,0.028825 0.3463,0.028825 h 0.317485 V 4.0914404 3.7667749 h -0.3463 z m -7.4896474,0.5128818 0.5984962,0.01412 c 0.4999405,0.011772 0.6108961,0.02663 0.6740726,0.089918 0.041604,0.041662 0.091573,0.075692 0.1109716,0.075692 0.073177,0 0.1749423,0.3031805 0.1749423,0.5210128 0,0.2827064 -0.1184091,0.4883114 -0.3489286,0.6059111 C 7.0297669,5.6571511 6.9133404,5.671593 6.4802818,5.671593 H 5.9590326 V 4.9756352 Z M 23.098537,4.5892649 c 0.06027,0 0.101277,0.07735 0.177813,0.3355434 0.05469,0.1845377 0.11643,0.3647533 0.137162,0.400472 0.06528,0.1124816 0.292376,0.9223212 0.269175,0.9598651 -0.02917,0.047251 -1.130832,0.046556 -1.160047,-6.871e-4 -0.02771,-0.044839 0.05389,-0.3591332 0.107981,-0.415777 0.0216,-0.022633 0.03934,-0.076085 0.03934,-0.1187418 0,-0.084828 0.209466,-0.72287 0.260206,-0.7925798 0.01732,-0.023805 0.04467,-0.1163822 0.06075,-0.2056729 0.02108,-0.1169897 0.0512,-0.1623942 0.107625,-0.1623942 z m -10.602312,0.775474 -0.313898,0.012795 -0.313898,0.012686 -0.01342,0.2358069 c -0.0074,0.1296871 -0.0021,0.2806962 0.01169,0.3355436 0.02313,0.092187 0.04782,0.09973 0.32717,0.09973 h 0.302297 V 5.7129612 Z m -2.251208,1.6488904 v 0.3247811 0.3246552 h 0.32466 0.324658 V 7.3384104 7.0136293 h -0.324658 z m 3.203663,0 v 0.3247811 0.3246552 h 0.346302 0.346303 V 7.3384104 7.0136293 h -0.346303 z"
       id="path7865"
       inkscape:connector-curvature="0" />
    <path
       style="display:inline;opacity:1;fill:#800080;fill-opacity:0.975;stroke:#ff00ff;stroke-width:0.07624067;stroke-linecap:round;stroke-linejoin:miter;stroke-miterlimit:4;stroke-dasharray:none;stroke-opacity:1;paint-order:normal"
       d="m 51.33671,3.5556447 c -0.291982,-5.434e-4 -1.364605,0.196443 -1.364605,0.2506611 0,0.021567 -0.05193,0.052374 -0.115444,0.068302 -0.06345,0.015946 -0.225272,0.1450045 -0.359607,0.2868834 l -0.244309,0.2579931 -0.02035,0.4067489 c -0.02528,0.504186 0.02548,0.6391999 0.317032,0.8448952 0.49303,0.3478251 1.196617,0.4369382 1.804262,0.2284044 0.175201,-0.060124 0.334631,-0.093268 0.354355,-0.073562 0.01978,0.019725 0.0088,0.2210384 -0.02374,0.4472697 -0.04419,0.3044908 -0.09611,0.4632903 -0.199792,0.6115073 -0.130171,0.1861279 -0.158868,0.201227 -0.408417,0.2155433 -0.368605,0.02114 -0.51916,-0.055329 -0.792205,-0.4028833 -0.233021,-0.2966046 -0.236032,-0.2984143 -0.447264,-0.2694629 -0.440729,0.060414 -0.51551,0.2368785 -0.289515,0.6828579 0.154994,0.3058809 0.315054,0.4147948 0.673042,0.4583231 0.152657,0.018533 0.559105,0.024423 0.903242,0.013001 0.636456,-0.02114 0.892525,-0.077216 1.276383,-0.2798344 0.211368,-0.1115607 0.72586,-0.5808633 0.72586,-0.6621194 0,-0.026303 0.02983,-0.083453 0.06656,-0.1269183 C 53.451512,6.2055705 53.55099,5.0924059 53.355753,4.682305 53.249567,4.4592668 53.033336,4.152328 52.940698,4.0930517 52.907466,4.071786 52.851081,4.0264258 52.815305,3.9922623 52.589636,3.7767539 51.8441,3.5566329 51.336764,3.5556427 Z m -7.499507,0.013826 c -0.0252,5.435e-4 -0.04913,0.00193 -0.0718,0.00379 -0.45802,0.039113 -0.992158,0.1799003 -1.21957,0.3214479 -0.315837,0.1965932 -0.631566,0.5157877 -0.735248,0.7434074 -0.122858,0.2696606 -0.247631,0.7451211 -0.247631,0.9434765 0,0.1849345 0.158082,0.7528709 0.266007,0.9556373 0.261902,0.4920613 0.885592,0.9087106 1.535913,1.0260067 0.300644,0.054224 1.021524,0.014532 1.301416,-0.071614 0.894815,-0.2754291 1.451565,-1.0252236 1.451565,-1.9548239 0,-0.6044212 -0.307573,-1.2463 -0.724057,-1.5108821 C 45.312136,3.9740224 45.18308,3.8928923 45.107067,3.8456108 44.8739,3.7006016 44.216214,3.5609673 43.837163,3.5695105 Z m -4.479554,0.011481 c -0.306867,6.89e-5 -0.644307,0.023193 -0.998218,0.070647 -0.495816,0.0665 -0.696311,0.1494058 -0.702354,0.2903459 -7.68e-4,0.021809 -0.04525,0.1297542 -0.09844,0.2398703 -0.147594,0.3055642 -0.130503,0.4486272 0.06844,0.5715561 0.09273,0.057306 0.207592,0.1041125 0.255227,0.1041125 0.04762,0 0.221112,-0.1353415 0.385597,-0.30085 0.585982,-0.5896263 1.012129,-0.6533012 1.077027,-0.1607923 0.05226,0.3966527 -0.277476,0.9798606 -0.954392,1.6879884 -0.575851,0.6023964 -0.881941,0.9763914 -0.881941,1.0774412 0,0.034082 0.04883,0.1411641 0.10853,0.2377972 l 0.10867,0.1757305 1.305424,-0.033328 c 1.589975,-0.040613 1.763957,-0.062372 1.856252,-0.231306 0.212838,-0.389589 0.350678,-0.8675763 0.317711,-1.1012211 -0.01579,-0.1118145 -0.04427,-0.1268079 -0.267526,-0.1408888 -0.214207,-0.013485 -0.264212,0.00155 -0.350347,0.1059078 -0.05528,0.066888 -0.19962,0.192279 -0.320751,0.2785921 -0.186505,0.1328839 -0.265125,0.1569223 -0.513079,0.1569223 -0.259448,0 -0.292828,-0.011394 -0.292828,-0.1001058 0,-0.055058 0.02001,-0.1001069 0.04455,-0.1001069 0.0245,0 0.131528,-0.078349 0.237802,-0.174066 0.106285,-0.095721 0.210595,-0.1744636 0.231865,-0.1751709 0.09999,-0.00301 0.824914,-0.7695238 0.932403,-0.9859138 C 40.973301,4.941194 41.046425,4.7934237 41.06987,4.7456133 41.193591,4.493362 41.0845,4.1616862 40.79127,3.898786 40.560304,3.6917389 40.032794,3.5807373 39.357676,3.5809349 Z m 9.087818,1.327e-4 -0.150149,0.012837 c -0.08264,0.00708 -0.481969,0.026875 -0.887479,0.04383 -0.523755,0.021885 -0.753383,0.050117 -0.792903,0.09774 -0.03062,0.036883 -0.06801,0.2030776 -0.08313,0.3692866 -0.02597,0.2858554 -0.0215,0.3022373 0.08215,0.3022373 0.06027,0 0.176073,0.034317 0.257299,0.076314 l 0.147658,0.076459 -7.67e-4,1.0623733 c -5.13e-4,0.5843037 -0.01734,1.0873794 -0.03759,1.1179514 -0.02025,0.030576 -0.110611,0.093375 -0.200886,0.1396372 -0.161668,0.082844 -0.163711,0.08798 -0.131061,0.3448149 0.01821,0.1434136 0.05076,0.2832659 0.07227,0.3108019 0.02411,0.030866 0.427407,0.047394 1.052004,0.042996 1.126265,-0.00796 1.065268,0.01245 1.123338,-0.3768957 C 48.929741,6.9767668 48.925101,6.964455 48.777318,6.8880401 48.50735,6.7484248 48.500076,6.7058313 48.471651,5.0826707 Z m 2.795156,0.4207192 c 0.125578,-0.00155 0.24545,0.037435 0.318266,0.1173843 0.169029,0.1855679 0.215272,0.3169169 0.215272,0.6119257 0,0.3026104 -0.135015,0.6412336 -0.277346,0.6958536 -0.187582,0.071974 -0.468674,0.030497 -0.60834,-0.089732 -0.135868,-0.1169706 -0.140459,-0.136657 -0.140459,-0.6050192 0,-0.4683957 0.0048,-0.4880308 0.140459,-0.6048745 0.09533,-0.081992 0.226567,-0.1240149 0.352148,-0.1255379 z m -7.382552,0.1567811 c 0.02751,7.847e-4 0.05697,0.00318 0.08893,0.00687 0.115688,0.013213 0.167551,0.064408 0.265738,0.2625533 0.106534,0.2149834 0.124647,0.3322078 0.143508,0.9260485 0.02674,0.8407254 -0.04544,1.3623707 -0.220103,1.5913486 -0.09721,0.1274379 -0.162866,0.1646647 -0.290479,0.1646647 -0.09523,0 -0.196371,-0.037057 -0.239464,-0.087658 C 43.420604,6.8044696 43.38996,6.6040322 43.38996,5.6069276 c 0,-0.8550252 0.01203,-1.0041123 0.09572,-1.189844 0.08807,-0.1954257 0.179849,-0.2638981 0.372463,-0.2584058 z"
       id="path7921"
       inkscape:connector-curvature="0" />
    <path
       sodipodi:nodetypes="cccsccscscccccsccsccccccsccccccccccccccccsccscccccccccccscccsccccccccccccscccccsccccccccccccccccccccccccccccccccccccccccscccccccccssccsscscscscscscccsccccccccccccccccccccccccccccccccccccccccccccccscccccccccccccccccccccccscccccccsccccccscccscccccscccccccsccsccccscccccccccccsccccc"
       inkscape:connector-curvature="0"
       id="path4999"
       d="m 34.399527,9.2165902 c 0,0 -0.445151,-0.1950026 -1.116375,-0.1888135 -0.452457,0.0042 -0.808045,0.040339 -0.994979,0.1011744 -0.159989,0.052078 -0.305519,0.071024 -0.323392,0.042099 -0.01784,-0.028917 -0.06887,-0.038629 -0.113316,-0.021569 -0.04446,0.017052 -0.123341,-0.032353 -0.175311,-0.1098152 C 31.540222,8.8370757 31.328337,8.623319 31.263449,8.623319 c -0.03064,0 -0.133979,0.083719 -0.229606,0.186046 -0.170363,0.1822869 -0.188671,0.1867523 -0.906175,0.2210919 -0.69097,0.033065 -0.74007,0.027618 -0.87005,-0.096593 -0.07578,-0.072398 -0.138181,-0.1099016 -0.138697,-0.083332 -4.44e-4,0.026571 -0.02557,0.00939 -0.05568,-0.038176 -0.04463,-0.070479 -0.115028,-0.047829 -0.380678,0.1224498 -0.179261,0.1149082 -0.347069,0.2020379 -0.372897,0.1936199 -0.02584,-0.00845 -0.04697,0.015201 -0.04697,0.052463 0,0.037279 -0.04275,0.051374 -0.09502,0.031314 -0.05449,-0.020915 -0.07906,-0.010651 -0.0576,0.024057 0.05236,0.084736 0.02375,0.078071 -0.314085,-0.07311 C 27.413763,8.992091 26.41325,8.9069556 26.17746,9.0254259 26.0913,9.0687129 25.746911,9.1138349 25.412149,9.1256945 L 24.80349,9.1472628 24.604608,8.9422602 C 24.495229,8.8295044 24.38886,8.6700514 24.36825,8.5879139 24.326805,8.4227722 24.124484,8.3434797 23.892872,8.40161 c -0.132803,0.033333 -0.335864,0.3619075 -0.29782,0.4819087 0.008,0.025247 -0.0061,0.041545 -0.03137,0.036199 -0.02525,-0.00537 -0.08725,0.00671 -0.137757,0.026797 -0.195766,0.077844 -1.503964,0.1194013 -4.683705,0.1487878 -1.818385,0.016801 -3.596636,0.034573 -3.951679,0.039492 -0.530656,0.00737 -0.675702,-0.010834 -0.815098,-0.102154 -0.207701,-0.1360713 -0.419505,-0.6077027 -0.387778,-0.8634777 0.0129,-0.1037906 0.0011,-0.2504399 -0.02668,-0.3258838 -0.02757,-0.075448 -0.03017,-0.1341766 -0.006,-0.1305055 0.02432,0.0036 0.175056,0.00335 0.335005,-4.66e-4 l 0.290816,-0.00729 V 7.304282 6.9035234 l -0.413267,0.018083 -0.413266,0.018091 -0.01863,0.2908193 -0.01863,0.2908168 h -0.264611 c -0.345484,0 -0.41059,0.089274 -0.434419,0.5956247 -0.01075,0.2280225 -0.02955,0.4586652 -0.04176,0.512538 -0.04859,0.2139275 -0.241511,0.4193163 -0.447214,0.4761153 -0.267028,0.07373 -2.5706563,0.023646 -2.7848344,-0.06055 C 9.0724218,8.9382345 8.9564393,8.7035245 8.918194,8.1830127 L 8.8831264,7.7050295 h 0.2810078 0.281013 l -0.0047,-1.9971454 -0.0047,-1.9971462 0.1496198,-0.056887 c 0.082294,-0.031281 0.2338219,-0.048651 0.3367358,-0.038579 0.1829782,0.01789 0.1872432,0.02575 0.1927752,0.3550372 0.0032,0.1852072 0.01,0.3711776 0.01529,0.413269 0.0065,0.05238 0.135205,0.076537 0.407609,0.076537 h 0.39798 V 4.0659125 3.6717007 l 0.280289,-0.04203 c 0.595015,-0.089228 1.193835,0.1048824 1.318371,0.4273589 0.04008,0.1038433 0.07833,0.389857 0.08494,0.6355835 0.0066,0.2457272 0.03966,0.4744478 0.0735,0.5082644 0.08943,0.089427 0.843074,0.043481 0.852621,-0.051977 0.0042,-0.04209 0.01431,-0.097196 0.02244,-0.1224505 0.0082,-0.025247 0.0119,-0.1615128 0.0084,-0.3027993 l -0.0063,-0.2568812 0.290084,-0.018618 0.290083,-0.018618 0.01806,-0.3762345 c 0.01952,-0.4064575 0.06121,-0.4475055 0.456436,-0.4494673 L 14.793047,3.60291 v 1.1578533 c 0,1.0679106 -0.0084,1.1566323 -0.107142,1.142094 -0.05894,-0.00864 -0.175072,0.00234 -0.258097,0.02456 -0.140354,0.037498 -0.151538,0.069264 -0.159282,0.4524645 -0.007,0.3445639 0.01039,0.4221428 0.105726,0.4731766 0.06273,0.033568 0.148184,0.056636 0.189893,0.051266 0.208412,-0.026881 0.228901,0.00917 0.228901,0.4026909 v 0.3979616 h 1.438785 1.438786 V 7.3376403 6.9702912 h -1.062568 -1.062567 l 0.0011,-0.5204096 0.0011,-0.5204129 h 0.942081 0.942074 L 17.413467,5.5774246 17.395097,5.225382 16.467109,5.208515 15.539108,5.191648 l 0.0097,-0.4117045 0.0096,-0.4117045 1.05613,-0.01675 1.056133,-0.016759 V 3.9688591 3.6029554 h 0.306121 0.306127 v 2.0510333 2.0510342 h 1.316335 1.316338 V 7.3376076 6.9702576 H 19.997136 19.078759 V 5.3248371 3.6794173 l 0.191329,-0.03826 c 0.553176,-0.1106323 1.117211,0.010064 1.339296,0.2866228 0.152165,0.1894782 0.153098,0.198367 0.159612,1.5163814 0.0036,0.7291796 0.02542,1.3562797 0.04845,1.3935554 0.02301,0.037279 0.178508,0.085891 0.345491,0.1080464 0.166986,0.022147 0.303313,0.043607 0.302949,0.047695 -4.22e-4,0.00411 -0.04169,0.142665 -0.09184,0.307967 -0.05016,0.1653018 -0.09118,0.3250349 -0.09118,0.3549652 0,0.029923 0.169962,0.04622 0.37769,0.036191 l 0.377687,-0.018241 0.127413,-0.3718866 0.127425,-0.3718824 0.760938,0.00671 c 0.608085,0.00537 0.767489,0.024736 0.793532,0.096373 0.01791,0.049304 0.07499,0.2136191 0.126817,0.3651529 l 0.09424,0.2755109 0.382656,0.018241 c 0.283125,0.01349 0.382658,-0.00251 0.382658,-0.061622 0,-0.109884 -0.05342,-0.2758999 -0.517973,-1.6096708 -0.792721,-2.2759965 -0.799585,-2.2990926 -0.702596,-2.364979 0.04833,-0.032839 0.284573,-0.048852 0.52494,-0.035579 0.52888,0.029203 0.803547,0.169376 0.96175,0.4908152 0.108206,0.219861 0.108494,0.2408053 0.0065,0.4880953 -0.06857,0.1664507 -0.117042,0.4923562 -0.136206,0.916029 -0.03825,0.8456715 0.112536,1.38423 0.500478,1.7874069 0.60492,0.6286847 1.636721,0.6083002 2.308465,-0.045609 0.258569,-0.2516952 0.472879,-0.8994455 0.29759,-0.8994455 -0.03471,0 -0.189754,0.1275264 -0.293235,0.00967 l -0.333154,-0.045925 c -0.09857,-0.013586 -0.05726,0.5294596 -0.361435,0.583551 -0.102517,0.095509 -0.216772,0.1261744 -0.470105,0.1261744 -0.310437,0 -0.351433,-0.017614 -0.566101,-0.2432797 -0.273816,-0.287842 -0.327999,-0.5384628 -0.289687,-1.3398702 0.02991,-0.6254863 0.152156,-0.8969995 0.480932,-1.0681503 0.152709,-0.079495 0.288195,-0.1008651 0.483244,-0.076227 0.310397,0.039224 0.475209,0.1629281 0.59538,0.4468906 0.08166,0.1929555 0.09531,0.1989802 0.450739,0.1989802 0.339683,0 0.366433,-0.010097 0.365184,-0.1377554 -0.0036,-0.3696979 -0.362835,-0.853218 -0.811798,-1.0926691 l -0.183305,-0.097767 0.224092,-0.036366 c 0.262394,-0.042593 0.884376,0.04726 1.178723,0.170239 l 0.205878,0.086019 V 5.7732274 7.704934 h 0.365625 0.365624 l 0.01701,-0.8418421 0.01701,-0.8418429 0.780746,-0.030618 0.780746,-0.03061 -1.24e-4,0.8753764 -1.24e-4,0.8753749 0.38266,-0.018241 0.382654,-0.018241 0.01612,-1.9981905 0.01614,-1.9981903 0.13693,-0.036701 c 0.0753,-0.020178 0.239873,-0.037079 0.365695,-0.037549 l 0.228754,-9.216e-4 0.01614,2.0357292 0.01612,2.0357267 1.42348,0.016432 1.423481,0.016433 V 7.3385239 6.9700445 H 34.44604 33.405209 V 6.449686 5.9292739 h 0.918375 0.918379 V 5.5619265 5.1945757 H 34.323498 33.405121 V 4.7660009 4.3374278 h 1.04083 1.040825 V 3.9627769 3.5881251 l 0.568601,0.024869 c 0.916188,0.04007 1.14569,0.266809 1.14569,1.1318629 0,0.2515995 -0.03955,0.4368578 -0.129273,0.6051461 -0.109397,0.2052364 -0.131636,0.3647414 -0.144572,1.0371246 -0.01336,0.6954659 -0.0011,0.8139271 0.09936,0.9496606 0.284148,0.3843324 0.274005,1.3180613 -0.01749,1.6095535 -0.143438,0.1434375 -0.505083,0.2331842 -1.000341,0.2482494 -0.332403,0.010114 -0.484135,0.040205 -0.524517,0.1040578 -0.04624,0.073085 -0.0579,0.067002 -0.06259,-0.032612 -0.0031,-0.067346 -0.01915,-0.089554 -0.03548,-0.049354 -0.0164,0.040214 -0.07617,0.058748 -0.132924,0.041235 C 35.1965,9.240397 35.046743,9.308572 35.046743,9.308572 Z M 10.936104,7.2982965 V 6.9034446 l -0.406357,0.018091 -0.406354,0.018091 -0.01217,0.3577446 c -0.01414,0.4171043 0.02693,0.4503663 0.514899,0.4169653 l 0.309951,-0.021225 z m 0.967523,-0.441722 c 0.04389,-0.027828 0.07506,-0.075616 0.06929,-0.1062055 -0.0058,-0.030585 -0.0072,-0.1864849 -0.0031,-0.3464342 l 0.0073,-0.2908166 h 0.275512 c 0.269156,0 0.275611,-0.00453 0.279729,-0.198982 0.0021,-0.10944 0.01372,-0.2700804 0.02532,-0.356978 0.03492,-0.2611161 -0.03773,-0.3096151 -0.433189,-0.2892264 l -0.361674,0.018652 -0.01863,0.2908176 c -0.01028,0.1599516 -0.03785,0.2947426 -0.06122,0.299538 -0.02339,0.00486 -0.13439,0.016265 -0.246619,0.02549 -0.112235,0.00924 -0.216726,0.029437 -0.232212,0.044914 -0.0155,0.015476 -0.03172,0.2129731 -0.03607,0.4388722 -0.0058,0.2952781 0.01655,0.4262177 0.07915,0.4658406 0.10916,0.069088 0.550059,0.072122 0.656641,0.00453 z M 5.6847671,8.9336342 C 5.4984061,8.7555345 5.4480485,8.5721934 5.4019586,7.9039404 5.3884426,7.7081216 5.3924144,7.7049575 5.6519451,7.7049575 h 0.263717 V 6.9702593 6.2355612 h 0.6448925 c 0.5646059,0 0.6820958,-0.018828 0.9436158,-0.1513687 C 7.8884157,5.8894789 8.0549275,5.649582 8.1338497,5.1769861 8.2497802,4.4827872 7.9796857,3.9724295 7.3659079,3.7259388 L 7.0483207,3.5983962 7.6911832,3.62976 C 8.0447567,3.64703 8.409597,3.696242 8.501937,3.7391528 l 0.1678903,0.078029 4.659e-4,1.8819808 4.651e-4,1.8819792 L 8.533001,7.5806767 C 8.4572346,7.580433 8.2385711,7.6138344 8.0470861,7.655044 7.668352,7.7365414 7.6323138,7.7847678 7.6307687,8.2121234 7.6296788,8.5208528 7.498702,8.8181837 7.2923569,8.9804933 7.1442721,9.0969787 7.0470629,9.1132229 6.4980938,9.1132229 c -0.6082595,0 -0.6307012,-0.00494 -0.813346,-0.1794974 z M 22.778257,5.4628859 c 0.137371,-0.4130269 0.268133,-0.7318677 0.290591,-0.7085337 0.0744,0.077316 0.482337,1.365999 0.44932,1.4194218 -0.01779,0.028842 -0.247787,0.049648 -0.511041,0.046246 L 22.528496,6.21382 Z M 5.9156621,4.9557484 V 4.3375899 l 0.5051017,9.218e-4 c 0.6427479,0.00117 0.7351834,0.028163 0.8690459,0.2547694 0.1382246,0.2340029 0.096739,0.6272201 -0.0854,0.809506 C 7.095515,5.5117637 6.9865729,5.5348204 6.4957032,5.5527749 L 5.9156663,5.5739999 Z M 29.495332,4.4360813 c -0.0053,-0.8639411 -0.02787,-0.8307119 0.573954,-0.8323549 0.394512,-0.00117 0.68672,0.084336 0.866549,0.2532762 0.131343,0.1233907 0.14326,0.184618 0.14326,0.7361587 v 0.6015782 h -0.789702 -0.789694 l -0.0042,-0.7586582 z"
       style="display:inline;opacity:1;fill:#ffff00;fill-opacity:1;stroke:#800080;stroke-width:0;stroke-miterlimit:4;stroke-dasharray:none;stroke-opacity:1" />
    <path
       sodipodi:nodetypes="csccccscccccccsccccccccccsssccccccssccccccccccsscscccccsccccccccccccccccccccscccsccccccccccccsccscccccsccccscsccccccssccccccsccsccccccccccsccccccccscscccccscccssccc"
       inkscape:connector-curvature="0"
       id="path8763"
       d="M 40.882381,9.1346027 C 40.852538,9.020607 40.74937,9.0080144 39.845447,9.0080144 c -0.621158,0 -1.00422,-0.027029 -1.004934,-0.070903 -5.36e-4,-0.038993 -0.03208,-0.023046 -0.06988,0.035451 -0.05303,0.082064 -0.06898,0.084381 -0.0698,0.010124 -5.36e-4,-0.052916 -0.04527,-0.079252 -0.0993,-0.058524 -0.05403,0.020713 -0.16548,-0.039668 -0.247687,-0.1342177 -0.08221,-0.094551 -0.125754,-0.1723933 -0.09677,-0.1729911 0.02899,-5.361e-4 0.0047,-0.032013 -0.05364,-0.069818 -0.07728,-0.04994 -0.08098,-0.069026 -0.01352,-0.069816 0.05246,-5.359e-4 0.07062,-0.036985 0.04178,-0.083649 -0.07844,-0.1269234 -0.09265,-0.5061262 -0.02377,-0.6348156 0.05203,-0.097219 0.247189,-0.1201194 1.251635,-0.1468581 0.699309,-0.018624 1.252023,-0.065255 1.340427,-0.11311 0.160942,-0.087123 0.523132,-0.9578241 0.523132,-1.2576154 0,-0.3605248 -0.654703,-0.4128066 -0.879185,-0.070203 -0.107231,0.1636574 -0.599026,0.3589467 -0.76479,0.3036902 -0.04046,-0.013507 0.08154,-0.1482624 0.271151,-0.2994884 0.845127,-0.6740335 1.11217,-1.025654 1.201041,-1.5814224 0.03071,-0.1921029 0.0092,-0.3481285 -0.06902,-0.4992955 -0.13663,-0.2642177 -0.144324,-0.339406 -0.02509,-0.2450869 0.04873,0.038556 0.173907,0.065444 0.278132,0.059757 0.104228,-0.00568 0.175741,0.011926 0.158914,0.039165 -0.01684,0.02723 0.06502,0.070511 0.181911,0.096182 0.116876,0.025673 0.229434,0.074061 0.250121,0.1075328 0.02069,0.033473 -0.05871,0.2127449 -0.17644,0.3983843 -0.19652,0.3098831 -0.214052,0.3888391 -0.214052,0.9640386 0,0.3716244 0.03948,0.7193319 0.097,0.8546647 0.173545,0.408176 0.64652,0.8656569 1.121919,1.0851604 0.396186,0.1829299 0.524185,0.2062893 1.120829,0.204542 0.576558,-0.00161 0.729726,-0.028612 1.063527,-0.1869442 0.484494,-0.2298004 0.857911,-0.5946933 1.094524,-1.069512 C 46.180667,6.1072901 46.215215,5.9356043 46.21475,5.5021742 46.214154,5.0470972 46.184923,4.9166014 46.019735,4.6338695 45.912816,4.4508644 45.720869,4.1876438 45.593186,4.0489319 45.465502,3.9102204 45.387335,3.7967306 45.419475,3.7967306 c 0.03215,0 0.08986,0.031421 0.128272,0.069828 0.03839,0.038407 0.164429,0.08049 0.280059,0.093517 0.288638,0.032522 0.510963,0.1635262 0.564665,0.3327256 0.02474,0.077942 0.130592,0.1621407 0.235229,0.187105 0.3324,0.079305 0.343398,0.1150062 0.329844,1.0706978 -0.01445,1.0192226 -0.04908,1.1930549 -0.247931,1.2450582 -0.200381,0.052399 -0.238344,0.2177211 -0.1292,0.5626419 l 0.09574,0.3025621 1.079529,0.00241 c 1.17556,0.00267 1.112435,0.025162 1.223341,-0.4361018 0.05818,-0.2419865 -0.02205,-0.4526146 -0.17241,-0.4526146 -0.18385,0 -0.251568,-0.4418094 -0.251568,-1.6413172 v -1.194742 l 0.230431,-0.00591 c 0.126736,-0.00324 0.348166,-0.018245 0.492066,-0.033328 l 0.261636,-0.027421 -0.226186,0.3638533 c -0.623033,1.0022491 0.110641,1.9015902 1.475454,1.8086165 0.272974,-0.018598 0.568098,-0.057048 0.655841,-0.085455 0.145724,-0.047182 0.159528,-0.029264 0.159528,0.2070559 0,0.3415416 -0.163091,0.7189167 -0.355107,0.8216824 -0.243425,0.1302757 -0.50419,0.017955 -0.866439,-0.3731627 L 50.046996,6.2524395 49.708705,6.3587668 c -0.333115,0.1047041 -0.338201,0.1107727 -0.332608,0.3969374 0.0064,0.3293595 0.155855,0.5970124 0.435475,0.7800819 0.158683,0.1038936 0.347571,0.12445 1.115712,0.1214279 0.847083,-0.00333 0.958312,-0.019379 1.325348,-0.1909855 C 52.472996,7.3631924 52.763379,7.182229 52.897934,7.0640925 53.39377,6.6287495 53.725881,5.4541876 53.525129,4.8459121 53.480198,4.7097615 53.348065,4.447985 53.231504,4.264184 53.061088,3.995467 52.926047,3.8856994 52.542125,3.7038331 52.086967,3.488218 52.026618,3.4780109 51.249312,3.4851792 c -0.523973,0.00483 -0.935762,0.046707 -1.152239,0.1171636 -0.185281,0.060307 -0.374505,0.048756 -0.374505,0.048756 1.490371,-0.4339286 2.719414,-0.3144469 3.808874,0.1006142 0,0 0.0082,0.046057 0.164112,0.1474473 0.155982,0.1013862 0.339407,0.1706357 0.407613,0.1538846 l 0.193384,0.1762227 c 0.09657,0.093478 0.186733,0.1598846 0.200352,0.1475737 0.01362,-0.012297 0.08519,0.051502 0.159034,0.141804 0.07385,0.090301 0.191081,0.2249245 0.260511,0.2991562 0.07087,0.075778 0.08205,0.1095296 0.02548,0.076957 -0.06267,-0.036086 -0.04928,0.012542 0.03545,0.1286814 0.157373,0.2157355 0.242544,0.2413647 0.242544,0.072983 0,-0.184782 0.05898,-0.079798 0.106405,0.1893988 0.02364,0.1342956 0.07556,0.2642875 0.115348,0.2888739 0.04518,0.027933 0.03018,0.086836 -0.03999,0.1570279 -0.07433,0.074339 -0.108187,0.2218024 -0.100085,0.4360238 0.0068,0.1780317 -0.0088,0.3445486 -0.03411,0.3700383 -0.02548,0.025484 -0.01195,0.087761 0.03005,0.1383875 0.04213,0.050752 0.05072,0.1331942 0.0192,0.1837767 -0.03144,0.050454 -0.06112,0.1622053 -0.06591,0.2483402 -0.0047,0.086136 -0.04535,0.2007426 -0.09011,0.2546805 -0.04476,0.053938 -0.06299,0.116481 -0.04049,0.1389796 0.0225,0.022509 -0.02564,0.076519 -0.106974,0.1200468 -0.08132,0.043529 -0.148606,0.1179001 -0.149502,0.1652731 -0.0016,0.089836 -0.778292,0.887931 -0.778292,0.7998399 0,-0.027649 -0.04786,-0.00241 -0.106299,0.056039 -0.05848,0.058473 -0.281808,0.1282364 -0.49631,0.1550367 -0.232618,0.029065 -0.390004,0.08358 -0.390004,0.1350938 0,0.1095666 0.0043,0.1090441 -1.123012,0.1357426 -0.697105,0.016506 -0.969535,-0.00134 -1.03618,-0.068018 -0.06986,-0.069855 -0.111084,-0.071297 -0.181337,-0.00634 -0.07097,0.065621 -0.07921,0.063429 -0.03751,-0.01 C 50.75563,8.912743 50.71731,8.898603 50.5523,8.924619 50.433552,8.943322 50.294554,8.984808 50.243419,9.016786 50.192279,9.048764 49.719721,9.082789 49.193272,9.092398 47.805768,9.117718 47.682835,9.113702 47.5942,9.040149 47.55011,9.003558 47.487933,8.99727 47.45602,9.026186 47.42411,9.055095 47.42096,9.03886 47.44902,8.99012 47.47708,8.941375 47.4709,8.901492 47.43529,8.901492 c -0.0356,0 -0.149158,-0.07824 -0.252341,-0.1738674 -0.103181,-0.095627 -0.187605,-0.1395773 -0.187605,-0.097669 0,0.048311 -0.03971,0.043256 -0.108448,-0.013802 -0.08386,-0.069594 -0.149083,-0.071493 -0.287604,-0.0084 -0.09852,0.044897 -0.163464,0.107013 -0.144291,0.1380365 0.01916,0.031026 -0.03023,0.097056 -0.109779,0.1467373 -0.118823,0.074201 -0.135124,0.073573 -0.09137,-0.00352 0.04285,-0.075513 0.03462,-0.076537 -0.04221,-0.00522 -0.05251,0.048747 -0.152912,0.088628 -0.223104,0.088628 -0.0702,0 -0.127623,0.037225 -0.127623,0.082718 0,0.045497 -0.02097,0.061727 -0.04666,0.036066 -0.02567,-0.025645 -0.0902,-0.010508 -0.143426,0.033664 -0.07534,0.062528 -0.08792,0.057221 -0.05677,-0.023956 0.03348,-0.087219 -0.05037,-0.1011716 -0.512412,-0.085264 -0.524973,0.018088 -1.04722,-0.058314 -1.311136,-0.1917808 -0.0801,-0.040511 -0.155692,-0.025886 -0.225163,0.043586 -0.103341,0.103349 -0.327811,0.07514 -0.327811,-0.041199 0,-0.033056 -0.116777,-0.082011 -0.259504,-0.1087866 C 42.778931,8.680113 42.698625,8.695997 42.633034,8.785698 42.51872,8.9420239 41.885513,9.1526465 41.349846,9.21252 40.968765,9.255115 40.911578,9.245567 40.882484,9.134463 Z m 0.511613,-0.1352709 c 0,-0.088192 -0.02219,-0.096608 -0.09517,-0.036065 -0.05234,0.043434 -0.121261,0.055316 -0.153169,0.026395 -0.03191,-0.028907 -0.03506,-0.012675 -0.007,0.036066 0.07356,0.127864 0.255337,0.1090687 0.255337,-0.026395 z m 0.389667,0.044604 c 0.02521,-0.040815 -0.03262,-0.064126 -0.137621,-0.055437 -0.09962,0.00826 -0.181146,0.039938 -0.181146,0.070429 0,0.080613 0.267455,0.068034 0.318767,-0.015006 z m 3.138515,0.091188 c 0.0882,-0.016964 0.215817,-0.01632 0.283605,0.00134 0.0678,0.017741 -0.0043,0.031621 -0.160353,0.030838 -0.155985,-8.033e-4 -0.21145,-0.015301 -0.123252,-0.032265 z M 43.703326,6.9467801 C 43.526066,6.7695202 43.485589,6.5134706 43.485589,5.569297 c 0,-1.1948263 0.166264,-1.5864468 0.543753,-1.2807763 0.149622,0.1211569 0.162633,0.1956187 0.188325,1.0776971 0.03,1.0298611 -0.04829,1.5018099 -0.2687,1.6197668 -0.100404,0.053734 -0.162634,0.043802 -0.245641,-0.039205 z M 38.213483,5.76426 c -0.279866,-0.526487 0.02027,-1.2632695 0.646561,-1.5871331 0.390833,-0.2021063 0.529396,0.1626661 0.272967,0.7185874 -0.138251,0.2997268 -0.692151,1.0280736 -0.781837,1.0280736 -0.0291,0 -0.09106,-0.071787 -0.137691,-0.1595279 z M 50.955839,5.220896 C 50.815743,5.1073313 50.790227,5.0256845 50.799333,4.7200114 c 0.01268,-0.4255757 0.164051,-0.639666 0.452291,-0.639666 0.281214,0 0.385289,0.1723719 0.385289,0.6381145 0,0.2378622 -0.03987,0.4545088 -0.09613,0.5222902 -0.128568,0.1549161 -0.379859,0.1463866 -0.584945,-0.019857 z"
       style="display:inline;fill:#ffff00;stroke:#800080;stroke-width:0;stroke-miterlimit:4;stroke-dasharray:none;stroke-opacity:1" />
  </g>
  <g
     id="g8577"
     inkscape:groupmode="layer"
     inkscape:label="F.Mask"
     style="display:inline;opacity:0.149">
    <path
       style="display:inline;opacity:1;fill:#800080;fill-opacity:0.975;stroke:#800080;stroke-width:0.1675878;stroke-linecap:round;stroke-linejoin:miter;stroke-miterlimit:4;stroke-dasharray:none;stroke-opacity:1;paint-order:normal"
       d="m 26.648386,3.64413 c -0.08628,-2.303e-4 -0.171153,0.018192 -0.328367,0.055245 -0.58155,0.1370928 -0.950214,0.4807542 -1.11807,1.0423761 -0.110355,0.3691641 -0.110394,1.5325392 -1.21e-4,1.9038325 0.04243,0.1428679 0.08936,0.2694687 0.104271,0.28137 0.01494,0.011916 0.07569,0.095225 0.135006,0.1851141 0.121114,0.1835404 0.464603,0.4384131 0.718675,0.5332014 0.116797,0.043547 0.289014,0.05786 0.562027,0.046648 0.333568,-0.0137 0.429357,-0.035294 0.626717,-0.1415824 0.128115,-0.068997 0.301568,-0.1939117 0.385526,-0.2775456 0.178221,-0.1775399 0.390787,-0.5678829 0.390787,-0.7177198 0,-0.1006851 -0.0108,-0.1042731 -0.319279,-0.1042731 h -0.31928 l -0.02679,0.1334518 c -0.0672,0.3360455 -0.381396,0.5592715 -0.78743,0.5592715 -0.332436,0 -0.642824,-0.1762462 -0.782057,-0.4438797 -0.228878,-0.4399598 -0.217829,-1.694807 0.01816,-2.0611967 0.155329,-0.2411454 0.499846,-0.4388597 0.764591,-0.4388597 0.320161,0 0.735032,0.3002277 0.789236,0.5712357 0.02395,0.1198704 0.0284,0.121372 0.343542,0.121372 0.309653,0 0.319279,-0.0031 0.319279,-0.1055887 0,-0.058119 -0.01795,-0.116874 -0.03992,-0.1304595 -0.02198,-0.013583 -0.05178,-0.078147 -0.06614,-0.1436143 C 27.985573,4.3614075 27.683609,4.0061071 27.479937,3.8785141 27.394114,3.8247515 27.171574,3.7450799 26.98535,3.7015364 26.822408,3.6634352 26.734655,3.6444139 26.648373,3.6441455 Z m -9.00042,0.071752 -1.363689,0.014581 -1.363693,0.014605 v 1.9589597 1.9589565 h 1.363693 1.363689 V 7.3823293 7.1017974 l -1.028148,-0.011597 -1.028267,-0.011706 -0.01196,-0.595266 -0.01206,-0.5952701 h 0.910365 0.910359 V 5.6086101 5.3292714 l -0.681845,0.014471 c -0.375023,0.00788 -0.784159,0.00428 -0.909169,-0.00813 L 15.569923,5.3131579 V 4.7996806 4.2862067 h 1.039027 1.039035 V 4.0010083 Z m 1.384376,0.0036 -0.291775,0.012795 -0.291654,0.012795 -0.01128,1.904787 c -0.0061,1.0476793 -0.0021,1.9291912 0.0095,1.9589581 0.01592,0.041512 0.303396,0.054165 1.234304,0.054165 h 1.213498 V 7.3391611 7.0153439 L 19.974983,7.003629 19.055054,6.9919142 19.043672,5.3557035 Z m 10.43454,1.233e-4 -0.313901,0.012686 -0.313891,0.012795 -0.01126,1.9047853 c -0.0061,1.047681 -0.0021,1.929192 0.0095,1.9589598 0.01387,0.036166 0.121423,0.054165 0.324298,0.054165 h 0.30349 l 0.0117,-0.8766433 0.0117,-0.8767574 0.854154,-0.011715 0.854041,-0.011715 0.01173,0.8775945 0.0117,0.8775995 0.313899,0.012686 0.313898,0.012795 V 5.6951366 3.7233798 h -0.3247 -0.324779 V 4.5026883 5.2819899 H 30.332694 29.466817 V 4.5007726 Z m 6.060909,0.00167 -1.385337,0.00436 -1.385332,0.00436 v 1.9664879 1.9663713 h 1.385332 1.385337 V 7.3815106 7.1001382 l -0.98486,-6.87e-4 c -0.541703,-2.439e-4 -1.029267,-0.012494 -1.083516,-0.027024 -0.0971,-0.026018 -0.09843,-0.035227 -0.08657,-0.5946711 l 0.01195,-0.5683614 0.920043,-0.011597 0.919931,-0.011715 V 5.6063796 5.3266864 L 34.304834,5.3150893 33.384791,5.3033833 V 4.8054632 4.3076512 l 1.071549,-0.011597 1.071433,-0.011597 v -0.281727 z m -12.767185,0.0021 -0.06037,0.1407495 c -0.03319,0.077392 -0.114287,0.3160396 -0.180328,0.5303383 -0.06605,0.2143004 -0.134582,0.4091832 -0.152222,0.4329991 -0.01764,0.023798 -0.07465,0.1854535 -0.12664,0.3593359 -0.05198,0.173884 -0.115768,0.3687828 -0.141822,0.4330008 -0.09809,0.2418073 -0.342859,0.9459191 -0.386719,1.1124519 -0.02511,0.095247 -0.06153,0.2121076 -0.08084,0.2597277 -0.05975,0.1472635 -0.217158,0.6135222 -0.217158,0.6431014 0,0.015402 0.12426,0.027978 0.276111,0.027978 0.297523,0 0.341906,-0.026956 0.392225,-0.2380836 0.02896,-0.1214719 0.11805,-0.349098 0.194911,-0.497931 0.02761,-0.053402 0.172765,-0.066943 0.81757,-0.076654 l 0.784084,-0.011849 0.08789,0.1724327 c 0.04838,0.094833 0.08801,0.1937299 0.08801,0.2197924 0,0.02606 0.03945,0.1340275 0.08765,0.2398725 l 0.08765,0.1924051 h 0.299903 0.299906 l -0.0598,-0.1840677 c -0.03288,-0.101192 -0.08953,-0.2618207 -0.12592,-0.3570642 -0.03637,-0.09524 -0.06698,-0.2131851 -0.06805,-0.262 -0.0011,-0.048802 -0.01926,-0.1072403 -0.04056,-0.1298647 C 24.514863,6.7074147 24.415478,6.4454574 24.315242,6.1478172 24.215009,5.8501762 24.115822,5.5676358 24.094857,5.5200165 24.073884,5.4724132 24.00562,5.267889 23.943108,5.0654924 23.880606,4.8631017 23.814789,4.6779515 23.796746,4.6541424 23.778688,4.6303365 23.710282,4.4355568 23.644759,4.221263 23.579232,4.0069644 23.506063,3.8072609 23.482129,3.7774998 23.454008,3.7425325 23.31873,3.7233354 23.099596,3.7233354 Z M 6.5894586,3.7469427 c -0.3824397,-0.0031 -0.8366244,0.00167 -1.0092548,0.010651 l -0.3138979,0.016264 v 1.91579 c 0,1.0536622 0.013046,1.9287353 0.028917,1.9446041 0.01587,0.01587 0.1716894,0.028825 0.3463025,0.028825 H 5.9590089 V 6.9293361 6.1955965 L 6.5759233,6.1795583 C 7.3606139,6.1591712 7.5203099,6.1130427 7.8017359,5.8256054 7.9733215,5.6503479 8.0368733,5.5450944 8.0939905,5.3415406 8.1854433,5.0155982 8.1857197,4.8593025 8.0954989,4.5757532 8.0004028,4.2771217 7.7946486,4.0299691 7.5143404,3.8774106 7.2899328,3.7552726 7.2691972,3.7523934 6.5895097,3.746946 Z m 2.2268145,0.019851 v 1.9480778 1.948194 h 0.303137 0.3030163 V 5.7148482 3.7667708 H 9.1194101 Z m 1.4287439,0 v 0.2957237 c 0,0.1627093 0.01295,0.3089087 0.02881,0.3247776 0.01587,0.015887 0.161946,0.028825 0.324661,0.028825 h 0.295837 V 4.0914487 3.7667834 h -0.324659 z m 3.203663,0 v 0.2957237 c 0,0.1627093 0.01294,0.3089087 0.02881,0.3247776 0.01587,0.015887 0.171689,0.028825 0.3463,0.028825 h 0.317485 V 4.0914404 3.7667749 h -0.3463 z m -7.4896474,0.5128818 0.5984962,0.01412 c 0.4999405,0.011772 0.6108961,0.02663 0.6740726,0.089918 0.041604,0.041662 0.091573,0.075692 0.1109716,0.075692 0.073177,0 0.1749423,0.3031805 0.1749423,0.5210128 0,0.2827064 -0.1184091,0.4883114 -0.3489286,0.6059111 C 7.0297669,5.6571511 6.9133404,5.671593 6.4802818,5.671593 H 5.9590326 V 4.9756352 Z M 23.098537,4.5892649 c 0.06027,0 0.101277,0.07735 0.177813,0.3355434 0.05469,0.1845377 0.11643,0.3647533 0.137162,0.400472 0.06528,0.1124816 0.292376,0.9223212 0.269175,0.9598651 -0.02917,0.047251 -1.130832,0.046556 -1.160047,-6.871e-4 -0.02771,-0.044839 0.05389,-0.3591332 0.107981,-0.415777 0.0216,-0.022633 0.03934,-0.076085 0.03934,-0.1187418 0,-0.084828 0.209466,-0.72287 0.260206,-0.7925798 0.01732,-0.023805 0.04467,-0.1163822 0.06075,-0.2056729 0.02108,-0.1169897 0.0512,-0.1623942 0.107625,-0.1623942 z m -10.602312,0.775474 -0.313898,0.012795 -0.313898,0.012686 -0.01342,0.2358069 c -0.0074,0.1296871 -0.0021,0.2806962 0.01169,0.3355436 0.02313,0.092187 0.04782,0.09973 0.32717,0.09973 h 0.302297 V 5.7129612 Z m -2.251208,1.6488904 v 0.3247811 0.3246552 h 0.32466 0.324658 V 7.3384104 7.0136293 h -0.324658 z m 3.203663,0 v 0.3247811 0.3246552 h 0.346302 0.346303 V 7.3384104 7.0136293 h -0.346303 z"
       id="path7865-7"
       inkscape:connector-curvature="0" />
    <path
       inkscape:connector-curvature="0"
       id="path8789"
       d="m 51.33671,3.5556447 c -0.291982,-5.434e-4 -1.364605,0.196443 -1.364605,0.2506611 0,0.021567 -0.05193,0.052374 -0.115444,0.068302 -0.06345,0.015946 -0.225272,0.1450045 -0.359607,0.2868834 l -0.244309,0.2579931 -0.02035,0.4067489 c -0.02528,0.504186 0.02548,0.6391999 0.317032,0.8448952 0.49303,0.3478251 1.196617,0.4369382 1.804262,0.2284044 0.175201,-0.060124 0.334631,-0.093268 0.354355,-0.073562 0.01978,0.019725 0.0088,0.2210384 -0.02374,0.4472697 -0.04419,0.3044908 -0.09611,0.4632903 -0.199792,0.6115073 -0.130171,0.1861279 -0.158868,0.201227 -0.408417,0.2155433 -0.368605,0.02114 -0.51916,-0.055329 -0.792205,-0.4028833 -0.233021,-0.2966046 -0.236032,-0.2984143 -0.447264,-0.2694629 -0.440729,0.060414 -0.51551,0.2368785 -0.289515,0.6828579 0.154994,0.3058809 0.315054,0.4147948 0.673042,0.4583231 0.152657,0.018533 0.559105,0.024423 0.903242,0.013001 0.636456,-0.02114 0.892525,-0.077216 1.276383,-0.2798344 0.211368,-0.1115607 0.72586,-0.5808633 0.72586,-0.6621194 0,-0.026303 0.02983,-0.083453 0.06656,-0.1269183 C 53.451512,6.2055705 53.55099,5.0924059 53.355753,4.682305 53.249567,4.4592668 53.033336,4.152328 52.940698,4.0930517 52.907466,4.071786 52.851081,4.0264258 52.815305,3.9922623 52.589636,3.7767539 51.8441,3.5566329 51.336764,3.5556427 Z m -7.499507,0.013826 c -0.0252,5.435e-4 -0.04913,0.00193 -0.0718,0.00379 -0.45802,0.039113 -0.992158,0.1799003 -1.21957,0.3214479 -0.315837,0.1965932 -0.631566,0.5157877 -0.735248,0.7434074 -0.122858,0.2696606 -0.247631,0.7451211 -0.247631,0.9434765 0,0.1849345 0.158082,0.7528709 0.266007,0.9556373 0.261902,0.4920613 0.885592,0.9087106 1.535913,1.0260067 0.300644,0.054224 1.021524,0.014532 1.301416,-0.071614 0.894815,-0.2754291 1.451565,-1.0252236 1.451565,-1.9548239 0,-0.6044212 -0.307573,-1.2463 -0.724057,-1.5108821 C 45.312136,3.9740224 45.18308,3.8928923 45.107067,3.8456108 44.8739,3.7006016 44.216214,3.5609673 43.837163,3.5695105 Z m -4.479554,0.011481 c -0.306867,6.89e-5 -0.644307,0.023193 -0.998218,0.070647 -0.495816,0.0665 -0.696311,0.1494058 -0.702354,0.2903459 -7.68e-4,0.021809 -0.04525,0.1297542 -0.09844,0.2398703 -0.147594,0.3055642 -0.130503,0.4486272 0.06844,0.5715561 0.09273,0.057306 0.207592,0.1041125 0.255227,0.1041125 0.04762,0 0.221112,-0.1353415 0.385597,-0.30085 0.585982,-0.5896263 1.012129,-0.6533012 1.077027,-0.1607923 0.05226,0.3966527 -0.277476,0.9798606 -0.954392,1.6879884 -0.575851,0.6023964 -0.881941,0.9763914 -0.881941,1.0774412 0,0.034082 0.04883,0.1411641 0.10853,0.2377972 l 0.10867,0.1757305 1.305424,-0.033328 c 1.589975,-0.040613 1.763957,-0.062372 1.856252,-0.231306 0.212838,-0.389589 0.350678,-0.8675763 0.317711,-1.1012211 -0.01579,-0.1118145 -0.04427,-0.1268079 -0.267526,-0.1408888 -0.214207,-0.013485 -0.264212,0.00155 -0.350347,0.1059078 -0.05528,0.066888 -0.19962,0.192279 -0.320751,0.2785921 -0.186505,0.1328839 -0.265125,0.1569223 -0.513079,0.1569223 -0.259448,0 -0.292828,-0.011394 -0.292828,-0.1001058 0,-0.055058 0.02001,-0.1001069 0.04455,-0.1001069 0.0245,0 0.131528,-0.078349 0.237802,-0.174066 0.106285,-0.095721 0.210595,-0.1744636 0.231865,-0.1751709 0.09999,-0.00301 0.824914,-0.7695238 0.932403,-0.9859138 C 40.973301,4.941194 41.046425,4.7934237 41.06987,4.7456133 41.193591,4.493362 41.0845,4.1616862 40.79127,3.898786 40.560304,3.6917389 40.032794,3.5807373 39.357676,3.5809349 Z m 9.087818,1.327e-4 -0.150149,0.012837 c -0.08264,0.00708 -0.481969,0.026875 -0.887479,0.04383 -0.523755,0.021885 -0.753383,0.050117 -0.792903,0.09774 -0.03062,0.036883 -0.06801,0.2030776 -0.08313,0.3692866 -0.02597,0.2858554 -0.0215,0.3022373 0.08215,0.3022373 0.06027,0 0.176073,0.034317 0.257299,0.076314 l 0.147658,0.076459 -7.67e-4,1.0623733 c -5.13e-4,0.5843037 -0.01734,1.0873794 -0.03759,1.1179514 -0.02025,0.030576 -0.110611,0.093375 -0.200886,0.1396372 -0.161668,0.082844 -0.163711,0.08798 -0.131061,0.3448149 0.01821,0.1434136 0.05076,0.2832659 0.07227,0.3108019 0.02411,0.030866 0.427407,0.047394 1.052004,0.042996 1.126265,-0.00796 1.065268,0.01245 1.123338,-0.3768957 C 48.929741,6.9767668 48.925101,6.964455 48.777318,6.8880401 48.50735,6.7484248 48.500076,6.7058313 48.471651,5.0826707 Z m 2.795156,0.4207192 c 0.125578,-0.00155 0.24545,0.037435 0.318266,0.1173843 0.169029,0.1855679 0.215272,0.3169169 0.215272,0.6119257 0,0.3026104 -0.135015,0.6412336 -0.277346,0.6958536 -0.187582,0.071974 -0.468674,0.030497 -0.60834,-0.089732 -0.135868,-0.1169706 -0.140459,-0.136657 -0.140459,-0.6050192 0,-0.4683957 0.0048,-0.4880308 0.140459,-0.6048745 0.09533,-0.081992 0.226567,-0.1240149 0.352148,-0.1255379 z m -7.382552,0.1567811 c 0.02751,7.847e-4 0.05697,0.00318 0.08893,0.00687 0.115688,0.013213 0.167551,0.064408 0.265738,0.2625533 0.106534,0.2149834 0.124647,0.3322078 0.143508,0.9260485 0.02674,0.8407254 -0.04544,1.3623707 -0.220103,1.5913486 -0.09721,0.1274379 -0.162866,0.1646647 -0.290479,0.1646647 -0.09523,0 -0.196371,-0.037057 -0.239464,-0.087658 C 43.420604,6.8044696 43.38996,6.6040322 43.38996,5.6069276 c 0,-0.8550252 0.01203,-1.0041123 0.09572,-1.189844 0.08807,-0.1954257 0.179849,-0.2638981 0.372463,-0.2584058 z"
       style="display:inline;opacity:1;fill:#800080;fill-opacity:0.975;stroke:#ff00ff;stroke-width:0.07624067;stroke-linecap:round;stroke-linejoin:miter;stroke-miterlimit:4;stroke-dasharray:none;stroke-opacity:1;paint-order:normal" />
  </g>
  <g
     id="g8579"
     inkscape:groupmode="layer"
     inkscape:label="F.Silk-disabled" />
  <g
     id="g8581"
     inkscape:groupmode="layer"
     inkscape:label="Drill" />
</svg>
